<?xml version="1.0" encoding="UTF-8"?>
<svg id="Layer_1" data-name="Layer 1" xmlns="http://www.w3.org/2000/svg" viewBox="0 0 460.448355165582143 74.915684759488613">
  <defs>
    <style>
      .cls-1 {
        fill: #fff;
      }
    </style>
  </defs>
  <path class="cls-1" d="M455.198666732680977,1.212118990027193c2.901100968862011,0,5.249688432901166,2.349397601127748,5.249688432901166,5.250498569984302,0,2.901100968872015-2.348587464039156,5.250498570011587-5.249688432901166,5.250498570011587-2.901911105960608,0-5.250498569999763-2.349397601139572-5.250498569999763-5.250498570011587,0-2.901100968856554,2.348587464039156-5.250498569984302,5.250498569999763-5.250498569984302ZM455.198666732680977,10.21274221369913c2.107976744198822,0,3.66506025777926-1.698047369661253,3.66506025777926-3.750124653687635,0-2.05207728402911-1.557083513580437-3.750934790782594-3.66506025777926-3.750934790782594-2.108786881301057,0-3.665870394877857,1.698857506753484-3.665870394877857,3.750934790782594,0,2.052077284026382,1.557083513576799,3.750124653687635,3.665870394877857,3.750124653687635ZM453.146589448652776,3.631998519199442h2.207623607970163c1.471208980579831,0,2.179268809337373.636767763622629,2.179268809337373,1.754756966919558,0,.934088080730362-.62299543285917,1.472019117687523-1.401537189649389,1.570855844339349l1.401537189649389,2.334815133283882h-1.358599923147267l-1.330245124499925-2.278105536012845h-.452866641051514v2.278105536012845h-1.24518072860883V3.631998519199442ZM454.391770177261606,6.023523249737082h.947860411499278c.551703367698792,0,.948670548590599-.098836726666377.948670548590599-.707249691654397,0-.622995432857351-.60922310208116-.693477360891848-1.075862073888857-.693477360891848h-.82066888620102v1.400727052546245Z"/>
  <path class="cls-1" d="M28.775637204191298,19.228652970995427c-.197797533348421.066366277638735-.13143125571878.663012126600734.06636627763146.663012126600734,4.575369258360297,1.922670102169832,7.957446818780227,5.172015107316838,7.957446818780227,10.940025413816329,0,4.376270425436815-2.454250973051785,7.492882875307259-5.635928401002275,9.614651810385112-3.182978727508271,2.254501490358962-9.217104794338411,2.917513616957876-11.869153300737707,2.917513616957876-1.856954474310442,0-9.149437217150989-.132732555273833-12.133317111739416-.199098832912568-2.387884695422144-.066366277638735-3.978072759610768.066366277638735-5.039933201830536.066366277638735-1.193291697919449,0-2.121118285293051-.46456394346751-2.121118285293051-1.061209792431328,0-.596645848960179,1.126925420292537-.994192865009609,1.85565317475357-1.126925420288899,4.045740336800009-.795744681876386,4.309904147788984-1.790588196668978,4.575369258348474-4.044439037246775.132732555270195-1.392390530840203.597296498739524-8.023162446632341.597296498739524-21.151323073164349,0-5.636579050780711-.265465110550394-9.018005961425843-.464563943469329-9.945832548800354-.331831388190039-1.458756808477119-.728727754459214-1.989687029583365-4.177171592519699-2.652699156184099-.861460309738504-.132081905497216-1.657855641391507-.530279571326901-1.657855641391507-1.259657975564551,0-.530279571325082.929127886930473-.862110959515121,1.790588196671706-.862110959515121h4.376270425429539c2.121118285299417,0,10.211297659360753-.463913293686346,12.929712443399694-.463913293686346,3.845340204330569,0,7.557947853390942.729378404239469,9.547634882971579,1.989036379802201,3.249345005148825,1.989036379804929,4.641735535988118,4.906549996761896,4.641735535988118,8.155895001911631,0,5.039282552036639-3.448443838060484,7.226767114974791-5.239032034730371,8.420709462681771ZM17.7692455127426,3.0502461722308c-.398197665829684,0-1.591489363760047.198448183135042-2.32021711822108.39754701604852-.132732555267467.066366277639645-.530930221108974.663012126601643-.597296498739524,1.061209792430418-.13273255527929,1.060559142651073-.265465110549485,2.983229244817267-.265465110549485,14.123004141322781,0,.264814460773778.331831388180035.795094032099769.730029054021543.795094032099769,2.386583395848902,0,6.166858622098516-.331180738411604,7.757046686298963-1.524472436340147,2.056053307218463-1.458756808477119,3.18297872750918-3.713258298833352,3.18297872750918-6.298940527601189,0-5.503846495505968-3.712607649060374-8.553442017960151-8.487075740319597-8.553442017960151ZM23.139708803191752,22.809178714554037c-1.525123086119493-.862110959515121-3.44714253850816-1.260308625343896-5.702294678639191-1.260308625343896-.927826587379968,0-2.054752007660682.265465110555851-2.253850840580526.46456394346751s-.530930221108974.530279571325082-.530930221108974,3.115961800092919c-.06636627763055,1.72422191903388.13273255527838,9.681018088027486.265465110549485,11.670054467831505.066366277639645.530279571325082.398197665841508,1.591489363752771.862761609299014,2.121768935081491,1.126925420290718,1.193291697927634,2.98387989460025,2.254501490357143,4.177171592530613,2.254501490357143,4.243537870149339,0,8.088878074490822-4.243537870161163,8.088878074490822-9.813099993525611,0-3.845990854111733-1.989687029590641-7.028318931843387-4.907200646541241-8.553442017961061Z"/>
  <path class="cls-1" d="M63.380494507302501,1.45875680847621c.595995199179015,1.525123086116764,1.790588196668978,4.972916274400632,2.65204850641021,7.425865947890998,3.646241371407996,10.211297659353477,8.155244352128648,22.278899143235321,9.481268605330115,25.593959776240808,2.188785862499572,5.371113940229407,3.647542670981238,6.034126066828321,5.901393511559945,6.697138193432693,1.126925420278894.331180738407056,1.724221919030242.729378404239469,1.724221919030242,1.193291697925815,0,.463913293682708-.663662776390993.994843514788954-2.188785862500481.994843514788954-1.656554341830088,0-6.630121266010065-.265465110551304-8.68617457324126-.265465110551304-2.187484562939062,0-4.773166791698713.132732555277471-6.497388710729865.132732555277471-1.326024253207834,0-2.121118285298508-.398197665832413-2.121118285298508-.994843514792592,0-.331180738408875.463262643900634-.862110959515121,1.722920619470642-1.126925420288899,2.718414784038941-.663012126602553,2.784781061679496-1.724221919030242,2.652048506398387-2.784781061680405-.131431255709686-1.724221919030242-1.523821786549888-5.437480217868142-3.048944872669381-9.681018088027486-.066366277640554-.264814460773778-.796395331661188-.994192865015066-1.525123086119493-.994192865015066-7.094685209480303-.066366277635098-10.277663936991303.132732555281109-11.205490524360357.199098832916206-.199098832919844,0-.597296498750438.463913293686346-.730029054020633.663012126602553-2.121118285300327,5.237730735170771-2.851147339319141,8.287976907406119-2.851147339319141,9.614001160607586s.663662776380079,2.254501490357143,3.116612449868626,2.917513616957876c1.326024253211472.331180738412513,1.923320751950996.72937840423765,1.923320751950996,1.326024253205105,0,.530279571321444-.862761609300833.862110959515121-1.989687029589732.862110959515121-1.193291697931272,0-2.85114733932096-.132732555277471-5.304097012811326-.132732555277471-2.519315951129101,0-5.569562123358992.265465110551304-6.565056287938205.265465110551304-1.525123086110398,0-1.922019452380482-.398197665825137-1.922019452380482-.795744681872748,0-.46456394346751.26546511055858-.928477237157495,1.657855641397873-1.326024253205105,3.380776260862149-.928477237153857,4.110805314881873-1.989687029585184,6.032824767262355-5.901393511554488,1.591489363760047-3.182978727512818,8.752540850879996-22.079800310319115,11.470955634919846-28.511473393198685.132732555269286-.331180738409785.398197665829684-.994192865009609.464563943469329-1.326024253203286.066366277629641-.199098832914387.265465110550394-.530279571322353.530930221100789-.928477237151128.662361476819569-.861460309738504,2.519315951128192-2.983229244817267,2.98257859503974-3.712607649058555.398197665828775-.596645848961998.862761609300833-.862110959511483,1.194592997489963-.862110959511483.33053008862953,0,.595995199179015.132732555272923,1.126925420279804,1.45875680847621ZM63.513227062581791,23.869737857207838c-.995494164569209-3.049595522457821-3.913007781529814-11.072757969089253-4.840834368898868-13.260893181810388-.132732555281109-.463913293685437-.530930221109884-.33183138818913-.728727754460124.199098832916206-1.194592997489963,3.182328077728926-4.376270425440453,11.536671262774689-4.774468091271046,13.128160626529279-.066366277628731.331831388193677.265465110551304.663012126602553.530930221110793.663012126602553,2.519315951120007-.066366277638735,7.425215298110743-.132732555277471,9.54763488296976-.132732555277471.066366277640554,0,.331831388190039-.264814460768321.265465110549485-.596645848960179Z"/>
  <path class="cls-1" d="M86.511793576382843.862110959511483c1.458756808478938,0,8.697788843210219.264814460774687,12.078565104077825.264814460774687.331831388190039,0,1.259657975561822.663012126599824,1.458756808470753.862110959515121.994192865020523,1.193291697926725,2.851147339330055,3.249345005147916,5.569562123372634,6.43167308287866,3.249345005148825,3.978072759608949,16.245423726187255,17.438064774328268,19.758932542318689,21.151323073166168.331831388199134.331831388190039.597296498751348-.264814460773778.597296498751348-.397547016047611.33183138818913-1.923320751946449.132702850168243-9.415552977476182.132702850168243-15.051481378479366,0-2.188135212717498-.199069127808798-5.304747662588852-.398167960720457-7.028318931841568-.132732555280199-1.392390530840203-.795094032098859-2.85114733932005-4.110805314889149-3.71325829883699-1.326024253201467-.331180738409785-2.188785862501391-.72937840423856-2.188785862501391-1.525123086116764,0-.463913293684527.796395331661188-.795744681876386,1.923320751950087-.795744681876386,1.657855641391507,0,3.182978727510999.066366277638735,4.575369258352112.066366277638735,3.116612449867716,0,5.835027233918481-.331180738411604,7.559249152948723-.331180738411604,1.126925420278894,0,1.590188064192262.39754701604943,1.590188064192262.86211095951694,0,.397547016046701-.463262643913367.994192865010518-1.656554341830997,1.326024253201467-3.448443838060484,1.126925420287989-3.780275226250524,2.320217118213804-4.112106614451477,4.972916274400632-.19779753335024,2.38658339585254-.662361476819569,19.162286693362148-.662361476819569,24.798215094361694,0,2.784781061684043.398197665828775,8.619157645818632.398197665828775,10.343379564848874,0,.596645848963817-.730029054018814,1.25965797556637-1.061860442208854,1.25965797556637-1.392390530838384,0-2.982578595030645-1.723571269252716-3.579875093778355-2.519315951129101-1.259657975561822-1.657855641395145-2.519315951122735-3.182978727512818-4.309904147802627-5.371113940233045-6.233224899739071-7.624964780803566-17.040517758278838-19.095920415721594-22.94191126982787-25.9915067922866-.331831388191858-.39754701604943-.728727754461033.132732555275652-.728727754461033.265465110553123-.13273255527929,1.789937546888723-.265465110549485,3.381426910644223-.331831388190039,8.619808295597068-.066366277640554,9.216454144562704-.199098832918935,14.255086046822726.13273255527929,17.504431051968822.265465110550394,2.121768935081491.994192865012337,3.24869435537039,4.177171592520608,4.243537870159344,1.392390530839293.397547016047611,1.856954474309532.862110959515121,1.856954474309532,1.25965797556637,0,.72937840423765-.929127886940478.994843514788954-2.188785862510485.994843514788954-1.922019452378663,0-3.447142538498156-.265465110551304-5.768660956268832-.265465110551304-1.458756808479848,0-5.171364457540221.199098832916206-6.29828987783003.199098832916206-.929127886931383,0-1.724221919029333-.331831388190039-1.724221919029333-.862110959518759,0-.663012126602553.79509403209795-.994843514788954,1.458756808479848-1.193291697923996,3.050246172239895-.928477237153857,4.641735535999942-1.458756808482576,4.839533069348363-6.43167308287957.331831388190039-7.426516597670343,1.194592997489963-20.157130208153831,1.194592997489963-24.930947649638256,0-2.652048506406572-.199098832919844-3.447793188282958-.398197665827865-3.713258298836081-1.193291697932182-1.458756808478938-3.657855641401511-2.386583395853449-7.104998179901486-3.182328077730745-.730029054018814-.132732555275652-1.724221919030242-.663012126599824-1.724221919030242-1.127576070069154,0-.530279571324172.795094032088855-.994192865012337,1.988385730021037-.994192865012337Z"/>
  <path class="cls-1" d="M141.089501060581824.928477237152038c1.591489363760047,0,4.973566924179977.198448183134133,7.028318931838839.198448183134133,1.989687029583365,0,5.569562123370815-.198448183134133,7.161051487121767-.198448183134133,1.326024253210562,0,2.122419584859017.397547016047611,2.122419584859017.927826587371783,0,.663012126603462-1.126925420288899.994843514793502-1.790588196668978,1.193942347706979-2.51934633790006.663012126600734-3.116612449870445,1.060559142650163-3.24934500514064,4.044439037246775-.197797533359335,2.519315951129101-.132732555289294,10.807943508314565-.06636627764874,13.659090847637344,0,.331180738408875.13273255527838.463913293686346.46456394346842.463913293686346.331801001420899,0,1.060559142651073-.530279571325082,1.126925420290718-.596645848963817,2.255152140140126-1.657855641392416,10.675861602820078-10.078565104078734,13.857539030770567-13.990271586047129,1.525123086112217-1.724221919031152,1.591489363749133-2.85114733932005-1.193291697920358-3.514159465921693-.795094032108864-.199098832913478-1.591489363760047-.530930221102608-1.591489363760047-1.061209792430418,0-.530279571323263.53093022109897-.928477237152038,1.657855641388778-.928477237152038h2.784781061681315c4.243537870170258,0,8.686174573240351-.39754701604943,10.543129047540788-.39754701604943,1.259657975570008,0,1.856954474318627.331180738410694,1.856954474318627.862110959516031,0,.530279571324172-.929127886938659,1.060559142649254-2.387884695419416,1.326024253202377-3.845340204330569.729378404239469-6.165557322538916,2.718414784045308-9.083070939499521,5.039282552038458-2.52061725069143,1.98903637980402-7.691981708230742,6.895586376565916-10.543129047550792,10.077914454294842-.19909883290984.199098832915297-.19909883290984.464563943469329-.066366277629641.663012126604372,1.525123086109488,2.32086776799224,12.531514777560005,15.051481378473909,16.708686370079704,19.427751803910724,2.122419584859927,2.188135212720226,2.382077560429934,2.718414784045308,5.299591177390539,3.315060633009125.728727754460124.199098832912568,1.392390530840203.862110959515121,1.392390530840203,1.127576070070063,0,.663012126598915-1.193291697929453,1.060559142646525-1.923320751950087,1.060559142646525-1.789286897099373,0-8.414902327691379-.530279571325082-10.271856802000912-.530279571325082-2.386583395848902,0-3.978072759598945.132732555277471-5.436829568090616.132732555277471-1.126925420288899,0-1.525123086108579-.530279571325082-1.525123086108579-1.061209792431328,0-.397547016051249.530930221110793-.72937840423765,3.116612449868626-1.525123086117674.265465110551304-.132081905496307.132732555269286-.72937840423765,0-.927826587372692-2.056053307218463-2.851147339319141-8.818907128507817-11.338223079641466-11.869153300738617-14.587568084789382-1.722920619479737-1.98903637980402-2.054752007669777-2.452949673490366-2.45294967350128-2.452949673490366-.39819766581968,0-.46456394346842.331180738408875-.46456394346842,1.525123086119493-.066366277640554,5.171364457530217.199098832918935,11.404589357274745.26546511055858,13.791172753130013,0,1.193942347708798.530899834330739,2.188135212716588,3.382077560420839,2.917513616957876,1.193291697929453.331831388190039,1.856954474309532.795744681876386,1.856954474309532,1.326024253201467,0,.596645848960179-1.061860442210673.994843514792592-2.122419584859017.994843514792592-1.458756808480757,0-6.166858622111249-.132732555277471-8.221610629771021-.132732555277471-2.056053307220282,0-5.370463290450061.265465110551304-7.492882875309078.265465110551304-.927826587370873,0-1.790588196669887-.530930221106246-1.790588196669887-.994843514788954,0-.596645848967455.530930221108974-.928477237153857,1.923320751949177-1.25965797556637,3.315711282778466-.663012126602553,3.978072759600764-1.724221919030242,4.243537870150249-5.635928400999546.132732555291113-2.784781061684043.132732555291113-7.890429891358508.132732555291113-14.98511510084063,0-10.542478397762352-.132732555291113-10.343379564847965-.199098832920754-12.73061361047894-.132732555281109-3.116612449874083-.728727754458305-3.845990854114461-3.249345005150644-4.575369258353021-1.722920619470642-.463913293689075-1.922019452378663-.994192865011428-1.922019452378663-1.326024253204196,0-.596645848961998.994192865008699-.927826587371783,1.988385730018308-.927826587371783Z"/>
  <path class="cls-1" d="M212.039557691252412,1.12692542028617c2.187484562939062,0,4.907200646539422-.264814460774687,5.835027233919391-.39754701604943.265465110552213-.066366277636916.728727754451029.39754701604943.795094032088855.862110959516031.066366277642373,1.193291697924906.066366277642373,5.768660956277017.066366277642373,7.094685209479394,0,.927826587374511-.463262643911548,1.856303824526549-1.060559142651073,1.856303824526549s-1.126925420289808-.994843514790773-1.259657975559094-1.724221919028423c-.861492249201547-3.646241371418-2.718414784049855-4.641084886210592-4.243537870159344-4.906549996763715-1.259657975570917-.264814460771959-4.110805314890968-.463913293687256-9.217104794352053-.397547016047611-.264163810988975,0-.795094032087945.265465110551304-.8614603097285,1.856303824526549-.132732555281109,1.657855641393326-.331831388190039,10.87430978595421-.265465110561308,14.454835529515549,0,.265465110551304.265465110561308.72937840423765.663662776390083.72937840423765h5.304097012810416c4.708101813621397,0,4.575369258350293-.331831388190039,5.835027233909386-3.182978727511909.398197665841508-.99419286500779.861460309741233-1.723571269249078,1.458756808480757-1.723571269249078.529628921550284,0,.728727754460124,1.060559142647435.662361476819569,1.856303824526549-.132732555269286,1.856954474307713-.264163810988975,3.050246172234438-.264163810988975,4.575369258353021,0,1.723571269252716.13143125571969,2.851147339318231.264163810988975,4.508352330932212.066366277640554,1.193942347708798-.330530088620435,1.989687029585184-.861460309730319,1.989687029585184-.530930221108974,0-1.060559142650163-.795744681876386-1.259657975570008-1.458756808478938-.862761609289009-2.917513616956057-1.724221919019328-3.448443838064122-4.309904147788984-3.646892021199164-2.122419584860836-.132732555276561-4.575369258360297-.132732555276561-6.630121266020069-.132732555276561-.265465110549485,0-.862761609300833.663012126601643-.862761609300833.795744681879114-.265496696550144,1.856303824526549-.19909883290984,6.961952654204651-.132732555269286,9.216454144559975.066366277640554,1.591489363756409,0,4.044439037243137.265465110549485,5.43682956808334.199098832921663.596645848967455.796395331661188,1.458756808482576,1.458756808481667,1.591489363758228,1.060559142649254.199098832918025,3.116612449868626.39754701604943,5.370463290450061.39754701604943,1.989687029578818,0,4.442636703069184,0,6.100492344467966-.596645848963817,1.989687029582456-.729378404241288,3.778973926689105-2.320867767994059,5.237730735170771-4.906549996761896.929127886940478-1.723571269249078,1.525123086119493-2.320867767994059,2.056053307221191-2.320867767994059.662361476827755,0,.595995199179015,1.392390530840203.529628921548465,1.923320751946449,0,.530279571326901-1.922019452389577,6.630121266010974-2.519315951129101,7.69133105844594-.199098832919844.463913293682708-1.259657975560913.862110959511483-1.591489363760047.862110959511483-.728727754451029,0-17.106884035920302-.331831388190039-22.079149660540679-.331831388190039-4.376270425428629,0-5.171364457529307.331831388190039-7.559249152939628.331831388190039-1.259657975570008,0-2.253850840579616-.199098832912568-2.253850840579616-.862110959511483,0-.596645848967455.861460309730319-1.061209792434965,1.989687029588822-1.326024253205105,3.380776260861239-.795744681880024,4.243537870161163-1.458756808482576,4.507701681150138-5.03928255203391.199098832911659-2.784781061685862.530930221101698-7.890429891363965.530930221101698-16.046324893273777,0-7.823412963940427.066366277637826-10.873659136172137-.06636627763055-12.796329238340149-.132732555281109-2.387234045630976-1.663662776380079-3.713258298835171-4.514810115710134-4.243537870161163-1.392390530839293-.265465110551304-2.121118285290322-.530930221102608-2.121118285290322-1.193942347706979,0-.596645848961998,1.126925420280713-.994192865009609,2.056053307219372-.994192865009609,3.115311150309935,0,9.552140718388728.198448183134133,13.000584556461035.198448183134133h9.945832548799444Z"/>
  <path class="cls-1" d="M253.997456879850688,20.024397652873631c-.265465110547666.198448183135042-1.657855641398783.927826587372692-2.585682228767837,1.392390530840203-.331831388190039.132081905496307-.265465110562218.663012126603462-.132732555270195.927826587374511,1.259657975559094,2.652699156185918,3.69648754364971,11.802787023107157,7.012198826429085,15.648127227441364,1.789286897110287,2.121768935081491,2.712607649060374,2.917513616957876,4.702294678649196,3.315711282786651.662361476821388.132081905496307,1.193291697920358.663012126598915,1.193291697920358.927826587372692,0,.398197665828775-.597296498737705.862110959515121-1.060559142650163.994843514792592-1.061860442208854.397547016047611-3.581176393337955.530279571325082-4.442636703079188.530279571325082-6.034126066828321,0-7.619808295588882-2.387234045632795-9.012198826429085-4.309904147801717-1.856954474311351-2.519315951125463-2.237730735170771-7.956796168993606-5.022511796862091-12.730613610481669-.597296498737705-.994192865011428-1.591489363749133-2.452949673486728-2.122419584859017-2.784781061680405-.464563943471148-.397547016047611-1.923320751939173-.862110959515121-3.18297872750918-.862110959515121-.265465110551304,0-.662361476821388.331831388190039-.728727754460124.663012126598915-.132732555270195,1.260308625347534,0,10.078565104078734.199098832919844,13.195177553952817.19909883290893,2.851147339315503.662361476821388,3.514159465918056,3.71260764904946,4.309904147798079,1.126925420288899.331180738412513,1.591489363760047.795744681876386,1.591489363760047,1.25965797556637,0,.72937840423765-1.259657975570008.994192865011428-2.056053307231196.994192865011428-2.320217118209257,0-5.237730735167133-.397547016051249-8.487075740318687-.397547016051249-2.320217118209257,0-5.635928400999546.265465110551304-6.36465615545967.265465110551304-1.657855641391507,0-2.122419584859017-.46456394346751-2.122419584859017-1.06120979242769,0-.397547016047611.730029054018814-.795744681880024,1.591489363760047-1.060559142650163,3.050246172228071-.928477237153857,3.845340204330569-1.72422191903388,3.978072759600764-3.845990854115371.398197665828775-5.105648829674465.398197665828775-10.675210953038913.398197665828775-16.31113935403846,0-7.094685209481213-.132732555270195-12.730613610480759-.331831388190039-14.520551157372211-.132732555270195-1.591489363752771-.728727754460124-2.586332878546273-3.845340204330569-3.315711282785742-.927826587369054-.264814460772868-1.657855641391507-.72937840423856-1.657855641391507-1.259657975564551,0-.463913293686346.795094032102497-.928477237153857,1.923320751942811-.928477237153857h4.839533069349272c2.454250973049056,0,7.957446818771132-.331180738410694,11.537321912550397-.331180738410694,3.050246172238985,0,8.354343185048492.265465110552213,11.537321912557672,2.917513616957876,2.056053307220282,1.657204991612161,3.581176393341593,4.84018371912498,3.581176393341593,7.890429891359418,0,3.58052574355861-1.724221919030242,6.166207972324628-4.641735535991756,8.487075740319597ZM247.565133147193592,5.304097012806778c-1.523821786551707-1.590838713975245-3.579875093782903-2.320217118213804-5.37046329045188-2.320217118213804-.265465110547666,0-1.988385730019218.198448183135042-2.519315951129101.463913293686346-.331831388190039.199098832915297-.72872775444921,1.061209792430418-.795094032091583,1.392390530841112-.199098832919844,2.254501490357143-.46456394346751,13.857539030772386-.199098832919844,15.58176094980081.066366277642373.398197665828775.529628921551193.795744681880024.861460309741233.795744681880024,3.382077560421749,0,6.432323732660734-.994843514792592,7.161051487120858-1.458756808478938,1.790588196668978-1.326024253201467,3.71260764904946-3.7132582988379,3.71260764904946-7.425865947892817,0-1.724221919032061-.595995199179015-4.708101813627763-2.851147339319141-7.028969581622732Z"/>
  <path class="cls-1" d="M289.76787150551263,1.060559142647435c.264163810988975.132732555276561.795094032098859,1.061209792429509.861460309741233,1.392390530840203,0,.862110959516031.663662776380079,5.967759789192314.663662776380079,6.233224899744528,0,.994192865012337-.199098832912568,1.590838713976154-.597296498741343,1.590838713976154-.530930221109884,0-1.591489363760047-.530279571325991-1.923320751950087-1.524472436336509-.662361476821388-2.188135212720226-2.054752007661591-4.04508968702703-2.851147339319141-4.708101813629582-1.590188064190443-1.326024253203286-3.248043705589225-1.856303824525639-5.304097012809507-1.856303824525639-3.116612449870445,0-6.762853821292083,2.585682228766018-6.762853821292083,6.895586376565007,0,3.912357131748649,2.917513616961514,6.03412606683105,8.8852734061511,9.813099993524702,8.155244352128648,4.972916274401541,11.746733715877781,9.216454144560885,11.746733715877781,13.260893181804022,0,3.448443838064122-1.989687029577908,7.4265165976758-5.835027233908477,9.747384365669859-2.255152140140126,1.392390530840203-6.100492344470695,2.38658339585163-9.283471071979875,2.38658339585163-3.911706481969304,0-6.829220098930818-.663012126602553-9.54763488296885-1.723571269249078-.529628921540279-.265465110554942-1.724221919030242-1.657855641395145-1.724221919030242-1.98903637980402-.529628921551193-2.254501490358962-1.126925420292537-5.105648829678103-1.126925420292537-7.028318931843387,0-.464563943471148.730029054022452-1.393041180625005,1.060559142650163-1.393041180625005.530930221109884,0,1.591489363752771,1.591489363756409,2.586983528330165,3.646892021199164,1.988385730022856,4.045089687027939,5.835027233912115,6.100492344470695,9.215803494782449,6.100492344470695,3.050246172228071,0,6.895586376569554-2.387234045636433,6.895586376569554-6.630771915795776,0-2.784781061684043-3.392390530851117-5.43682956808334-9.491581575759483-9.415552977476182-6.764155120850774-4.441986053294386-10.410396492261498-8.088878074489912-10.410396492261498-13.9902715860444,0-3.778973926693652,1.923320751950087-6.961952654204651,4.044439037239499-8.686174573235803,2.187484562939062-1.856303824528368,5.304097012820421-3.182328077728016,10.543129047549883-3.182328077728016,3.048944872669381,0,6.563754988372239.795744681874567,8.354343185041216,1.060559142647435Z"/>
  <path class="cls-1" d="M346.432571208181798,19.228652970995427c-.19909883290893.066366277638735-.132732555281109.663012126600734.066366277642373.663012126600734,4.574067958787055,1.922670102169832,7.956145519208803,5.172015107316838,7.956145519208803,10.940025413816329,0,4.376270425436815-2.452949673490366,7.492882875307259-5.635928400999546,9.614651810385112-3.182978727512818,2.254501490358962-9.215803494782449,2.917513616957876-11.869153300740436,2.917513616957876-1.855653174749023,0-9.149437217150989-.132732555273833-12.133317111751239-.199098832912568-2.386583395840717-.066366277638735-3.978072759600764.066366277638735-5.038631902250927.066366277638735-1.194592997489963,0-2.122419584859017-.46456394346751-2.122419584859017-1.061209792431328,0-.596645848960179,1.126925420288899-.994192865009609,1.856954474311351-1.126925420288899,4.044439037239499-.795744681876386,4.309904147798079-1.790588196668978,4.574067958779779-4.044439037246775.132732555281109-1.392390530840203.597296498748619-8.023162446632341.597296498748619-21.151323073164349,0-5.636579050780711-.265465110547666-9.018005961425843-.46456394346751-9.945832548800354-.330530088631349-1.458756808477119-.728727754460124-1.989687029583365-4.177171592520608-2.652699156184099-.861460309730319-.132081905497216-1.657855641391507-.530279571326901-1.657855641391507-1.259657975564551,0-.530279571325082.929127886931383-.862110959515121,1.790588196668978-.862110959515121h4.376270425433177c2.122419584859017,0,10.211297659359843-.463913293686346,12.929712443397875-.463913293686346,3.845340204330569,0,7.559249152949633.729378404239469,9.54763488296885,1.989036379802201,3.249345005151554,1.989036379804929,4.641735535991756,4.906549996761896,4.641735535991756,8.155895001911631,0,5.039282552036639-3.448443838060484,7.226767114974791-5.237730735170771,8.420709462681771ZM335.424878217171681,3.0502461722308c-.396896366270084,0-1.590188064197719.198448183135042-2.320217118220171.39754701604852-.132732555270195.066366277639645-.53093022109897.663012126601643-.595995199179015,1.061209792430418-.132732555281109,1.060559142651073-.265465110551304,2.983229244817267-.265465110551304,14.123004141322781,0,.264814460773778.330530088631349.795094032099769.728727754460124.795094032099769,2.38658339585163,0,6.166858622102154-.331180738411604,7.758347985862201-1.524472436340147,2.054752007657953-1.458756808477119,3.18167742795049-3.713258298833352,3.18167742795049-6.298940527601189,0-5.503846495505968-3.712607649053098-8.553442017960151-8.487075740322325-8.553442017960151ZM340.796642807182252,22.809178714554037c-1.525123086121312-.862110959515121-3.448443838060484-1.260308625343896-5.702294678638282-1.260308625343896-.929127886942297,0-2.056053307231196.265465110555851-2.255152140140126.46456394346751-.199098832912568.199098832912568-.529628921540279.530279571325082-.529628921540279,3.115961800092919-.066366277642373,1.72422191903388.132732555270195,9.681018088027486.264163810988975,11.670054467831505.066366277638735.530279571325082.398197665828775,1.591489363752771.862761609289009,2.121768935081491,1.126925420292537,1.193291697927634,2.98387989460025,2.254501490357143,4.177171592531522,2.254501490357143,4.243537870159344,0,8.088878074489912-4.243537870161163,8.088878074489912-9.813099993525611,0-3.845990854111733-1.988385730019218-7.028318931843387-4.905899346980732-8.553442017961061Z"/>
  <path class="cls-1" d="M404.63030319657355,21.483154461352569c0,8.685523923453729-3.71260764904946,14.321452324456914-8.354343185041216,18.034710623291176-3.778973926699109,2.917513616957876-9.414902327698655,4.773817441488063-14.519900507588318,4.773817441488063-6.895586376573192,0-13.062444998682622-2.652048506406572-17.23961659120323-7.094685209478484-3.581176393337955-3.845340204334207-5.635928401006822-9.083721589286142-5.635928401006822-15.183563283975673,0-8.089528724274714,3.513508816147805-13.260893181805841,8.487075740329601-17.239616591195045,2.98387989460025-2.320867767994969,8.553442017957423-4.773817441482606,14.123004141318233-4.773817441482606,14.652633062869427,0,23.139708803191752,10.874309785950572,23.139708803191752,21.483154461352569ZM372.406222154321767,5.702294678637372c-2.253850840577797,2.188135212718407-4.640434236429428,6.961952654204651-4.640434236429428,14.852382545561341,0,10.210647009571403,6.231923600189475,21.284055628442729,15.912291038428521,21.284055628442729,3.647542670980329,0,5.967759789193224-1.856954474307713,6.762853821292083-2.718414784045308,2.786082361239096-2.784781061680405,5.106299479459267-8.487075740322325,5.106299479459267-15.58176094980081,0-5.238381384951026-2.056053307220282-13.195177553949179-6.895586376569554-17.637163607245384-2.255152140129212-2.055402657440936-5.835027233919391-3.580525743556791-8.752540850869991-3.580525743556791-2.98387989460025,0-5.967759789189586,1.856303824526549-7.492882875310897,3.381426910644223Z"/>
  <path class="cls-1" d="M405.130680234583451.795744681874567c1.326024253197829,0,7.227417764759593.331180738411604,9.614001160607586.331180738411604,2.652048506402934,0,3.780275226261438-.198448183134133,5.835027233912115-.198448183134133,1.259657975570008,0,1.923320751950087.331180738409785,1.923320751950087.795094032096131,0,.663662776381898-.663662776380079,1.127576070069154-1.989687029581546,1.657855641392416-.994192865018704.265465110554032-1.326024253208743.994843514794411-.861460309737595,1.989036379804929,1.326024253197829,2.719065433824653,4.839533069338358,8.420709462684499,6.895586376569554,11.404589357279292.265465110547666.331831388191858.595995199179015.199098832916206.662361476810474.066366277638735,1.989687029588822-2.254501490356233,6.697788843219314-8.686174573235803,8.090179374059517-11.072757969086524.66236147681775-1.326024253204196-.331831388190039-2.1217689350824-2.387884695421235-2.586332878549001-1.259657975559094-.264814460772868-1.722920619460638-.994192865011428-1.722920619460638-1.326024253204196,0-.530279571324172.529628921540279-.927826587371783,1.789286897099373-.927826587371783,2.056053307231196,0,4.045740336812742.198448183134133,5.901393511561764.198448183134133,1.657855641387869,0,5.635928400999546-.264814460774687,7.227417764759593-.264814460774687.861460309730319,0,1.657855641391507.198448183135952,1.657855641391507.729378404241288,0,.530279571324172-.927826587379968,1.193291697924906-1.657855641391507,1.326024253202377-3.911706481969304.928477237153857-6.16685862210943,2.055402657443665-8.686174573238532,4.906549996762806-2.65204850641021,3.182328077729835-5.835027233923029,6.696487543651529-8.818907128523279,10.807943508314565-.065064978069131.132081905498126-.197797533346602.663012126601643-.065064978069131.994192865013247.529628921551193,1.458756808478029,6.961952654201014,11.470955634918027,9.481268605330115,15.117847656113554,2.452949673490366,3.447793188282958,4.044439037250413,5.37046329045188,8.885273406162014,6.564405638157041,1.193291697920358.264814460773778,1.590188064190443.927826587372692,1.523821786548069,1.25965797556637,0,.663012126598915-.728727754460124.994192865011428-2.187484562939062.994192865011428-1.657855641391507,0-8.35434318505213-.463913293689984-11.53732191256131-.463913293689984-1.923320751939173,0-4.773166791699623.331831388190039-5.702294678627368.331831388190039-1.193291697931272,0-1.657855641402421-.464563943463872-1.657855641402421-.862110959511483,0-.53027957132872.464563943471148-.928477237157495,1.591489363749133-1.326024253205105.929127886942297-.331831388190039,1.458756808489852-.46456394346751,1.98968702959246-.795744681880024.26546511055858-.132732555273833.46326264390882-.72937840423765.26546511055858-1.06120979242769-1.128226719847589-2.188135212716588-7.293784042398329-12.465148499930365-8.090179374059517-13.194526904166196-.264163810988975-.331831388195496-.529628921540279-.265465110556761-.662361476821388-.13273255527929-1.923320751939173,2.254501490355324-5.106299479448353,6.498039360518305-6.565056287938205,8.818907128512365-2.652048506399296,4.309904147801717-1.722920619471552,5.370463290448242.796395331661188,6.232574249963363,1.126925420288899.331180738412513,1.657855641398783.795744681880024,1.657855641398783,1.193291697927634,0,.663012126602553-.796395331661188,1.06120979242769-1.657855641398783,1.06120979242769-1.790588196672616,0-2.575369258353021-.265465110551304-4.829220098930818-.265465110551304-2.718414784030756,0-5.106299479451991.397547016051249-6.631422565569665.397547016051249-1.590188064190443,0-2.121118285300327-.397547016051249-2.121118285300327-.861460309737595,0-.795744681876386.795094032098859-1.193942347705161,2.386583395858906-1.525123086117674,3.24934500514064-.729378404239469,3.967759789178672-2.851147339319141,5.559249152938719-4.641735535991756,1.988385730030132-2.188135212716588,6.497388710740779-7.624964780803566,9.945832548801263-12.332415944649256.331831388190039-.398197665832413.199098832919844-.729378404241288.132732555281109-.928477237153857-.398197665832413-1.392390530839293-6.16685862210943-10.807943508316384-10.344030214630038-16.510238186955576-1.657855641402421-2.253850840576888-3.18297872750918-3.049595522455093-5.70229467864192-3.579875093781084-1.259657975570008-.265465110551304-1.988385730019218-.862110959515121-1.923320751950087-1.326674902982631,0-.463913293686346.530930221109884-.994192865011428,1.98968702959246-.994192865011428Z"/>
  <path class="cls-1" d="M103.988671353164136,74.711583196988613v-.8564453125h.43310546875c.4140625,0,.77490234375-.078125,1.08251953125-.234375s.46142578125-.533203125.46142578125-1.130859375v-11.3154296875h-1.8076171875c-.552734375,0-.93505859375.1669921875-1.1484375.5-.2138671875.3330078125-.34521484375.7236328125-.3955078125,1.171875l-.09423828125.876953125h-.97900390625l.09423828125-3.5673828125h10.60009765625l.09423828125,3.5673828125h-.97900390625l-.09423828125-.876953125c-.05029296875-.4482421875-.18212890625-.8388671875-.3955078125-1.171875s-.6025390625-.5-1.16748046875-.5h-1.826171875v11.212890625c0,.638671875.15087890625,1.04296875.4521484375,1.212890625s.6650390625.2548828125,1.091796875.2548828125h.43310546875v.8564453125h-5.85546875Z"/>
  <path class="cls-1" d="M113.421288540664136,74.711583196988613v-.8564453125h.2451171875c.42626953125,0,.79052734375-.0849609375,1.091796875-.2548828125s.45166015625-.57421875.45166015625-1.212890625v-9.9892578125c0-.59765625-.15380859375-.978515625-.4609375-1.1416015625-.3076171875-.1630859375-.66845703125-.2451171875-1.08251953125-.2451171875h-.2451171875v-.85546875h5.47900390625v.85546875h-.24462890625c-.4267578125,0-.791015625.0849609375-1.09228515625.2548828125s-.45166015625.57421875-.45166015625,1.212890625v4.1181640625h6.119140625v-4.1181640625c0-.638671875-.15087890625-1.04296875-.4521484375-1.212890625s-.6650390625-.2548828125-1.091796875-.2548828125h-.24462890625v-.85546875h5.478515625v.85546875h-.24462890625c-.4267578125,0-.79052734375.0849609375-1.091796875.2548828125s-.4521484375.57421875-.4521484375,1.212890625v10.0107421875c0,.59765625.15380859375.974609375.46142578125,1.130859375s.66845703125.234375,1.08251953125.234375h.24462890625v.8564453125h-5.478515625v-.8564453125h.24462890625c.4267578125,0,.79052734375-.0849609375,1.091796875-.2548828125s.4521484375-.57421875.4521484375-1.212890625v-4.7705078125h-6.119140625v4.7705078125c0,.638671875.150390625,1.04296875.45166015625,1.212890625s.66552734375.2548828125,1.09228515625.2548828125h.24462890625v.8564453125h-5.47900390625Z"/>
  <path class="cls-1" d="M128.351464321914136,74.711583196988613v-.8564453125h.2451171875c.4140625,0,.77490234375-.078125,1.08251953125-.234375.30712890625-.15625.4609375-.533203125.4609375-1.130859375v-10.0107421875c0-.638671875-.150390625-1.04296875-.45166015625-1.212890625s-.66552734375-.2548828125-1.091796875-.2548828125h-.2451171875v-.85546875h9.4892578125l.09423828125,3.5673828125h-.97900390625l-.09423828125-.876953125c-.05029296875-.4482421875-.19775390625-.8388671875-.4423828125-1.171875s-.6494140625-.5-1.21435546875-.5h-3.1630859375v5.4228515625h4.53759765625v.9990234375h-4.53759765625v6.095703125h3.6337890625c.58984375,0,1.01953125-.166015625,1.28955078125-.4990234375s.43603515625-.7236328125.4990234375-1.1728515625l.1318359375-.8759765625h.97900390625l-.1318359375,3.5673828125h-10.091796875Z"/>
  <path class="cls-1" d="M151.246483853164136,74.915684759488613c-1.33056640625,0-2.435546875-.3125-3.31396484375-.9384765625-.87890625-.625-1.5341796875-1.5009765625-1.96728515625-2.6298828125-.43310546875-1.1279296875-.64990234375-2.4462890625-.64990234375-3.9541015625,0-1.5087890625.216796875-2.8203125.64990234375-3.935546875.43310546875-1.1142578125,1.091796875-1.98046875,1.9765625-2.5986328125.88525390625-.6181640625,1.99267578125-.927734375,3.3232421875-.927734375,1.2548828125,0,2.322265625.3095703125,3.20068359375.927734375s1.546875,1.48828125,2.00537109375,2.609375c.4580078125,1.12109375.68701171875,2.4365234375.68701171875,3.9443359375,0,1.5087890625-.22900390625,2.82421875-.68701171875,3.9453125-.45849609375,1.12109375-1.126953125,1.994140625-2.00537109375,2.619140625-.87841796875.6259765625-1.95166015625.9384765625-3.21923828125.9384765625ZM151.246483853164136,73.814122259488613c1.4052734375,0,2.39404296875-.5634765625,2.96533203125-1.69140625.57080078125-1.1279296875.8564453125-2.6982421875.8564453125-4.7099609375,0-2.0107421875-.28564453125-3.5771484375-.8564453125-4.69921875-.5712890625-1.12109375-1.55322265625-1.681640625-2.94677734375-1.681640625-1.40576171875,0-2.400390625.560546875-2.984375,1.681640625-.58349609375,1.1220703125-.87548828125,2.6884765625-.87548828125,4.69921875,0,2.01171875.2919921875,3.58203125.87548828125,4.7099609375.583984375,1.1279296875,1.572265625,1.69140625,2.9658203125,1.69140625Z"/>
  <path class="cls-1" d="M158.946679165664136,74.711583196988613v-.8564453125h.2451171875c.4140625,0,.77490234375-.078125,1.08251953125-.234375.30712890625-.15625.4609375-.533203125.4609375-1.130859375v-10.091796875c0-.59765625-.15380859375-.978515625-.4609375-1.1416015625-.3076171875-.1630859375-.66845703125-.2451171875-1.08251953125-.2451171875h-.2451171875v-.85546875h5.06494140625c3.2255859375,0,4.8388671875,1.3115234375,4.8388671875,3.9345703125,0,.7197265625-.138671875,1.328125-.41455078125,1.82421875s-.62744140625.8935546875-1.05419921875,1.1923828125c-.4267578125.2998046875-.85986328125.5302734375-1.29931640625.693359375l2.57958984375,4.423828125c.326171875.5439453125.64013671875.951171875.94140625,1.2236328125.30126953125.271484375.646484375.4072265625,1.03564453125.4072265625h.05615234375v.8564453125h-.26318359375c-.77880859375,0-1.38427734375-.0439453125-1.81689453125-.1328125-.43310546875-.087890625-.78466796875-.2646484375-1.0546875-.529296875-.27001953125-.265625-.54296875-.65625-.81884765625-1.1728515625l-2.5419921875-4.5869140625h-1.5625v4.2001953125c0,.59765625.1533203125.974609375.46142578125,1.130859375.30712890625.15625.66845703125.234375,1.08251953125.234375h.24462890625v.8564453125h-5.47900390625ZM162.637108853164136,67.331700384488613h1.31787109375c1.1044921875,0,1.86083984375-.2646484375,2.26904296875-.794921875.40771484375-.5302734375.61181640625-1.3251953125.61181640625-2.3857421875,0-1.0869140625-.2197265625-1.861328125-.6591796875-2.32421875-.439453125-.4619140625-1.1923828125-.6923828125-2.25927734375-.6923828125h-1.2802734375v6.197265625Z"/>
  <path class="cls-1" d="M171.297265103164136,74.711583196988613v-.8564453125h.2451171875c.42626953125,0,.79052734375-.0849609375,1.091796875-.2548828125s.45166015625-.57421875.45166015625-1.212890625v-9.908203125c0-.638671875-.150390625-1.04296875-.45166015625-1.212890625s-.66552734375-.2548828125-1.091796875-.2548828125h-.2451171875v-.85546875h5.47900390625v.85546875h-.24462890625c-.4267578125,0-.791015625.0849609375-1.09228515625.2548828125s-.45166015625.57421875-.45166015625,1.212890625v9.908203125c0,.638671875.150390625,1.04296875.45166015625,1.212890625s.66552734375.2548828125,1.09228515625.2548828125h.24462890625v.8564453125h-5.47900390625Z"/>
  <path class="cls-1" d="M185.041405728164136,74.915684759488613c-1.4560546875,0-2.6640625-.3125-3.6240234375-.9384765625-.96044921875-.625-1.67578125-1.498046875-2.146484375-2.619140625s-.7060546875-2.4365234375-.7060546875-3.9453125c0-1.4677734375.24755859375-2.76171875.74365234375-3.8828125.49560546875-1.1220703125,1.2333984375-1.998046875,2.21240234375-2.6298828125.97900390625-.6328125,2.18994140625-.9482421875,3.6337890625-.9482421875,1.39306640625,0,2.43505859375.2177734375,3.12548828125.65234375.68994140625.4345703125,1.03515625.978515625,1.03515625,1.630859375,0,.4345703125-.16943359375.78125-.50830078125,1.0400390625-.3388671875.2578125-.7529296875.38671875-1.24267578125.38671875,0-.4208984375-.078125-.83203125-.2353515625-1.2333984375-.15673828125-.400390625-.41748046875-.7333984375-.78125-.9990234375-.3642578125-.2646484375-.853515625-.3974609375-1.46826171875-.3974609375-1.59423828125,0-2.73046875.5537109375-3.408203125,1.662109375-.677734375,1.107421875-1.0166015625,2.6806640625-1.0166015625,4.71875,0,2.0390625.35107421875,3.60546875,1.05419921875,4.69921875.703125,1.0947265625,1.9140625,1.6416015625,3.6337890625,1.6416015625.3642578125,0,.7158203125-.0205078125,1.0546875-.0615234375s.64013671875-.1015625.90380859375-.18359375v-3.2822265625c0-.59765625-.154296875-.978515625-.46142578125-1.1416015625-.3076171875-.1630859375-.66845703125-.244140625-1.08251953125-.244140625h-.07568359375v-.8564453125h4.8955078125v.8564453125h-.0751953125c-.3642578125,0-.671875.0849609375-.9228515625.2548828125s-.37646484375.57421875-.37646484375,1.212890625v3.6689453125c-.6279296875.3134765625-1.27392578125.5478515625-1.939453125.7041015625-.6650390625.15625-1.40576171875.234375-2.2216796875.234375Z"/>
  <path class="cls-1" d="M191.649804165664136,74.711583196988613v-.8564453125h.2451171875c.42626953125,0,.79052734375-.0849609375,1.091796875-.2548828125s.45166015625-.57421875.45166015625-1.212890625v-9.908203125c0-.638671875-.150390625-1.04296875-.45166015625-1.212890625s-.66552734375-.2548828125-1.091796875-.2548828125h-.2451171875v-.85546875h5.47900390625v.85546875h-.24462890625c-.4267578125,0-.791015625.0849609375-1.09228515625.2548828125s-.45166015625.57421875-.45166015625,1.212890625v9.908203125c0,.638671875.150390625,1.04296875.45166015625,1.212890625s.66552734375.2548828125,1.09228515625.2548828125h.24462890625v.8564453125h-5.47900390625Z"/>
  <path class="cls-1" d="M198.559472134414136,74.711583196988613v-.8564453125h.2451171875c.42626953125,0,.79052734375-.0849609375,1.091796875-.2548828125s.45166015625-.57421875.45166015625-1.212890625v-9.9892578125c0-.59765625-.15380859375-.978515625-.4609375-1.1416015625-.3076171875-.1630859375-.66845703125-.2451171875-1.08251953125-.2451171875h-.2451171875v-.85546875h3.44580078125l6.740234375,11.2734375v-9.03125c0-.59765625-.15380859375-.978515625-.46142578125-1.1416015625s-.66845703125-.2451171875-1.08251953125-.2451171875h-.24462890625v-.85546875h4.7255859375v.85546875h-.24462890625c-.4267578125,0-.79052734375.0849609375-1.091796875.2548828125s-.4521484375.57421875-.4521484375,1.212890625v12.232421875h-1.3369140625l-7.06005859375-11.7431640625v9.4189453125c0,.638671875.150390625,1.04296875.45166015625,1.212890625s.6650390625.2548828125,1.091796875.2548828125h.2451171875v.8564453125h-4.72607421875Z"/>
  <path class="cls-1" d="M212.209862759414136,74.711583196988613v-.8564453125h.35791015625c.36376953125,0,.63671875-.1015625.81884765625-.3056640625.181640625-.2041015625.3857421875-.6318359375.61181640625-1.2841796875l4.1796875-12.109375h1.46875l4.255859375,12.619140625c.1376953125.4208984375.3037109375.70703125.4990234375.8564453125.1943359375.1494140625.4736328125.2236328125.837890625.2236328125h.244140625v.8564453125h-5.177734375v-.8564453125h.4326171875c.75341796875,0,1.13037109375-.326171875,1.13037109375-.978515625,0-.1083984375-.013671875-.2236328125-.0380859375-.3466796875-.025390625-.1220703125-.0634765625-.2578125-.1123046875-.4072265625l-.75390625-2.283203125h-4.95166015625l-.71533203125,2.140625c-.11328125.326171875-.16943359375.6181640625-.16943359375.8759765625,0,.666015625.4140625.9990234375,1.24267578125.9990234375h.43310546875v.8564453125h-4.59423828125ZM216.370995571914136,68.819981634488613h4.2548828125l-1.16748046875-3.5673828125c-.20068359375-.5986328125-.3828125-1.162109375-.5458984375-1.6923828125s-.294921875-1.0400390625-.3955078125-1.529296875c-.087890625.4892578125-.20068359375.9580078125-.3388671875,1.4072265625-.13818359375.4482421875-.3134765625.9921875-.52685546875,1.630859375l-1.2802734375,3.7509765625Z"/>
  <path class="cls-1" d="M226.199608853164136,74.711583196988613v-.8564453125h.244140625c.4267578125,0,.791015625-.0849609375,1.091796875-.2548828125.3017578125-.169921875.4521484375-.57421875.4521484375-1.212890625v-9.908203125c0-.638671875-.150390625-1.04296875-.4521484375-1.212890625-.30078125-.169921875-.6650390625-.2548828125-1.091796875-.2548828125h-.244140625v-.85546875h5.478515625v.85546875h-.2451171875c-.4140625,0-.7744140625.08203125-1.08203125.2451171875s-.4619140625.5439453125-.4619140625,1.1416015625v11.2939453125h3.7099609375c.3759765625,0,.6806640625-.091796875.9130859375-.275390625.2314453125-.18359375.404296875-.4140625.517578125-.6923828125s.1884765625-.5673828125.2255859375-.8671875l.1884765625-1.5283203125h.9794921875l-.1318359375,4.3828125h-10.091796875Z"/>
  <path class="cls-1" d="M247.078515103164136,74.915684759488613c-1.1298828125,0-2.0146484375-.146484375-2.6552734375-.4384765625-.6396484375-.2919921875-1.091796875-.6591796875-1.35546875-1.1005859375s-.3955078125-.8798828125-.3955078125-1.3154296875c0-.4619140625.1005859375-.83203125.3017578125-1.111328125.2001953125-.2783203125.4638671875-.478515625.791015625-.6005859375.326171875-.123046875.6708984375-.18359375,1.03515625-.18359375,0,1.1552734375.2412109375,2.03125.724609375,2.6298828125.4833984375.59765625,1.1015625.896484375,1.8544921875.896484375.728515625,0,1.2998046875-.2099609375,1.7138671875-.6318359375.4140625-.4208984375.62109375-.9443359375.62109375-1.5693359375,0-.693359375-.2607421875-1.2470703125-.78125-1.662109375-.521484375-.4140625-1.30859375-.859375-2.36328125-1.3349609375-.87890625-.39453125-1.5751953125-.8056640625-2.08984375-1.2333984375-.5146484375-.4287109375-.8818359375-.904296875-1.1015625-1.4267578125-.2197265625-.5234375-.3291015625-1.1181640625-.3291015625-1.7841796875,0-.8291015625.2001953125-1.5498046875.6025390625-2.1611328125.4013671875-.611328125.947265625-1.0869140625,1.6376953125-1.4267578125s1.4814453125-.509765625,2.373046875-.509765625c1.3798828125,0,2.3935546875.2275390625,3.0400390625.6826171875.646484375.4560546875.9697265625,1.0166015625.9697265625,1.681640625,0,.4765625-.1943359375.876953125-.583984375,1.203125-.388671875.326171875-.9658203125.4892578125-1.7314453125.4892578125,0-.3798828125-.06640625-.7880859375-.1982421875-1.22265625-.1318359375-.435546875-.341796875-.80859375-.630859375-1.1220703125-.2880859375-.3125-.677734375-.46875-1.1669921875-.46875-.5146484375,0-.9541015625.16015625-1.318359375.4794921875-.36328125.3193359375-.5458984375.78515625-.5458984375,1.396484375,0,.39453125.08203125.7509765625.2451171875,1.0703125s.470703125.638671875.9228515625.9580078125c.451171875.3193359375,1.09765625.662109375,1.939453125,1.029296875,1.2919921875.5712890625,2.21484375,1.1865234375,2.767578125,1.8447265625.5517578125.66015625.828125,1.4853515625.828125,2.4775390625,0,.8837890625-.2099609375,1.658203125-.630859375,2.32421875s-1.013671875,1.189453125-1.779296875,1.5693359375c-.765625.380859375-1.6689453125.5712890625-2.7109375.5712890625Z"/>
  <path class="cls-1" d="M253.668358853164136,74.711583196988613v-1.080078125h.791015625c.275390625,0,.5048828125-.0751953125.6865234375-.224609375s.2734375-.5166015625.2734375-1.1005859375v-9.7451171875c0-.583984375-.091796875-.951171875-.2734375-1.1005859375s-.4111328125-.224609375-.6865234375-.224609375h-.791015625v-1.080078125h6.4951171875v1.080078125h-.7900390625c-.2763671875,0-.505859375.0751953125-.6875.224609375-.1826171875.1494140625-.2734375.5166015625-.2734375,1.1005859375v9.7451171875c0,.583984375.0908203125.951171875.2734375,1.1005859375.181640625.1494140625.4111328125.224609375.6875.224609375h.7900390625v1.080078125h-6.4951171875Z"/>
  <path class="cls-1" d="M261.218163540664136,74.711583196988613v-1.080078125h.791015625c.263671875,0,.4892578125-.0751953125.677734375-.224609375.1875-.1494140625.2822265625-.5166015625.2822265625-1.1005859375v-9.8271484375c0-.54296875-.09765625-.88671875-.2919921875-1.029296875s-.4169921875-.2138671875-.66796875-.2138671875h-.791015625v-1.080078125h4.1796875l6.646484375,10.1728515625v-7.849609375c0-.54296875-.09765625-.88671875-.2919921875-1.029296875-.1953125-.142578125-.41796875-.2138671875-.6689453125-.2138671875h-.7900390625v-1.080078125h4.9140625v1.080078125h-.791015625c-.263671875,0-.4892578125.0751953125-.677734375.224609375s-.2822265625.5166015625-.2822265625,1.1005859375v12.150390625h-1.732421875l-7.3427734375-11.2333984375v8.828125c0,.583984375.09375.951171875.2822265625,1.1005859375s.4140625.224609375.677734375.224609375h.791015625v1.080078125h-4.9140625Z"/>
  <path class="cls-1" d="M283.077538540664136,74.915684759488613c-1.4560546875,0-2.6669921875-.3125-3.6337890625-.9384765625-.966796875-.625-1.6884765625-1.498046875-2.1650390625-2.619140625-.4775390625-1.12109375-.7158203125-2.4365234375-.7158203125-3.9453125,0-1.4677734375.2451171875-2.76171875.734375-3.8828125.490234375-1.1220703125,1.21484375-1.998046875,2.1748046875-2.6298828125.9599609375-.6328125,2.15625-.9482421875,3.5869140625-.9482421875,1.443359375,0,2.51953125.2275390625,3.228515625.6826171875.708984375.4560546875,1.064453125,1.0166015625,1.064453125,1.681640625,0,.5166015625-.201171875.94140625-.6025390625,1.2744140625-.40234375.3330078125-.9853515625.5-1.7509765625.5,0-.44921875-.0634765625-.890625-.1884765625-1.3251953125-.1259765625-.435546875-.341796875-.794921875-.6494140625-1.0810546875-.3076171875-.28515625-.71875-.427734375-1.2333984375-.427734375-1.1923828125,0-2.0244140625.533203125-2.4951171875,1.6005859375-.470703125,1.06640625-.7060546875,2.5859375-.7060546875,4.5556640625,0,1.9716796875.2861328125,3.4423828125.857421875,4.4140625.5703125.9716796875,1.552734375,1.4580078125,2.9462890625,1.4580078125.615234375,0,1.1416015625-.0986328125,1.5810546875-.2958984375s.8125-.44140625,1.12109375-.734375c.306640625-.2919921875.5673828125-.59375.78125-.9072265625.212890625.19140625.3193359375.4833984375.3193359375.876953125,0,.380859375-.1318359375.7783203125-.39453125,1.1923828125-.263671875.4150390625-.7060546875.7685546875-1.328125,1.060546875-.62109375.2919921875-1.46484375.4384765625-2.5322265625.4384765625Z"/>
  <path class="cls-1" d="M288.632226040664136,74.711583196988613v-1.080078125h.791015625c.263671875,0,.4892578125-.068359375.677734375-.2041015625.1875-.1357421875.2822265625-.4755859375.2822265625-1.01953125v-9.8466796875c0-.583984375-.091796875-.951171875-.2734375-1.1005859375s-.4111328125-.224609375-.6865234375-.224609375h-.791015625v-1.080078125h10.44921875l.0751953125,3.7509765625h-1.3173828125l-.0947265625-.9580078125c-.0498046875-.5029296875-.166015625-.8876953125-.34765625-1.15234375-.1826171875-.2646484375-.4677734375-.3974609375-.857421875-.3974609375h-3.1630859375v5.0966796875h4.462890625v1.2236328125h-4.462890625v5.7490234375h3.765625c.376953125,0,.65625-.146484375.837890625-.4384765625s.3046875-.6630859375.3671875-1.111328125l.150390625-.9580078125h1.2998046875l-.1318359375,3.7509765625h-11.033203125Z"/>
  <path class="cls-1" d="M307.120507290664136,74.711583196988613v-1.080078125h1.5439453125c.3134765625,0,.548828125-.091796875.7060546875-.275390625s.2353515625-.533203125.2353515625-1.0498046875v-10.2138671875c-.4775390625.638671875-.9072265625,1.1513671875-1.2900390625,1.5390625s-.76171875.5810546875-1.138671875.5810546875c-.30078125,0-.55859375-.1357421875-.771484375-.408203125-.2138671875-.271484375-.3203125-.638671875-.3203125-1.1005859375.3759765625-.0947265625.796875-.2548828125,1.2607421875-.4794921875.46484375-.2236328125,1.0107421875-.5869140625,1.638671875-1.08984375l1.3173828125-1.060546875h2.109375v12.232421875c0,.4345703125.0625.763671875.1884765625.98828125.125.224609375.3818359375.3369140625.771484375.3369140625h1.525390625v1.080078125h-7.7763671875Z"/>
  <path class="cls-1" d="M320.093163540664136,74.915684759488613c-.7666015625,0-1.3720703125-.1123046875-1.8173828125-.3369140625-.4453125-.2236328125-.7685546875-.509765625-.9697265625-.85546875-.201171875-.3466796875-.30078125-.716796875-.30078125-1.111328125,0-.298828125.0712890625-.55078125.2158203125-.7548828125.14453125-.203125.3798828125-.3388671875.7060546875-.4072265625.17578125.611328125.439453125,1.1279296875.791015625,1.548828125.3515625.421875.8408203125.6328125,1.46875.6328125,1.6318359375,0,2.5166015625-1.970703125,2.654296875-5.912109375-.2880859375.3935546875-.6494140625.7236328125-1.08203125.98828125-.43359375.2646484375-.9638671875.3974609375-1.5908203125.3974609375-1.080078125,0-1.96484375-.359375-2.6552734375-1.080078125s-1.03515625-1.7666015625-1.03515625-3.1396484375c0-.978515625.171875-1.837890625.517578125-2.5791015625.3447265625-.740234375.837890625-1.318359375,1.4775390625-1.732421875.640625-.4150390625,1.412109375-.6220703125,2.31640625-.6220703125.9033203125,0,1.7099609375.2373046875,2.4189453125.712890625.708984375.4765625,1.267578125,1.216796875,1.67578125,2.22265625s.6123046875,2.310546875.6123046875,3.9140625c0,1.1142578125-.1005859375,2.1650390625-.3017578125,3.1494140625-.2001953125.986328125-.517578125,1.8486328125-.9501953125,2.58984375-.43359375.740234375-.9921875,1.3212890625-1.67578125,1.7431640625-.6845703125.4208984375-1.509765625.6318359375-2.4755859375.6318359375ZM320.977929165664136,67.637364446988613c.42578125,0,.7998046875-.125,1.1201171875-.376953125s.5673828125-.5810546875.7431640625-.9892578125c-.0126953125-1.7392578125-.1943359375-3-.5458984375-3.78125s-.8154296875-1.1728515625-1.392578125-1.1728515625c-.5400390625,0-.9580078125.2890625-1.2529296875.8671875-.294921875.5771484375-.4423828125,1.4365234375-.4423828125,2.5791015625,0,1.916015625.58984375,2.8740234375,1.7705078125,2.8740234375Z"/>
  <path class="cls-1" d="M328.169335415664136,74.711583196988613v-1.080078125h1.5439453125c.3134765625,0,.548828125-.091796875.7060546875-.275390625s.2353515625-.533203125.2353515625-1.0498046875v-10.2138671875c-.4775390625.638671875-.9072265625,1.1513671875-1.2900390625,1.5390625s-.76171875.5810546875-1.138671875.5810546875c-.30078125,0-.55859375-.1357421875-.771484375-.408203125-.2138671875-.271484375-.3203125-.638671875-.3203125-1.1005859375.3759765625-.0947265625.796875-.2548828125,1.2607421875-.4794921875.46484375-.2236328125,1.0107421875-.5869140625,1.638671875-1.08984375l1.3173828125-1.060546875h2.109375v12.232421875c0,.4345703125.0625.763671875.1884765625.98828125.125.224609375.3818359375.3369140625.771484375.3369140625h1.525390625v1.080078125h-7.7763671875Z"/>
  <path class="cls-1" d="M339.974999478164136,74.711583196988613l5.0087890625-12.333984375h-4.9521484375c-.65234375,0-1.0166015625.3466796875-1.091796875,1.0400390625l-.11328125,1.01953125h-1.1298828125l.0947265625-4.28125h8.98046875v.998046875l-5.1962890625,13.5576171875h-1.6005859375Z"/>
</svg>