<svg xmlns="http://www.w3.org/2000/svg" width="277.869" height="46.521" viewBox="0 0 277.869 46.521"><path d="M17.073,11.468a5.614,5.614,0,0,0,2.855-4.886,5.536,5.536,0,0,0-2.794-4.919A11.429,11.429,0,0,0,11.551.482c-.821,0-2.466.073-4.056.143C6.12.686,4.823.743,4.271.743H1.806c-.693,0-1.4.3-1.4.873s.473.971,1.249,1.091C3.515,3.063,3.567,3.292,3.7,3.9a38.941,38.941,0,0,1,.253,5.519c0,8.245-.321,11.73-.333,11.866-.132,1.115-.182,1.532-2.261,1.942-.32.058-1.364.3-1.364,1.016,0,.57.665.984,1.582.984.2,0,.439-.009.716-.018.546-.02,1.228-.044,2.113-.019,1.784.04,5.806.112,6.842.112,1.248,0,4.922-.308,6.9-1.708A6.784,6.784,0,0,0,21.5,17.858C21.5,14.944,20.009,12.8,17.073,11.468ZM11.626,23.295a3.646,3.646,0,0,1-2.06-1.137,2.341,2.341,0,0,1-.391-.965c-.074-1.1-.185-5.591-.149-6.546A4.14,4.14,0,0,1,9.175,13.2a3.038,3.038,0,0,1,1.032-.177,6.127,6.127,0,0,1,3.02.659l.012.007a4.965,4.965,0,0,1,2.555,4.473C15.794,20.942,13.885,23.295,11.626,23.295Zm1.522-13.027a8.666,8.666,0,0,1-4.09.79c-.024-.013-.064-.069-.069-.069,0-6.208.071-7.31.143-7.889a1.047,1.047,0,0,1,.156-.314A7.1,7.1,0,0,1,10.394,2.6,4.132,4.132,0,0,1,14.785,7.03,3.854,3.854,0,0,1,13.148,10.267Z" transform="translate(0 -0.108)" fill="#fff"/><path d="M54.466,23.2c-1.074-.317-1.851-.545-3.073-3.544-.713-1.784-3.2-8.437-5.333-14.4l-.291-.829c-.437-1.248-.933-2.662-1.208-3.365v0C44.278.359,44.047,0,43.566,0a1.3,1.3,0,0,0-1,.665c-.147.233-.623.8-1.007,1.263-.262.316-.508.611-.669.822a2.677,2.677,0,0,0-.356.66,6.184,6.184,0,0,1-.239.673c-.658,1.558-1.751,4.342-2.908,7.29-1.494,3.8-3.037,7.735-3.543,8.745-1.07,2.18-1.429,2.648-3.155,3.121-.566.162-1.215.436-1.215,1.12,0,.381.255.836,1.47.836.22,0,.617-.022,1.1-.05.771-.044,1.732-.1,2.592-.1.808,0,1.461.026,2,.047.384.015.708.027.989.027.929,0,1.507-.334,1.507-.873,0-.779-.964-1.02-1.368-1.121-1.356-.367-1.469-.809-1.469-1.269,0-.322.114-1.657,1.542-5.2a1.344,1.344,0,0,1,.18-.205c.819-.057,2.669-.141,6.217-.106a.78.78,0,0,1,.494.3l.248.687a26.674,26.674,0,0,1,1.45,4.682c.053.425.1.825-1.19,1.14-.941.2-1.277.654-1.277,1.015,0,.458.415.947,1.582.947.46,0,1.028-.016,1.63-.034.669-.019,1.38-.04,2.029-.04.6,0,1.654.041,2.669.081.912.035,1.777.069,2.221.069,1.2,0,1.62-.511,1.62-.948C55.715,23.64,55,23.36,54.466,23.2ZM43.851,13.778c-1.3,0-3.682.039-4.993.071.267-.928,1.511-4.229,2.267-6.237l.251-.652C42.01,8.556,43.317,12.168,43.851,13.778Z" transform="translate(-6.63)" fill="#fff"/><path d="M93.486.578c-.421,0-.946.034-1.549.074-1.1.073-2.389.128-3.876.1-.45-.01-.918-.02-1.409-.02-.893,0-1.47.328-1.47.836,0,.854,1.031,1.111,1.521,1.234,1.676.436,1.965,1.1,2.028,1.76.106.923.222,2.682.222,3.913,0,.873.009,1.825.016,2.769.019,2.14.039,4.345-.056,5.35-.369-.388-.85-.891-1.4-1.471C84.538,12.008,79.565,6.8,78.1,5.008c-.822-.961-1.5-1.74-2.045-2.359-.467-.533-.829-.948-1.111-1.284-.006-.006-.683-.6-1.1-.6-1.143,0-2.66-.053-3.879-.1-.8-.029-1.469-.053-1.8-.053-.887,0-1.508.39-1.508.948,0,.591.869.94,1.272,1.012A3.445,3.445,0,0,1,70.42,4.017l.163.2a5.248,5.248,0,0,1,.15,1.863c0,1.713-.2,5.271-.391,8.71-.108,1.925-.213,3.81-.281,5.313-.1,2.551-.79,2.76-2.449,3.265-.272.082-1.1.33-1.1,1.043,0,.522.546.874,1.358.874.3,0,.922-.025,1.583-.051.739-.029,1.53-.061,1.964-.061.67,0,1.22.04,1.752.079.5.036.966.071,1.5.071,1.339,0,1.62-.515,1.62-.948,0-.7-1-.988-1.317-1.079-1.636-.512-1.955-1.029-2.083-2.059-.148-1.457-.129-3.574-.1-7.08l.024-2.733c.033-2.591.094-3.577.16-4.473,1.346,1.562,3.086,3.49,4.922,5.525,2.8,3.1,5.694,6.31,7.747,8.821l.3.365c.863,1.054,1.487,1.816,2.119,2.647.121.161,1.213,1.573,2.325,1.573a1.2,1.2,0,0,0,.986-1.1c0-.437-.043-1.3-.092-2.3-.062-1.243-.132-2.652-.132-3.52,0-3.256.264-12.635.37-13.916.179-1.433.319-1.914,2.034-2.475.9-.25,1.218-.743,1.218-1.12C94.769,1.306,94.707.578,93.486.578Z" transform="translate(-14.961 -0.13)" fill="#fff"/><path d="M131.468,23.463a5.16,5.16,0,0,1-3.345-1.755c-2.287-2.4-8.322-9.363-9.326-10.828a63.119,63.119,0,0,1,5.853-5.59l.267-.213a10.147,10.147,0,0,1,4.675-2.546c1.056-.192,1.662-.6,1.662-1.129,0-.326-.186-.873-1.432-.873-.421,0-1.076.036-1.863.079-1.179.064-2.646.145-4.073.145h-1.569c-.974,0-1.321.47-1.321.911,0,.676.9.9,1.194.973.811.194.937.408.956.47s.022.3-.494.887a78.687,78.687,0,0,1-7.762,7.834,2.183,2.183,0,0,1-.253.169c-.037-1.8-.065-6.136.042-7.48.065-1.49.277-1.588,1.563-1.927.477-.143,1.274-.382,1.274-1.04,0-.44-.415-.91-1.583-.91-.426,0-1.1.025-1.821.051-.788.029-1.624.06-2.211.06-.612,0-1.433-.032-2.2-.06-.687-.026-1.333-.051-1.756-.051-.75,0-1.508.281-1.508.91,0,.674.782.963,1.363,1.119,1.212.351,1.48.581,1.549,2.214.009.311.019.545.03.792.036.8.081,1.8.081,6.366,0,3.983,0,6.861-.074,8.413-.142,2.1-.433,2.49-2.093,2.822-.516.123-1.38.329-1.38,1.087,0,.559.735.948,1.4.948.612,0,1.4-.039,2.161-.076s1.49-.074,2.058-.074c.627,0,1.693.022,2.666.042.826.017,1.587.033,1.964.033.787,0,1.583-.326,1.583-.947,0-.5-.447-.875-1.338-1.122-1.612-.412-1.612-.927-1.612-1.279l-.032-.973c-.055-1.654-.148-4.422-.118-6.781,0-.127,0-.233.005-.32.136.145.336.376.577.656l.391.453c1.751,1.864,5.534,6.626,6.637,8.155l.005.012c-1.29.4-1.82.641-1.82,1.164,0,.454.326.984,1.247.984.364,0,.745-.014,1.17-.03.534-.021,1.142-.044,1.891-.044.517,0,1.883.077,3.2.15,1.355.076,2.634.148,3.144.148s1.471-.288,1.471-.984C132.561,24.074,131.986,23.6,131.468,23.463Z" transform="translate(-23.822 -0.119)" fill="#fff"/><path d="M162.975,18.674c-.569,0-1.01.6-1.5,1.5a5.4,5.4,0,0,1-2.743,2.589,11.1,11.1,0,0,1-3.3.313,18.25,18.25,0,0,1-2.948-.216,1.07,1.07,0,0,1-.517-.589,14.573,14.573,0,0,1-.122-2.105c0-.323-.009-.633-.02-.9a49.807,49.807,0,0,1,.06-5.058,1.142,1.142,0,0,1,.181-.181c1.113,0,2.482,0,3.636.074,1.294.1,1.641.275,2.085,1.778.114.38.486,1.1,1.08,1.1a.729.729,0,0,0,.527-.237,1.769,1.769,0,0,0,.345-1.3l-.044-.526c-.058-.681-.1-1.22-.1-1.981,0-.632.041-1.162.095-1.832l.053-.712a1.793,1.793,0,0,0-.3-1.256.625.625,0,0,0-.461-.209c-.622,0-.972.693-1.175,1.2l-.113.257c-.557,1.28-.568,1.305-2.818,1.305l-2.972-.03c-.039-2.072.075-7.2.149-8.117a2.531,2.531,0,0,1,.114-.674,27.154,27.154,0,0,1,5.107.219c1.049.183,1.73.991,2.075,2.451.091.5.468,1.289,1.091,1.289s.985-.744.985-1.433q0-3.318-.041-4.05a1.07,1.07,0,0,0-.446-.7.569.569,0,0,0-.44-.11,28.254,28.254,0,0,1-3.231.22h-5.6c-.993,0-2.279-.029-3.534-.057-1.2-.028-2.366-.054-3.224-.054-.749,0-1.546.332-1.546.947,0,.766.873.932,1.511,1.053,1.33.247,1.592.747,1.663,2.035.052.754.049,1.828.043,3.969,0,.877-.006,1.93-.006,3.21,0,4.286-.159,7.066-.3,9.006-.136,1.837-.491,2.077-2.241,2.49-.915.215-1.419.614-1.419,1.124,0,.873,1.248.873,1.657.873.587,0,1-.034,1.483-.074.643-.053,1.373-.113,2.773-.113,2.022,0,7.459.1,10.381.151,1.146.021,1.938.036,2.052.036a1.671,1.671,0,0,0,1.234-.683,29.236,29.236,0,0,0,1.466-4.474,1.831,1.831,0,0,0-.218-1.306A.615.615,0,0,0,162.975,18.674Z" transform="translate(-32.077 -0.117)" fill="#fff"/><path d="M196.968,23.388a4.874,4.874,0,0,1-2.993-1.74,58.3,58.3,0,0,1-5.585-8.732.161.161,0,0,1-.015-.045c.287-.145,1.222-.622,1.432-.777l.009-.008A6.264,6.264,0,0,0,192.575,7a6.36,6.36,0,0,0-2.155-4.74C189.02,1.1,186.815.53,183.675.53c-1.111,0-2.56.057-3.838.107-1.049.041-2.041.08-2.659.08h-2.726c-.839,0-1.47.391-1.47.91,0,.467.443.862,1.232,1.087,1.652.386,1.813.853,1.869,1.532.112,1.009.184,4.2.184,8.134,0,3.237,0,6.294-.223,9.161-.06.963-.326,1.319-1.967,1.819-.777.239-1.17.564-1.17.968,0,.449.275.985,1.583.985.152,0,.5-.019.936-.045.769-.044,1.823-.1,2.648-.1.979,0,1.925.067,2.76.126.723.05,1.408.1,2.019.1.769,0,1.546-.293,1.546-.948,0-.336-.2-.8-1.186-1.084-1.573-.41-1.7-.667-1.8-2.076-.11-1.716-.186-6.672-.121-7.32.009-.023.054-.067.033-.071a3.092,3.092,0,0,1,1.587.426,6.335,6.335,0,0,1,1.066,1.435c1.451,2.487,3.417,5.679,4.538,7.2,1.261,1.741,3.208,2.587,5.953,2.587a10.607,10.607,0,0,0,2.608-.314c.354-.1.878-.467.878-.932C197.952,23.875,197.434,23.482,196.968,23.388ZM181.441,3.308a2,2,0,0,1,.241-.513,5.815,5.815,0,0,1,1.246-.22,3.881,3.881,0,0,1,2.745,1.187l0,0a5.5,5.5,0,0,1,1.5,3.688,4.7,4.7,0,0,1-1.912,3.855,9.34,9.34,0,0,1-3.8.763.275.275,0,0,1-.128-.122C181.188,11.011,181.34,4.481,181.441,3.308Z" transform="translate(-38.891 -0.119)" fill="#fff"/><path d="M218.523,10.7C215.1,8.53,213.7,7.452,213.7,5.5a3.514,3.514,0,0,1,3.421-3.5,4,4,0,0,1,2.738.956,5.859,5.859,0,0,1,1.486,2.476A1.705,1.705,0,0,0,222.8,6.563c.33,0,.724-.222.724-1.284,0-.07-.021-.254-.112-1.014-.1-.825-.263-2.207-.27-2.571a2.05,2.05,0,0,0-.692-1.056L222.331.6c-.238-.035-.529-.087-.86-.146a23.235,23.235,0,0,0-3.9-.456,9.068,9.068,0,0,0-6.18,1.879,6.822,6.822,0,0,0-2.421,5.192c0,3.543,2.214,5.691,6.038,8.2,3.356,2.189,4.043,3.572,4.043,4.978a3.488,3.488,0,0,1-3.495,3.346,5.531,5.531,0,0,1-4.841-3.217c-1.1-2.272-1.63-2.272-1.805-2.272-.463,0-.985.764-.985,1.171a20.531,20.531,0,0,0,.646,4.047,3.238,3.238,0,0,0,1.208,1.393,14.52,14.52,0,0,0,5.517,1,11.423,11.423,0,0,0,5.428-1.4,7.036,7.036,0,0,0,3.472-5.82C224.192,16.351,223.518,13.747,218.523,10.7Z" transform="translate(-46.767)" fill="#fff"/><path d="M261.311,11.468a5.614,5.614,0,0,0,2.855-4.886,5.537,5.537,0,0,0-2.793-4.919,11.432,11.432,0,0,0-5.584-1.18c-.822,0-2.466.073-4.057.143-1.374.06-2.672.118-3.224.118h-2.465c-.693,0-1.394.3-1.394.873s.471.971,1.247,1.091c1.856.357,1.908.586,2.046,1.194a39.074,39.074,0,0,1,.253,5.519c0,8.245-.321,11.73-.333,11.866-.132,1.115-.181,1.532-2.261,1.942-.32.058-1.364.3-1.364,1.016,0,.57.666.984,1.582.984.2,0,.44-.009.716-.018.547-.02,1.227-.044,2.114-.019,1.783.04,5.805.112,6.841.112,1.248,0,4.922-.308,6.9-1.708a6.785,6.785,0,0,0,3.347-5.736C265.735,14.944,264.246,12.8,261.311,11.468Zm-5.448,11.827a3.646,3.646,0,0,1-2.06-1.137,2.341,2.341,0,0,1-.391-.965c-.074-1.1-.185-5.591-.149-6.546a4.14,4.14,0,0,1,.149-1.451,3.038,3.038,0,0,1,1.032-.177,6.131,6.131,0,0,1,3.02.659l.011.007a4.963,4.963,0,0,1,2.555,4.473C260.031,20.942,258.122,23.295,255.863,23.295Zm1.522-13.027a8.664,8.664,0,0,1-4.09.79c-.023-.013-.064-.069-.069-.069,0-6.208.072-7.31.144-7.889a1.029,1.029,0,0,1,.156-.314,7.076,7.076,0,0,1,1.1-.184,4.132,4.132,0,0,1,4.392,4.429A3.854,3.854,0,0,1,257.385,10.267Z" transform="translate(-54.935 -0.108)" fill="#fff"/><path d="M289.385,0a14.39,14.39,0,0,0-8.195,2.773,12.029,12.029,0,0,0-4.924,10.01,12.66,12.66,0,0,0,3.279,8.816,13.687,13.687,0,0,0,9.991,4.116,14.4,14.4,0,0,0,8.418-2.772,12.751,12.751,0,0,0,4.85-10.459C302.8,4.67,295.981,0,289.385,0Zm1.232,23.56c-5.129,0-8.573-6-8.573-11.6,0-5.254,1.911-7.517,2.5-8.086l0,0a6.2,6.2,0,0,1,3.945-1.791A7.606,7.606,0,0,1,293.156,4c2.582,2.369,3.757,6.661,3.757,9.646,0,4.235-1.487,7.226-2.772,8.512A4.843,4.843,0,0,1,290.617,23.56Z" transform="translate(-62.139)" fill="#fff"/><path d="M336.694,23.4c-2.616-.645-3.437-1.659-4.778-3.541-1.556-2.254-5.03-7.7-5.3-8.434-.015-.048,0-.191-.009-.191h0c1.237-1.705,2.565-3.261,3.737-4.633.419-.492.825-.968,1.206-1.424a7.731,7.731,0,0,1,4.669-2.638c.523-.1,1.253-.57,1.253-1.129,0-.239-.129-.8-1.322-.8-.447,0-1.227.037-2.014.074s-1.587.075-2.055.075c-.5,0-1.023-.026-1.557-.053-.576-.029-1.166-.058-1.766-.058-1.294,0-1.4.7-1.4.91,0,.344.341.929,1.273,1.125.884.2,1.087.448,1.134.546.016.033.063.133-.039.337a63.133,63.133,0,0,1-4.379,6.022,67.109,67.109,0,0,1-3.747-6.215.517.517,0,0,1-.06-.4c.05-.1.205-.16.339-.2.66-.264,1.364-.6,1.364-1.294,0-.251-.143-.835-1.471-.835-.55,0-.984.025-1.446.051-.52.029-1.056.06-1.84.06-.762,0-2.156-.06-3.386-.113C314.2.612,313.4.578,313.079.578c-1.113,0-1.508.511-1.5.893-.074.516.484.991,1.386,1.18a4.261,4.261,0,0,1,2.979,1.866,75.722,75.722,0,0,1,5.774,9.207c.029.088.029.088-.025.154-1.922,2.624-4.472,5.7-5.577,6.917a8.233,8.233,0,0,1-4.047,2.491c-.577.121-1.652.345-1.652,1.239,0,.4.275.873,1.582.873.385,0,.847-.042,1.382-.09.7-.063,1.494-.134,2.352-.134.661,0,1.4.041,2.116.081.642.036,1.249.069,1.73.069.766,0,1.321-.415,1.321-.985,0-.257-.157-.733-1.2-1.039-.647-.222-.95-.42-1.046-.685-.145-.4.117-1.142.8-2.252a55.728,55.728,0,0,1,3.525-4.761c.559.682,3.758,5.973,4.429,7.269a.294.294,0,0,1-.013.093,3.206,3.206,0,0,1-.694.291l-.35.121c-.537.19-1.154.488-1.154,1.112,0,.434.409.873,1.321.873.221,0,.628-.032,1.108-.07.659-.052,1.479-.117,2.1-.117,1.031,0,2.767.09,4.162.162,1.037.053,1.933.1,2.335.1,1.339,0,1.62-.515,1.612-.872C337.924,24.143,337.547,23.592,336.694,23.4Zm-13.741-7.886a.135.135,0,0,1-.071-.023l.243-.294v0Z" transform="translate(-69.819 -0.13)" fill="#fff"/><g transform="translate(269.989 0.893)"><path d="M356.218,5.109a4.011,4.011,0,0,1-3.992,4.024,3.9,3.9,0,0,1-3.889-4.024,3.957,3.957,0,0,1,3.955-3.957A3.868,3.868,0,0,1,356.218,5.109Zm-7.1,0a3.169,3.169,0,0,0,3.172,3.275,3.122,3.122,0,0,0,3.138-3.275,3.214,3.214,0,0,0-3.138-3.31A3.138,3.138,0,0,0,349.122,5.109Zm1.911-.921c0-.512-.1-.546-.374-.649-.412-.171-.206-.307-.036-.341a16.853,16.853,0,0,1,1.742-.1c.955,0,1.569.409,1.569,1.056,0,.546-.511.684-.65.785-.033.034-.067.067-.033.136a4.78,4.78,0,0,0,1.125,1.57c.139.068.239.171.239.205,0,.1-.2.2-.511.2a1.187,1.187,0,0,1-.989-.546c-.205-.307-.444-.716-.614-1.023-.033-.1-.136-.136-.308-.136-.24,0-.24.033-.24.136v.375c0,.546.036.546.547.751.24.1.206.34,0,.34-.308,0-.647-.033-.955-.033s-.512.033-.922.033c-.17,0-.272-.2-.067-.307.342-.136.477-.272.477-.647Zm.919.546c0,.136,0,.171.309.171.512,0,.647-.274.647-.649s-.2-.75-.614-.75c-.272,0-.342.033-.342.17Z" transform="translate(-348.338 -1.152)" fill="#fff"/></g><g transform="translate(104.59 37.335)"><path d="M137.708,57.355a4.946,4.946,0,0,1-1.29-.144,2.425,2.425,0,0,1-.851-.395,1.537,1.537,0,0,1-.475-.569,1.5,1.5,0,0,1-.15-.644,1.009,1.009,0,0,1,.163-.6.973.973,0,0,1,.444-.343,1.619,1.619,0,0,1,.607-.112,3,3,0,0,0,.212,1.113,1.532,1.532,0,0,0,1.5.989,1.726,1.726,0,0,0,1.208-.394,1.35,1.35,0,0,0,.432-1.046,1.3,1.3,0,0,0-.213-.751,2,2,0,0,0-.663-.575,9.215,9.215,0,0,0-1.164-.551,6.222,6.222,0,0,1-1.351-.738,2.393,2.393,0,0,1-.745-.877,2.629,2.629,0,0,1-.232-1.139,2.154,2.154,0,0,1,.388-1.283,2.5,2.5,0,0,1,1.051-.838,3.7,3.7,0,0,1,1.514-.295,4.419,4.419,0,0,1,1.414.194,1.927,1.927,0,0,1,.845.519,1.068,1.068,0,0,1,.281.714.849.849,0,0,1-.338.694,1.581,1.581,0,0,1-1,.269,2.338,2.338,0,0,0-.131-.751,1.556,1.556,0,0,0-.425-.656,1.134,1.134,0,0,0-.8-.27,1.426,1.426,0,0,0-.97.333,1.154,1.154,0,0,0-.381.919,1.454,1.454,0,0,0,.176.726,1.828,1.828,0,0,0,.613.6,7.315,7.315,0,0,0,1.238.613,6.451,6.451,0,0,1,1.333.7,2.531,2.531,0,0,1,.776.839,2.241,2.241,0,0,1,.257,1.094,2.418,2.418,0,0,1-.406,1.4,2.682,2.682,0,0,1-1.139.925A4.171,4.171,0,0,1,137.708,57.355Z" transform="translate(-134.942 -48.17)" fill="#fff"/><path d="M143.983,57.267v-.613h.388a1.3,1.3,0,0,0,.4-.057.5.5,0,0,0,.281-.237,1.1,1.1,0,0,0,.106-.544V49.783a1.1,1.1,0,0,0-.106-.55.506.506,0,0,0-.281-.231,1.3,1.3,0,0,0-.4-.057h-.388v-.613h4.055v.613h-.388a1.312,1.312,0,0,0-.395.057.48.48,0,0,0-.281.231,1.156,1.156,0,0,0-.1.55v6.032a1.158,1.158,0,0,0,.1.544.474.474,0,0,0,.281.237,1.312,1.312,0,0,0,.395.057h.388v.613Z" transform="translate(-136.976 -48.206)" fill="#fff"/><path d="M150.328,57.267v-.613h.388a1.294,1.294,0,0,0,.4-.057.5.5,0,0,0,.282-.237,1.1,1.1,0,0,0,.105-.544V49.733a.944.944,0,0,0-.112-.519A.511.511,0,0,0,151.1,49a1.412,1.412,0,0,0-.388-.051h-.388v-.613h2.59l4.443,6.5V49.733a.958.958,0,0,0-.112-.519.511.511,0,0,0-.288-.219,1.422,1.422,0,0,0-.388-.051h-.388v-.613H159.4v.613h-.388a1.241,1.241,0,0,0-.388.057.5.5,0,0,0-.281.231,1.091,1.091,0,0,0-.107.55v7.484h-1.051l-4.818-7.008v5.557a1.112,1.112,0,0,0,.105.544.5.5,0,0,0,.289.237,1.3,1.3,0,0,0,.394.057h.388v.613Z" transform="translate(-138.403 -48.206)" fill="#fff"/><path d="M167.116,57.355a4.255,4.255,0,0,1-2.3-.575,3.538,3.538,0,0,1-1.377-1.609,5.936,5.936,0,0,1-.457-2.421,5.641,5.641,0,0,1,.475-2.383,3.655,3.655,0,0,1,1.415-1.614,4.309,4.309,0,0,1,2.315-.582,5.247,5.247,0,0,1,1.521.188,2.02,2.02,0,0,1,.907.514,1.041,1.041,0,0,1,.3.725.879.879,0,0,1-.369.732,1.643,1.643,0,0,1-1.02.282,2.445,2.445,0,0,0-.131-.789,1.416,1.416,0,0,0-.438-.644,1.256,1.256,0,0,0-.832-.257,1.967,1.967,0,0,0-1.358.45,2.568,2.568,0,0,0-.732,1.3,8.217,8.217,0,0,0-.225,2.076,6.758,6.758,0,0,0,.257,1.99,2.179,2.179,0,0,0,2.295,1.676,2.914,2.914,0,0,0,1.052-.169,2.446,2.446,0,0,0,.739-.432,3.89,3.89,0,0,0,.513-.538.537.537,0,0,1,.162.213.742.742,0,0,1,.063.312,1.065,1.065,0,0,1-.15.519,1.637,1.637,0,0,1-.476.507,2.6,2.6,0,0,1-.857.381A5.02,5.02,0,0,1,167.116,57.355Z" transform="translate(-141.25 -48.17)" fill="#fff"/><path d="M172.9,57.267v-.613h.388a1.405,1.405,0,0,0,.388-.05.5.5,0,0,0,.288-.219.912.912,0,0,0,.113-.506v-6.1a1.1,1.1,0,0,0-.106-.55.506.506,0,0,0-.281-.231,1.3,1.3,0,0,0-.4-.057H172.9v-.613h6.7l.063,2.266h-.789l-.062-.576a1.408,1.408,0,0,0-.132-.513.854.854,0,0,0-.294-.338.87.87,0,0,0-.488-.125h-2.1v3.2h2.978v.7H175.79v3.6h2.465a.863.863,0,0,0,.495-.132.929.929,0,0,0,.307-.35,1.518,1.518,0,0,0,.15-.494l.087-.575h.789l-.088,2.265Z" transform="translate(-143.479 -48.206)" fill="#fff"/><path d="M187.844,57.252v-.613h.952a1.126,1.126,0,0,0,.412-.069.508.508,0,0,0,.27-.25,1.161,1.161,0,0,0,.094-.519V49.406a10.97,10.97,0,0,1-.857.939,1.117,1.117,0,0,1-.757.362.628.628,0,0,1-.488-.225.872.872,0,0,1-.2-.6,5.575,5.575,0,0,0,.826-.3,5.706,5.706,0,0,0,1.063-.663l.876-.651h1.177V55.8a1.229,1.229,0,0,0,.081.488.5.5,0,0,0,.257.268,1.06,1.06,0,0,0,.45.082h.85v.613Z" transform="translate(-146.712 -48.192)" fill="#fff"/><path d="M197.621,57.355a2.954,2.954,0,0,1-1.159-.188,1.336,1.336,0,0,1-.619-.481,1.118,1.118,0,0,1-.188-.608.653.653,0,0,1,.525-.676,2.637,2.637,0,0,0,.314.607,1.418,1.418,0,0,0,.475.432,1.365,1.365,0,0,0,.687.163,1.463,1.463,0,0,0,1.371-.914,6.946,6.946,0,0,0,.519-2.752,2.336,2.336,0,0,1-.438.425,2.084,2.084,0,0,1-.594.314,2.412,2.412,0,0,1-.77.112,2.722,2.722,0,0,1-1.27-.288,2.041,2.041,0,0,1-.87-.863,2.917,2.917,0,0,1-.313-1.414,3.563,3.563,0,0,1,.338-1.59,2.56,2.56,0,0,1,.963-1.076,2.769,2.769,0,0,1,1.489-.388,2.872,2.872,0,0,1,1.577.439,2.9,2.9,0,0,1,1.083,1.363,6.207,6.207,0,0,1,.394,2.4,9.085,9.085,0,0,1-.194,1.915,5.022,5.022,0,0,1-.619,1.589,3.168,3.168,0,0,1-1.1,1.083A3.116,3.116,0,0,1,197.621,57.355Zm.563-4.4a1.368,1.368,0,0,0,.857-.264,1.694,1.694,0,0,0,.519-.638,7.429,7.429,0,0,0-.194-1.77,2.31,2.31,0,0,0-.495-1.008.993.993,0,0,0-.739-.326.955.955,0,0,0-.663.25,1.581,1.581,0,0,0-.419.732,4.261,4.261,0,0,0-.143,1.2,2.348,2.348,0,0,0,.326,1.376A1.1,1.1,0,0,0,198.184,52.951Z" transform="translate(-148.516 -48.17)" fill="#fff"/><path d="M204.3,57.252v-.613h.951a1.126,1.126,0,0,0,.412-.069.508.508,0,0,0,.27-.25,1.161,1.161,0,0,0,.094-.519V49.406a10.97,10.97,0,0,1-.857.939,1.116,1.116,0,0,1-.757.362.628.628,0,0,1-.488-.225.872.872,0,0,1-.2-.6,5.574,5.574,0,0,0,.826-.3,5.656,5.656,0,0,0,1.063-.663l.876-.651h1.177V55.8a1.243,1.243,0,0,0,.081.488.505.505,0,0,0,.257.268,1.061,1.061,0,0,0,.45.082h.851v.613Z" transform="translate(-150.412 -48.192)" fill="#fff"/><path d="M213.1,57.267l3.191-7.709h-2.915a.729.729,0,0,0-.513.163.742.742,0,0,0-.213.476l-.062.625h-.663l.063-2.49H217.8v.513l-3.3,8.423Z" transform="translate(-152.257 -48.206)" fill="#fff"/></g></svg>