<?xml version="1.0" encoding="UTF-8"?>
<svg id="Layer_1" data-name="Layer 1" xmlns="http://www.w3.org/2000/svg" viewBox="0 0 250 41.474282505030715">
  <defs>
    <style>
      .cls-1 {
        fill: #fff;
      }
    </style>
  </defs>
  <path class="cls-1" d="M247.149686618484338.65811886199026c1.575150033830141,0,2.850313381515662,1.27560321085457,2.850313381515662,2.850753244680163,0,1.575150033834689-1.27516334768552,2.850753244695625-2.850313381515662,2.850753244695625-1.575589897001919,0-2.850753244687439-1.275603210860936-2.850753244687439-2.850753244695625,0-1.575150033825594,1.27516334768552-2.850753244680163,2.850753244687439-2.850753244680163ZM247.149686618484338,5.544998749113802c1.144523984368789,0,1.989941008943788-.921953217234659,1.989941008943788-2.036126642443378,0-1.114173425210538-.845417024574999-2.036566505615156-1.989941008943788-2.036566505615156-1.144963847542385,0-1.990380872117385.922393080404618-1.990380872117385,2.036566505615156,0,1.114173425208719.845417024574999,2.036126642443378,1.990380872117385,2.036126642443378ZM246.035513193275619,1.971990169176024h1.198627155034046c.79879152790636,0,1.183231943870851.345732456462429,1.183231943870851.95274363955923,0,.507162242112827-.338254782469448.799231391086323-.760963294756948.85289469856798l.760963294756948,1.267685673697997h-.737650546421719l-.722255335249429-1.23689525136524h-.245883515475725v1.23689525136524h-.676069701758024V1.971990169176024ZM246.711582895033644,3.270466265195864h.514639916109445c.299546822954653,0,.515079779277585-.053663307489842.515079779277585-.384000552787256,0-.338254782467629-.330777108467373-.376522878793367-.584138297932441-.376522878793367h-.445581397454589v.760523431580623Z"/>
  <path class="cls-1" d="M15.623705069944663,10.440178988195839c-.107393984108057.036033507825778-.071360476285918.359981808578596.03603350782214.359981808578596,2.4841924219254,1.043911917917285,4.32048824233425,2.808140722676399,4.32048824233425,5.939876476420977,0,2.376091898438972-1.332533250209963,4.068253687544711-3.060022007774933,5.22026612893751-1.728195296931517,1.224079457047992-5.004418351664754,1.584061265626588-6.444345585982774,1.584061265626588-1.008231679773417,0-4.967678304476067-.072067015651555-6.587773077925704-.108100523477333-1.296499742388733-.036033507827597-2.159890851483397.036033507825778-2.7364269767113.036033507825778-.647896601503817,0-1.151659171706342-.252234554784081-1.151659171706342-.576182855538718,0-.323948300752818.611863093684406-.539796078026484,1.007525140407779-.611863093681677,2.196630898672993-.43204882423197,2.340058390608647-.97219817194491,2.484192421918124-2.195924359308265.072067015649736-.755997124986607.324301570435637-4.356168480473571.324301570435637-11.484090906113124,0-3.060375277457752-.14413403130402-4.896317828185602-.2522345547859-5.400080398388127-.180167539131617-.792030632812384-.395662046722464-1.080298695424972-2.26799137495982-1.440280504004477-.467729062376748-.071713745969646-.900131156291536-.287914792928859-.900131156291536-.683930109334142,0-.28791479292795.504469109568163-.468082332059566.972198171946729-.468082332059566h2.376091898436243c1.151659171709071,0,5.544214429699423-.251881285100353,7.02017517184413-.251881285100353,2.087823835828203,0,4.10358065600758.396015316406192,5.183879351430733,1.079945425739425,1.764228804759114,1.079945425742153,2.52022592974572,2.664006691368741,2.52022592974572,4.428235496127854,0,2.736073707019386-1.872329328237356,3.923766386556963-2.844527500183176,4.572016257749056ZM9.647795085701546,1.656128281278143c-.216201046959213,0-.864097648469397.107747253795424-1.25975969519277.215847777273666-.072067015647917.036033507827597-.288268062613497.359981808581324-.324301570435637.576182855539628-.072067015654284.57582958585499-.14413403130402,1.619741503770456-.14413403130402,7.668071773349766,0,.143780761622111.18016753912616.43169555455097.396368586091739.43169555455097,1.295793203013091,0,3.348290070382063-.179814269449707,4.211681179483094-.827710870957162,1.11633220324984-.792030632812384,1.728195296932427-2.016110089859467,1.728195296932427-3.420003816354438,0-2.988308261807106-2.015756820179377-4.64408327340243-4.608049765574833-4.64408327340243ZM12.563683062170639,12.384222062402841c-.82806414064089-.468082332059566-1.871622788873538-.68428337901787-3.09605551560071-.68428337901787-.503762570205254,0-1.115625663882383.144134031306749-1.223726187365173.252234554784081-.10810052348188.108100523479152-.288268062613497.287914792928859-.288268062613497,1.691808519422921-.03603350782214.936164664120952.072067015654284,5.256299636766926.14413403130402,6.336245062508169.036033507827597.28791479292704.21620104696558.864097648465759.468435601746023,1.152012441394618.611863093682587.647896601509274,1.620094773455094,1.224079457047992,2.267991374965277,1.224079457047992,2.30402488278196,0,4.39184871861562-2.304024882789236,4.39184871861562-5.328013382737481,0-2.088177105513751-1.08029869542861-3.816019132762449-2.664359961051559-4.64408327340243Z"/>
  <path class="cls-1" d="M34.412379692675131.792030632811475c.323595031067271.828064140639981.97219817194582,2.700040199195428,1.439927234324387,4.031866910037024,1.979723312344504,5.544214429693966,4.427882226441398,12.09630726947762,5.147845843601317,13.896216312379693,1.188399218905033,2.916241246151912,1.980429851720146,3.276223054732327,3.20415603908441,3.63620486331456.61186309367622.179814269446069.936164664118223.396015316406192.936164664118223.647896601505636s-.3603350782696.540149347711122-1.188399218905033.540149347711122c-.89942461692317,0-3.599818085801417-.14413403130493-4.716150289058533-.14413403130493-1.187692679535758,0-2.591586406027091.072067015653374-3.527751070146223.072067015653374-.719963617162648,0-1.151659171708161-.216201046960123-1.151659171708161-.540149347712941,0-.179814269446069.251528015412987-.468082332057747.935458124750767-.611863093681677,1.475960742144707-.359981808580415,1.511994249972304-.936164664117314,1.439927234317111-1.511994249973213-.07136047628137-.936164664117314-.827357601267977-2.952274753979509-1.655421741908867-5.256299636766926-.036033507827597-.143780761622111-.432402093919336-.539796078030122-.8280641406418-.539796078030122-3.852052640588226-.036033507823959-5.580247937520653.072067015655193-6.08401050772045.108100523480971-.10810052348188,0-.324301570442003.251881285099444-.396368586091739.359981808580415-1.151659171709071,2.843820960815719-1.5480277577999,4.499949242095681-1.5480277577999,5.21991285925651,0,.71996361715901.360335078264143,1.224079457046173,1.69216178910483,1.584061265626588.719963617164467.179814269449707,1.044265187601013.396015316406192,1.044265187601013.719963617160829,0,.28791479292704-.468435601746933.468082332059566-1.08029869542861.468082332059566-.647896601510183,0-1.54802775780081-.072067015653374-2.879854468642407-.072067015653374-1.367860218668284,0-3.023988499945517.14413403130493-3.564491117346734.14413403130493-.828064140636343,0-1.04355864822719-.216201046956485-1.04355864822719-.432048824230151,0-.2522345547859.144134031308568-.504115839887163.900131156295174-.719963617160829,1.835589281042303-.504115839887163,2.231957867133133-1.080298695425881,3.275516515361232-3.204156039082591.864097648468487-1.728195296933336,4.75218379688431-11.988206745997559,6.228144539029927-15.480277578005371.072067015648827-.179814269447888.216201046959213-.539796078027393.25223455478681-.719963617160829.03603350782123-.108100523480061.14413403130402-.287914792926131.28826806260895-.504115839884435.359628538894867-.467729062377657,1.367860218667374-1.619741503770456,1.619388234086728-2.015756820178467.216201046959213-.323948300752818.468435601746933-.468082332056838.648603140878549-.468082332056838.179460999763251,0,.323595031067271.072067015650646.61186309367622.792030632811475ZM34.484446708329415,12.960051648258741c-.54050261739485-1.655775011597143-2.124563883023256-6.011943492070714-2.628326453222144-7.199989441292018-.072067015656103-.251881285100353-.288268062614407-.180167539131617-.395662046723373.108100523480061-.64860314087764,1.727842027247789-2.37609189844261,6.263824777170157-2.592292945401823,7.127922425637735-.03603350782214.180167539132526.14413403130493.359981808580415.288268062614407.359981808580415,1.367860218663736-.036033507827597,4.031513640352387-.072067015653374,5.183879351428914-.072067015653374.036033507828506,0,.180167539132526-.143780761620292.14413403130402-.323948300752818Z"/>
  <path class="cls-1" d="M46.971496697644397.468082332056838c.792030632813294,0,4.722456245979629.14378076162302,6.55804552702466.14378076162302.180167539131617,0,.683930109332323.359981808579505.792030632808746.468082332059566.53979607803285.647896601507455,1.548027757806267,1.764228804759114,3.023988499953703,3.492070832007812,1.764228804759114,2.159890851482487,8.820437484429931,9.467980816250929,10.72809378112197,11.484090906113124.180167539136164.180167539130707.324301570442003-.14378076162393.324301570442003-.215847777275485.180167539131617-1.044265187598285.072050887292789-5.112165605461996.072050887292789-8.172187613236929,0-1.188045949219486-.108084395120386-2.880207738325225-.216184918598628-3.816019132761539-.072067015654284-.755997124986607-.431695554549151-1.54802775780081-2.231957867136771-2.016110089861286-.71996361715992-.179814269446979-1.188399218905943-.396015316406192-1.188399218905943-.828064140639071,0-.251881285100353.432402093919336-.432048824232879,1.044265187601013-.432048824232879.900131156291536,0,1.728195296932427.036033507826687,2.484192421919943.036033507826687,1.69216178910392,0,3.168122531255904-.179814269448798,4.104287195374127-.179814269448798.61186309367622,0,.863391109095573.215847777275485.863391109095573.468082332060476,0,.215847777273666-.251528015419353.539796078027393-.89942461692317.71996361715992-1.872329328236447.611863093681677-2.052496867368063,1.259759695188222-2.232664406506046,2.700040199194518-.107393984108967,1.295793203015819-.359628538894867,10.404145480371881-.359628538894867,13.464167488145904,0,1.511994249975032.216201046958304,4.679763511545389.216201046958304,5.615928175662702,0,.323948300754637-.39636858609083.683930109335051-.576536125222447.683930109335051-.755997124985697,0-1.61938823408218-.935811394434495-1.943689804522364-1.367860218668284-.683930109333232-.900131156293355-1.367860218665555-1.728195296933336-2.340058390616832-2.91624124615555-3.38432357820966-4.139967433513448-9.252133038976353-10.368111972542465-12.456289078053487-14.11206408965154-.180167539133436-.215847777274575-.395662046723373.072067015652465-.395662046723373.144134031305839-.072067015655193.971844902261182-.14413403130493,1.83594255072785-.180167539132526,4.680116781227298-.036033507827597,5.004065081984663-.10810052348188,7.739785519321231.072067015655193,9.504014324080345.14413403130402,1.152012441394618.539796078028303,1.763875535076295,2.26799137495982,2.304024882785598.755997124986607.215847777275485,1.008231679773417.468082332059566,1.008231679773417.683930109335051,0,.396015316406192-.504469109574529.540149347711122-1.1883992189114.540149347711122-1.043558648226281,0-1.871622788867171-.14413403130493-3.13208902342285-.14413403130493-.792030632814203,0-2.80778745299267.108100523480971-3.419650546674347.108100523480971-.504469109569072,0-.936164664118223-.180167539132526-.936164664118223-.468082332061385,0-.359981808580415.431695554549151-.540149347711122.792030632814203-.647896601505636,1.65612828128269-.504115839887163,2.520225929752087-.792030632816022,2.627619913859235-3.492070832009631.180167539131617-4.032220179718934.648603140878549-10.944294828083002.648603140878549-13.536234503797459,0-1.439927234322568-.10810052348279-1.871976058554537-.216201046958304-2.016110089861286-.647896601511093-.792030632813294-1.986029269279243-1.295793203015819-3.857652058148233-1.727842027248698-.39636858609083-.072067015652465-.936164664118223-.359981808579505-.936164664118223-.612216363365405,0-.28791479292704.431695554543694-.539796078029212,1.079592156054787-.539796078029212Z"/>
  <path class="cls-1" d="M76.604411481634088.504115839885344c.864097648468487,0,2.700393468878246.107747253794514,3.81601913275972.107747253794514,1.080298695424972,0,3.023988499951884-.107747253794514,3.888086148416733-.107747253794514.719963617164467,0,1.152365711076527.215847777273666,1.152365711076527.503762570200706,0,.359981808581324-.611863093681677.540149347712941-.97219817194491.648249871192093-1.367876717136824.359981808579505-1.692161789105739.57582958585499-1.764228804755476,2.195924359308265-.107393984113514,1.367860218668284-.072067015659741,5.868162730448603-.036033507832144,7.416190488249413,0,.179814269447888.072067015654284.251881285101263.2522345547859.251881285101263.180151040664896,0,.575829585855899-.28791479292704.611863093682587-.323948300754637,1.224432726733539-.900131156291536,5.796448984480776-5.472147414042411,7.523937742044836-7.596004757697301.828064140637252-.936164664119133.86409764846303-1.54802775780081-.647896601504726-1.908009566381224-.431695554554608-.108100523478242-.864097648468487-.288268062609859-.864097648468487-.576182855538718,0-.28791479292704.28826806260804-.504115839885344.900131156289717-.504115839885344h1.511994249974123c2.304024882792874,0,4.716150289057623-.215847777274575,5.724381968825583-.215847777274575.68393010933687,0,1.008231679777964.179814269447888,1.008231679777964.468082332059566,0,.28791479292704-.50446910957271.575829585854081-1.296499742386914.719963617160829-2.087823835828203.396015316406192-3.347583531013697,1.475960742148345-4.931644796642104,2.736073707020296-1.368566758038469,1.079945425741244-4.17635421103023,3.743952117109075-5.72438196883104,5.471794144357773-.108100523477333.108100523479152-.108100523477333.2522345547859-.03603350782214.359981808580415.828064140635433,1.260112964871951,6.80397412487946,8.172187613236019,9.07196549983928,10.54827951167681,1.152365711077437,1.188045949220395,1.293346763924092,1.475960742147436,2.877408029552498,1.799909042902073.395662046723373.108100523479152.755997124986607.468082332059566.755997124986607.612216363366315,0,.359981808578596-.647896601510183.575829585852262-1.044265187601013.575829585852262-.971491632571997,0-4.568863279284415-.28791479292704-5.577094959056922-.28791479292704-1.295793203014,0-2.15989085147703.072067015653374-2.9519214842976.072067015653374-.611863093681677,0-.828064140635433-.28791479292704-.828064140635433-.576182855538718,0-.215847777275485.288268062614407-.396015316406192,1.69216178910483-.828064140639981.14413403130493-.071713745968736.072067015648827-.396015316406192,0-.503762570202525-1.11633220324984-1.548027757798991-4.78821730470554-6.156077523375643-6.444345585983683-7.920306328134757-.935458124755314-1.079945425741244-1.11562566388784-1.331826710840687-1.331826710847963-1.331826710840687-.216201046953756,0-.2522345547859.179814269446069-.2522345547859.828064140639981-.036033507827597,2.807787452988123.10810052348188,6.192111031201421.144134031309477,7.487904234218149,0,.648249871192093.288251564141319,1.188045949218576,1.836295820409759,1.584061265626588.647896601509274.180167539132526,1.008231679773417.43204882423197,1.008231679773417.71996361715901,0,.323948300752818-.576536125223356.540149347712941-1.152365711077437.540149347712941-.792030632814203,0-3.34829007038843-.072067015653374-4.463915734270813-.072067015653374-1.116332203250749,0-2.915887976469094.14413403130493-4.06825368754653.14413403130493-.503762570200706,0-.972198171946729-.288268062611678-.972198171946729-.540149347711122,0-.323948300754637.288268062614407-.504115839885344,1.044265187601013-.683930109335051,1.800262312581253-.359981808580415,2.15989085147794-.936164664117314,2.30402488278196-3.060022007772204.07206701566065-1.511994249976851.07206701566065-4.284101464822015.07206701566065-8.136154105412061,0-5.724028699141854-.07206701566065-5.615928175662702-.10810052348279-6.91207464836134-.072067015655193-1.692161789106649-.395662046722464-2.08817710551466-1.764228804760023-2.484192421920852-.935458124750767-.251881285102172-1.043558648226281-.539796078027393-1.043558648226281-.719963617160829,0-.323948300753727.539796078026484-.503762570200706,1.079592156053877-.503762570200706Z"/>
  <path class="cls-1" d="M115.126677787241533.611863093679858c1.187692679536667,0,2.66435996105065-.14378076162302,3.168122531255904-.215847777274575.14413403130493-.036033507825778.395662046717916.215847777274575.431695554543694.468082332059566.036033507829416.647896601506545.036033507829416,3.132089023427397.036033507829416,3.852052640587317,0,.503762570202525-.251528015418444,1.007878410087869-.57582958585499,1.007878410087869s-.611863093682587-.540149347712031-.683930109331413-.936164664117314c-.467746403878664-1.979723312349961-1.475960742151074-2.519872660062902-2.304024882787417-2.66400669136965-.68393010933778-.143780761621201-2.23195786713768-.251881285101263-5.00441835167203-.215847777273666-.143427491935654,0-.431695554544604.14413403130493-.467729062371291,1.007878410087869-.072067015656103.900131156292446-.180167539132526,5.90419623827438-.144134031311296,7.848239312483202,0,.14413403130493.144134031311296.396015316406192.3603350782696.396015316406192h2.879854468642407c2.556259437569679,0,2.484192421919033-.180167539132526,3.168122531250447-1.728195296933336.21620104696558-.539796078026484.467729062378567-.935811394434495.792030632814203-.935811394434495.28756152324604,0,.395662046723373.575829585854081.359628538895777,1.007878410087869-.072067015649736,1.008231679770688-.143427491935654,1.656128281279962-.143427491935654,2.484192421919943,0,.935811394436314.071360476285918,1.54802775780081.143427491935654,2.447805644409527.036033507827597.648249871192093-.179460999758703,1.080298695425881-.46772906237311,1.080298695425881-.288268062613497,0-.575829585854081-.432048824233789-.68393010933687-.792030632814203-.468435601740566-1.584061265626588-.936164664112766-1.872329328238266-2.340058390608647-1.980076582034599-1.152365711078346-.072067015653374-2.48419242192449-.072067015653374-3.599818085806874-.072067015653374-.14413403130402,0-.468435601746933.359981808580415-.468435601746933.432048824233789-.14415118089255,1.007878410087869-.108100523476423,3.779985624936671-.072067015648827,5.004065081982844.036033507827597.864097648465759,0,2.195924359306446.14413403130402,2.951921484293052.10810052348279.323948300756456.432402093919336.792030632816022.792030632815113.864097648467578.575829585854081.108100523480971,1.69216178910483.215847777275485,2.915887976470003.215847777275485,1.080298695422243,0,2.41212540626384,0,3.312256562559014-.323948300754637,1.080298695424062-.396015316408011,2.051790327999697-1.260112964871951,2.843820960815719-2.664006691367831.50446910957362-.935811394434495.8280641406418-1.26011296487377,1.11633220324984-1.26011296487377.359628538901234,0,.32359503106818.755997124988426.28756152324604,1.044265187600104,0,.287914792928859-1.043558648232647,3.599818085802326-1.367860218668284,4.176000941342863-.10810052348279.251881285099444-.683930109333232.468082332057747-.864097648469397.468082332057747-.395662046717916,0-9.28816654680395-.180167539132526-11.98785347631474-.180167539132526-2.376091898436243,0-2.807787452987213.180167539132526-4.104287195369579.180167539132526-.68393010933687,0-1.223726187363354-.108100523479152-1.223726187363354-.468082332057747,0-.323948300756456.4677290623722-.576182855540537,1.0802986954277-.719963617160829,1.835589281041393-.432048824235608,2.304024882787417-.792030632816022,2.447452374723071-2.736073707019386.108100523478242-1.511994249976851.288268062609859-4.284101464825653.288268062609859-8.712336960950779,0-4.2477146873116.036033507825778-5.903842968590652-.03603350782214-6.947754886506118-.072067015656103-1.296146472698638-.903284134755268-2.016110089860376-2.451311892561534-2.304024882788326-.755997124985697-.14413403130493-1.151659171703614-.288268062609859-1.151659171703614-.648249871192093,0-.323948300752818.61186309367713-.539796078026484,1.11633220324984-.539796078026484,1.691455249736464,0,5.186325790518822.107747253794514,7.058655118762545.107747253794514h5.400080398388127Z"/>
  <path class="cls-1" d="M137.907679564035789,10.872227812429628c-.144134031303111.107747253794514-.900131156295174.503762570200706-1.403893726494061.755997124986607-.180167539132526.071713745968736-.144134031310386.359981808580415-.072067015649736.503762570200706.683930109331413,1.440280504006296,2.007004424154729,6.408312078161543,3.807266736737802,8.496135913992475.971491632577454,1.152012441394618,1.472807763686433,1.584061265626588,2.553106459114133,1.800262312584891.359628538897596.071713745968736.647896601505636.359981808578596.647896601505636.503762570200706,0,.216201046960123-.324301570435637.468082332059566-.575829585855899.540149347712941-.576536125221537.215847777273666-1.944396343889821.287914792928859-2.412125406268387.287914792928859-3.276223054732327,0-4.137167724733445-1.296146472699547-4.893164849720051-2.340058390616832-1.008231679774326-1.367860218666465-1.214973791342345-4.320134972645974-2.726968041321015-6.91207464836225-.324301570435637-.539796078028303-.86409764846394-1.331826710840687-1.152365711077437-1.511994249973213-.252234554787719-.215847777273666-1.044265187594647-.468082332059566-1.728195296931517-.468082332059566-.14413403130493,0-.359628538895777.180167539130707-.395662046723373.359981808578596-.072067015649736.684283379019689,0,5.472147414042411.10810052348279,7.164309203149969.108100523475514,1.548027757798991.359628538895777,1.908009566379405,2.015756820172101,2.340058390615013.611863093681677.179814269447888.864097648469397.43204882423197.864097648469397.683930109335051,0,.396015316404373-.68393010933687.539796078026484-1.116332203257116.539796078026484-1.259759695185494,0-2.843820960812081-.215847777275485-4.608049765573014-.215847777275485-1.259759695187313,0-3.060022007774023.14413403130493-3.455684054497397.14413403130493-.900131156291536,0-1.152365711077437-.252234554784081-1.152365711077437-.576182855536899,0-.215847777273666.39636858609083-.432048824233789.864097648469397-.575829585854081,1.656128281276324-.504115839887163,2.087823835829113-.936164664120952,2.159890851478849-2.08817710551557.216201046958304-2.772107214846983.216201046958304-5.796095714795229.216201046958304-8.856117722569252,0-3.852052640589136-.072067015649736-6.91207464836225-.180167539132526-7.883919550625251-.072067015649736-.864097648464849-.395662046723373-1.40424699617779-2.087823835827294-1.800262312584891-.503762570200706-.143780761622111-.900131156293355-.396015316406192-.900131156293355-.683930109334142,0-.251881285101263.431695554552789-.504115839886254,1.044265187598285-.504115839886254h2.627619913859235c1.332533250209963,0,4.320488242330612-.179814269447888,6.264178046852976-.179814269447888,1.656128281281781,0,4.535982749925097.144134031305839,6.264178046856614,1.584061265626588,1.11633220324984.899777886607808,1.944396343893459,2.627973183542053,1.944396343893459,4.284101464822925,0,1.944043074207002-.936164664119133,3.347936800701063-2.520225929749358,4.608049765574833ZM134.415255462345158,2.879854468639678c-.827357601268886-.86374437878203-1.943689804524183-1.259759695188222-2.915887976470913-1.259759695188222-.144134031303111,0-1.079592156052968.107747253795424-1.367860218668284.251881285100353-.180167539130707.108100523480061-.395662046716097.576182855539628-.431695554545513.755997124987516-.108100523480971,1.224079457047083-.252234554784081,7.523937742044836-.108100523480971,8.460102406163969.036033507827597.216201046958304.28756152324604.432048824233789.467729062378567.432048824233789,1.83629582040885,0,3.49242410169245-.540149347712941,3.888086148415823-.792030632814203.97219817194491-.71996361715901,2.015756820172101-2.016110089860376,2.015756820172101-4.031866910036115,0-.936164664120042-.32359503106818-2.556259437573317-1.54802775780081-3.816372402447087Z"/>
  <path class="cls-1" d="M157.329192435332516.575829585853171c.143427491935654.072067015653374.43169555455097.576182855538718.467729062378567.755997124986607,0,.468082332059566.360335078263233,3.240189546907459.360335078263233,3.384323578212388,0,.539796078029212-.108100523477333.86374437878294-.324301570435637.86374437878294-.288268062615316,0-.864097648469397-.28791479292795-1.044265187601923-.827710870955343-.359628538895777-1.188045949221305-1.115625663882383-2.196277628992902-1.548027757798991-2.556259437573317-.863391109096483-.719963617161739-1.763522265391657-1.00787841008696-2.879854468643316-1.00787841008696-1.69216178910392,0-3.671885101457519,1.403893726494061-3.671885101457519,3.743952117108165,0,2.124210613338619,1.584061265630226,3.276223054734146,4.824250812534956,5.328013382735662,4.427882226442307,2.700040199195428,6.377877987888496,5.004065081982844,6.377877987888496,7.19998944128929,0,1.872329328240085-1.080298695422243,4.032220179722572-3.168122531251356,5.292333144596341-1.22443272673263.755997124986607-3.312256562559924,1.29579320301491-5.04045185949326,1.29579320301491-2.12385734365489,0-3.707918609283297-.359981808582233-5.183879351428914-.935811394434495-.287561523240583-.144134031306749-.936164664117314-.900131156293355-.936164664117314-1.079945425741244-.287561523247859-1.224079457047992-.611863093683496-2.772107214846983-.611863093683496-3.816019132762449,0-.252234554787719.396368586092649-.756350394673063.575829585854081-.756350394673063.288268062613497,0,.864097648465759.864097648467578,1.404600265865156,1.980076582034599,1.079592156056606,2.196277628992902,3.168122531251356,3.312256562561743,5.003711812298206,3.312256562561743,1.656128281276324,0,3.743952117110894-1.296146472701366,3.743952117110894-3.600171355488783,0-1.511994249975032-1.841895237974313-2.951921484293052-5.15344526116678-5.112165605461996-3.672591640824976-2.411772136581931-5.65231495316948-4.39184871861471-5.65231495316948-7.596004757696392,0-2.051790328002426,1.044265187600104-3.779985624935762,2.195924359304627-4.716150289054895,1.187692679535758-1.007878410087869,2.879854468646954-1.727842027246879,5.72438196883013-1.727842027246879,1.655421741908867,0,3.563784577974729.43204882423106,4.53598274991964.575829585853171Z"/>
  <path class="cls-1" d="M188.095237675244789,10.440178988195839c-.108100523477333.036033507825778-.072067015655193.359981808578596.036033507829416.359981808578596,2.483485882548848,1.043911917917285,4.319781702959517,2.808140722676399,4.319781702959517,5.939876476420977,0,2.376091898438972-1.331826710842506,4.068253687544711-3.060022007774023,5.22026612893751-1.728195296935155,1.224079457047992-5.003711812298206,1.584061265626588-6.444345585985502,1.584061265626588-1.007525140403231,0-4.967678304474248-.072067015651555-6.587773077930251-.108100523477333-1.295793203009453-.036033507827597-2.159890851478849.036033507825778-2.73572043733293.036033507825778-.648603140878549,0-1.152365711077437-.252234554784081-1.152365711077437-.576182855538718,0-.323948300752818.611863093681677-.539796078026484,1.008231679774326-.611863093681677,2.195924359304627-.43204882423197,2.340058390613194-.97219817194491,2.48348588254521-2.195924359308265.072067015655193-.755997124986607.324301570441094-4.356168480473571.324301570441094-11.484090906113124,0-3.060375277457752-.144134031303111-4.896317828185602-.2522345547859-5.400080398388127-.17946099976507-.792030632812384-.395662046723373-1.080298695424972-2.26799137495982-1.440280504004477-.46772906237311-.071713745969646-.900131156291536-.287914792928859-.900131156291536-.683930109334142,0-.28791479292795.504469109568163-.468082332059566.97219817194491-.468082332059566h2.376091898438972c1.152365711077437,0,5.544214429697604-.251881285100353,7.020175171843221-.251881285100353,2.087823835827294,0,4.104287195374127.396015316406192,5.183879351428914,1.079945425739425,1.764228804760933,1.079945425742153,2.520225929747539,2.664006691368741,2.520225929747539,4.428235496127854,0,2.736073707019386-1.872329328238266,3.923766386556963-2.843820960815719,4.572016257749056ZM182.118621151632397,1.656128281278143c-.215494507590847,0-.863391109098302.107747253795424-1.259759695190951.215847777273666-.072067015649736.036033507827597-.28826806260804.359981808581324-.32359503106818.576182855539628-.072067015655193.57582958585499-.14413403130493,1.619741503770456-.14413403130493,7.668071773349766,0,.143780761622111.17946099976507.43169555455097.395662046723373.43169555455097,1.29579320301491,0,3.348290070383882-.179814269449707,4.212387718853279-.827710870957162,1.115625663880564-.792030632812384,1.727488757564061-2.016110089859467,1.727488757564061-3.420003816354438,0-2.988308261807106-2.015756820175739-4.64408327340243-4.608049765576652-4.64408327340243ZM185.035215667470766,12.384222062402841c-.8280641406418-.468082332059566-1.872329328236447-.68428337901787-3.096055515599801-.68428337901787-.504469109575439,0-1.116332203257116.144134031306749-1.22443272673263.252234554784081-.108100523479152.108100523479152-.287561523240583.287914792928859-.287561523240583,1.691808519422921-.036033507829416.936164664120952.072067015649736,5.256299636766926.143427491935654,6.336245062508169.036033507825778.28791479292704.216201046958304.864097648465759.468435601738747,1.152012441394618.611863093683496.647896601509274,1.620094773456003,1.224079457047992,2.267991374967096,1.224079457047992,2.304024882787417,0,4.39184871861471-2.304024882789236,4.39184871861471-5.328013382737481,0-2.088177105513751-1.079592156054787-3.816019132762449-2.663653421683193-4.64408327340243Z"/>
  <path class="cls-1" d="M219.693641348259916,11.664258445242012c0,4.715797019369347-2.015756820172101,7.775819027145189-4.53598274991964,9.791929117005566-2.051790328006973,1.584061265626588-5.111812335779177,2.591939675716276-7.883566280939704,2.591939675716276-3.743952117112713,0-7.092242187500233-1.439927234321658-9.360233562460053-3.852052640588226-1.94439634389164-2.087823835829113-3.060022007777661-4.93199806632947-3.060022007777661-8.243901359206575,0-4.392201988301167,1.907656296700225-7.19998944128929,4.608049765578471-9.360233562455505,1.620094773456003-1.26011296487377,4.644083273400611-2.591939675713547,7.668071773348856-2.591939675713547,7.955633296593078,0,12.56368306216973,5.904196238272561,12.56368306216973,11.664258445242012ZM202.197606950077898,3.096055515599801c-1.223726187361535,1.188045949220395-2.519519390376445,3.779985624935762-2.519519390376445,8.064087089756867,0,5.543861160009328,3.383617038845841,11.556157921764679,8.639563405924491,11.556157921764679,1.980429851719236,0,3.240189546908368-1.008231679772507,3.671885101457519-1.475960742147436,1.51270078934067-1.511994249975032,2.77246048453344-4.608049765576652,2.77246048453344-8.46010240616306,0-2.844174230500357-1.116332203251659-7.16430920314906-3.743952117110894-9.576081339732809-1.224432726727173-1.115978933566112-3.168122531256813-1.944043074206093-4.752183796879763-1.944043074206093-1.620094773456003,0-3.24018954690473,1.007878410087869-4.068253687548349,1.83594255072785Z"/>
  <path class="cls-1" d="M219.965320588937175.43204882423106c.719963617157191,0,3.92411965624342.179814269448798,5.219912859254691.179814269448798,1.439927234321658,0,2.052496867376249-.107747253794514,3.168122531253175-.107747253794514.68393010933687,0,1.044265187600104.179814269446979,1.044265187600104.431695554547332,0,.360335078265052-.360335078263233.612216363366315-1.080298695424062.900131156292446-.539796078031941.144134031306749-.719963617162648.54014934771385-.467729062374929,1.079945425742153.719963617157191,1.476314011832073,2.627619913853778,4.572016257749056,3.743952117110894,6.192111031201421.144134031303111.180167539134345.323595031066361.108100523480971.35962853889032.036033507827597,1.0802986954277-1.224079457046173,3.636558133001017-4.716150289054895,4.392555257987624-6.011943492068895.359628538893958-.719963617161739-.180167539130707-1.152012441395527-1.296499742387823-1.404246996180518-.683930109331413-.143780761621201-.935458124746219-.539796078027393-.935458124746219-.719963617160829,0-.28791479292704.287561523242402-.503762570200706.971491632571997-.503762570200706,1.116332203257116,0,2.196630898681178.107747253794514,3.204156039086229.107747253794514.900131156289717,0,3.060022007772204-.14378076162302,3.924119656241601-.14378076162302.46772906237311,0,.900131156291536.107747253796333.900131156291536.396015316408011,0,.28791479292704-.503762570204344.647896601506545-.900131156291536.719963617160829-2.12385734365489.504115839886254-3.34829007038752,1.115978933567931-4.716150289055804,2.664006691367831-1.439927234323477,1.727842027248698-3.168122531258632,3.635851593629013-4.788217304712816,5.868162730447693-.035326968454683.071713745970555-.107393984108057.359981808580415-.035326968454683.539796078030122.287561523247859.792030632812384,3.779985624934852,6.228144539029017,5.147845843603136,8.208221121061797,1.331826710840687,1.871976058553628,2.195924359310084,2.915887976470913,4.824250812540413,3.564137847661186.647896601503817.143780761622111.863391109094664.503762570200706.827357601267067.683930109335051,0,.359981808578596-.395662046723373.539796078028303-1.187692679537577.539796078028303-.900131156291536,0-4.535982749926916-.251881285103082-6.264178046858433-.251881285103082-1.044265187594647,0-2.591586406028.180167539132526-3.096055515594344.180167539132526-.647896601511093,0-.900131156296993-.252234554784081-.900131156296993-.468082332057747,0-.287914792928859.2522345547859-.504115839887163.864097648462121-.719963617160829.504469109575439-.180167539132526.79203063281966-.2522345547859,1.080298695429519-.432048824235608.144134031308568-.072067015651555.251528015418444-.396015316406192.144134031308568-.576182855536899-.612569633049134-1.188045949220395-3.960153164069197-6.767940617059139-4.392555257987624-7.163955933463512-.143427491935654-.180167539134345-.287561523240583-.144134031308568-.359628538895777-.072067015653374-1.044265187596466,1.224079457044354-2.772460484527983,3.52810433983359-3.564491117347643,4.788217304707359-1.43992723431802,2.340058390615013-.935458124749857,2.915887976469094.432402093920246,3.383970308526841.611863093681677.179814269449707.900131156295174.432048824235608.900131156295174.647896601509274,0,.359981808580415-.432402093918427.576182855536899-.900131156295174.576182855536899-.972198171948548,0-1.398294308939512-.14413403130493-2.622020496302866-.14413403130493-1.47596074214016,0-2.772460484527983.215847777275485-3.600524625169783.215847777275485-.863391109094664,0-1.151659171708161-.215847777275485-1.151659171708161-.467729062374929,0-.432048824233789.431695554549151-.648249871192093,1.295793203018548-.8280641406418,1.764228804753657-.396015316406192,2.154291433917024-1.548027757798991,3.01838908238642-2.520225929747539,1.079592156060244-1.188045949218576,3.52775107015259-4.139967433513448,5.400080398389036-6.695873601402127.180167539132526-.216201046960123.10810052348279-.396015316408011.072067015655193-.504115839885344-.216201046960123-.755997124986607-3.34829007038752-5.868162730448603-5.61628144534734-8.964218246050223-.900131156298812-1.223726187362445-1.728195296933336-1.655775011596234-3.096055515603439-1.943689804524183-.68393010933687-.14413403130493-1.079592156052968-.468082332058657-1.044265187600104-.720316886844557,0-.251881285100353.288268062613497-.539796078028303,1.080298695429519-.539796078028303Z"/>
  <path class="cls-1" d="M47.695624139036227,41.362805805547396v-.468185066352817h.133818985920698c.150890455979606,0,.289873561594504-.016730040657421.416949316841965-.050190121972264.126926379884935-.033374723965608.229867344337435-.103965252657872.308865572032119-.211771586076793.078806173659359-.107635618718632.118390644856845-.269302440172396.118390644856845-.484915107012057v-5.517925909656697c0-.222953398964819-.039584471197486-.388205229130108-.118390644856845-.496011562550848-.078998227694683-.107635618718632-.181939192147183-.178396862111185-.308865572032119-.211771586074974-.127075755247461-.033460081316662-.266058860862358-.050190121972264-.416949316841965-.050190121972264h-.133818985920698v-.468185066354636h2.347241775692964l2.131052946740965,6.376194066850076,2.110481825318857-6.376194066850076h2.285464393419716v.468185066354636h-.133818985921607c-.151061170679895,0-.291815441312792.018607902364238-.422092097196582.055738349741659-.130468709921843.037301162075892-.233409674374343.1114766994815-.308865572033937.222953398963-.075605273020301.1114766994815-.113226525161735.286117838180871-.113226525161735.523923416094476v5.417545665715807c0,.230464845790266.037621252141435.403228122782821.113226525161735.5183751883269.075455897659594.115317780244368.178396862112095.191371179354974.308865572033937.228501626732395.13027665588379.037301162077711.271030926516687.055738349741659.422092097196582.055738349741659h.133818985921607v.468185066352817h-2.73845585142135v-.468185066352817h.030899360805051c.150869116641843,0,.279566661545687-.016730040657421.386049956036004-.050190121972264.106333919125973-.033374723965608.190453587839329-.100294886593474.252230970113487-.200589773188767.061756042937304-.100380243942709.096027019079884-.250865252508447.10294096445341-.451540383046449v-5.952565537347255l-2.357548675741782,7.123070881907552h-.55591108311728l-2.388448036546833-7.100792613482554v5.829992382328783c0,.230464845790266.029128195787962.403228122782821.087512623387738.5183751883269.058235052237251.115317780244368.144125885969515.191371179354974.257373750469014.228501626732395.113247864501318.037301162077711.245317024740871.055738349741659.396356856083003.055738349741659h.030878021469107v.468185066352817h-2.378119797162071Z"/>
  <path class="cls-1" d="M56.960951119910533,41.362805805547396v-.468185066352817h.195596368195766c.137211940595989,0,.24708818975887-.022278268426817.329436693453317-.066920162629685.082369843032211-.044556536853634.157804401353133-.129913887145449.226495729000817-.256328122928608.068520612948305-.126328878433924.144125885968606-.308310749256634.226495729000817-.546201684521293l2.285485732757479-6.621511091590946h.80299927287615l2.326670654272675,6.900117482944552c.054842097563778.156118593684369.113226525163554.276984601699951.175003907437713.362341951991766.061777382274158.085528064992104.137211940595989.144936780796343.226495729001726.17831150476195.089113073704539.033460081314843.198967983531475.050190121972264.329436693453317.050190121972264h.133818985920698v.468185066352817h-2.831111255163705v-.468185066352817h.236802629048725c.20588192890591,0,.360314714922424-.042678675146817.463255679375834-.12820674014074.102962303790264-.085357350291815.154432786016514-.220990179906948.154432786016514-.406898488843581,0-.044556536851815-.003542330037817-.087235211998632-.010285560710145-.128121382789686-.00693528471129-.040800813438182-.015449680403435-.085357350291815-.025756580451343-.133840325257552-.010285560710145-.048226902916213-.02573524111267-.098331667537423-.046327701870723-.150485008565738l-.411785197148674-1.248436605379538h-2.707577829953152l-.391214075728385,1.170419987212881c-.020592460757143.059579430502708-.037791966840814.118988146306947-.05147048222625.178396862109366-.013827890747962.059579430504527-.024134790794051.113354561190135-.030878021468197.161581464104529-.006913945373526.048482974965737-.010306900047908.094746658824079-.010306900047908.139388553026947,0,.185822951587397.056634601918631.323248285558293.16988246641904.412446716614795.113226525163554.089198431054683.283108991583504.133754967908317.509583381247467.133754967908317h.236781289710962v.468185066352817h-2.511960122420533ZM59.236129952620104,38.141248690808425h2.326670654272675l-.638280926150401-1.9507568835852c-.068691327647684-.222953398963-.13561149027737-.434810342389028-.200760487887237-.635400115575976-.065298372975121-.200675130538002-.123533425210553-.393838814250557-.175025246775476-.579661765837955-.05147048222716-.18565223688347-.097798184096973-.367890179759343-.138961766276225-.546201684519474-.034441690842868.178311504760131-.073834108003211.351074781752686-.11841198419279.518289830974027-.044705912216159.167215049224978-.094405229423501.341941545273585-.149268666324133.523923416096295-.055012812264067.182237942875872-.123533425210553.388461301181451-.205903268243674.618670074918555l-.70005830842274,2.051137127529728Z"/>
  <path class="cls-1" d="M64.609972654983721,41.362805805547396v-.468185066352817h.133818985921607c.157804401354042,0,.300180461641503-.018437187663949.427256216888964-.055738349741659.126905040548081-.037130447377422.228096179319436-.113183846488027.303701452339737-.228501626732395.07543455832274-.115147065544079.113247864502227-.287910342536634.113247864502227-.5183751883269v-5.462187559916856c0-.222953398964819-.039584471198395-.388205229130108-.118390644855936-.496011562550848-.078998227695593-.107635618718632-.181939192148093-.178396862111185-.308865572033937-.211771586074974-.12707575524837-.033460081316662-.266058860861449-.050190121972264-.416949316841055-.050190121972264h-.133818985921607v-.468185066354636h3.150262387906878c.706801539097796,0,1.310832828442472.154326089328606,1.811901813996883.46263683858524.500919610191886.308396106607688.883597950890362.757973270598086,1.147885646733812,1.348816849322247.264138320480015.590758221374927.396356856083003,1.309808540238009.396356856083003,2.156980241892597,0,.810041254275347-.125304590228552,1.514239394187825-.37576439532495,2.112423705037145-.250609180458923.598269668200373-.622852585084729,1.060906506785614-1.117007625264705,1.387825158406486-.494155040180885.327089366319342-1.115385835610141.490463334779633-1.863372296224043.490463334779633h-3.150262387906878ZM67.523432413843693,40.794325852599286c.549018477080608,0,1.003759760763387-.1318771062015,1.364095815023575-.39580203330479.360314714922424-.263668855055585.631366980775965-.650166937179165.813306172924058-1.159238174323036.181768477447804-.508985879794636.272802091535596-1.131497035477878.272802091535596-1.867192037647328,0-.735695002173088-.091033614087792-1.356157581447405-.272802091535596-1.861643809879752-.181939192148093-.505230156382822-.452991458001634-.889850376801405-.813306172924058-1.153689946553641-.360336054260188-.26375421240482-.811705722606348-.395716675957374-1.353788914976576-.395716675957374h-.905961576667323v6.83328267766592h.895654676620325Z"/>
  <path class="cls-1" d="M72.094318522005779,41.362805805547396v-.468185066352817h.133818985919788c.150890455981425,0,.289873561593595-.016730040657421.416949316842874-.050190121972264.126926379884935-.033374723965608.229867344337435-.103965252657872.308865572033028-.211771586076793.07880617365754-.107635618718632.118390644855936-.269302440172396.118390644855936-.484915107012057v-5.473284015455647c0-.237805577913605-.037813306180396-.412446716612976-.113247864501318-.523923416094476-.07560527302121-.1114766994815-.176796411792566-.185652236887108-.303701452340647-.222953398963-.127075755247461-.037130447377422-.269451815534921-.055738349741659-.427256216889873-.055738349741659h-.133818985919788v-.468185066354636h5.188659930904578l.05147048222625,1.9507568835852h-.535339961696991l-.05147048222625-.479366879242662c-.013827890747052-.163373968460292-.053241647244249-.31385897702603-.118390644855936-.451455025697214-.065319712311066-.137425333970896-.16134673139004-.248902033452396-.288273111274975-.334430098446319-.12707575524837-.08527199294258-.293394552292739-.128121382789686-.499297820535503-.128121382789686h-1.729553310301526v2.965143634461128h2.481082100952335v.546201684523112h-2.481082100952335v3.333033814220471h1.98692706077054c.219581783627291,0,.396356856083003-.042678675146817.530197181341464-.128206740138921.133818985922517-.08527199294258.236781289710962-.19674869242408.308844232696174-.334344741095265.072062942984303-.137425333970896.118390644855936-.287995699887688.138983105613988-.451540383048268l.072062942985212-.479281521893427h.535339961696081l-.072062942984303,1.9507568835852h-5.518096624358805Z"/>
  <path class="cls-1" d="M81.184556238092227,41.362805805547396v-.468185066352817h.133818985921607c.157804401353133,0,.300180461640593-.018437187663949.427256216888964-.055738349741659.126905040547172-.037130447377422.228096179319436-.113183846488027.303701452340647-.228501626732395.075434558320012-.115147065544079.113247864499499-.287910342536634.113247864499499-.5183751883269v-5.417545665715807c0-.237805577913605-.037813306179487-.412446716612976-.113247864499499-.523923416094476-.07560527302121-.1114766994815-.176796411793475-.185652236887108-.303701452340647-.222953398963-.12707575524837-.037130447377422-.269451815535831-.055738349741659-.427256216888964-.055738349741659h-.133818985921607v-.468185066354636h2.995829601890364v.468185066354636h-.133840325258461c-.151039831342132,0-.291794101975029.018607902364238-.422092097195673.055738349741659-.130447370584989.037301162075892-.233409674375253.1114766994815-.308844232696174.222953398963-.07560527302212.1114766994815-.113247864500408.286117838180871-.113247864500408.523923416094476v5.417545665715807c0,.230464845790266.037642591478289.403228122782821.113247864500408.5183751883269.075434558320921.115317780244368.178396862111185.191371179354974.308844232696174.228501626732395.130297995220644.037301162077711.271052265853541.055738349741659.422092097195673.055738349741659h.133840325258461v.468185066352817h-2.995829601890364Z"/>
  <path class="cls-1" d="M84.96268595541369,41.362805805547396v-.468185066352817h.133818985920698c.157804401354042,0,.300180461641503-.018437187663949.427256216889873-.055738349741659.126905040547172-.037130447377422.228096179318527-.113183846488027.303701452340647-.228501626732395.075434558320921-.115147065544079.113247864499499-.287910342536634.113247864499499-.5183751883269v-5.462187559916856c0-.222953398964819-.039584471196576-.388205229130108-.118390644855026-.496011562550848-.078998227695593-.107635618718632-.181939192148093-.178396862111185-.308865572033028-.211771586074974-.12707575524837-.033460081316662-.266058860862358-.050190121972264-.416949316841965-.050190121972264h-.133818985920698v-.468185066354636h1.883964756981186l3.685602349603869,6.164422480773283v-4.938264143820561c0-.222953398964819-.039563131861541-.388205229130108-.118390644855936-.496011562550848-.078976888357829-.107635618718632-.181939192148093-.178396862111185-.308844232695265-.211771586074974-.12707575524837-.033460081316662-.266058860861449-.050190121972264-.416949316841055-.050190121972264h-.133840325258461v-.468185066354636h2.58404440474169v.468185066354636h-.133840325258461c-.151039831342132,0-.291794101975029.018607902364238-.422092097196582.055738349741659-.130468709920933.037301162075892-.233409674373434.1114766994815-.308844232696174.222953398963-.075605273020301.1114766994815-.113247864500408.286117838180871-.113247864500408.523923416094476v6.688345896869578h-.730936329891847l-3.860627596379345-6.420835961051125v5.150035729897354c0,.230464845790266.037642591479198.403228122782821.113247864501318.5183751883269.075455897658685.115317780244368.178396862111185.191371179354974.308865572033028.228501626732395.13027665588379.037301162077711.271030926515778.055738349741659.422092097196582.055738349741659h.133818985920698v.468185066352817h-2.584023065404836Z"/>
  <path class="cls-1" d="M96.647253636953792,41.362805805547396v-.468185066352817h.236781289710962c.150890455979606,0,.289873561592685-.016730040657421.416949316841055-.050190121972264.126926379884935-.033374723965608.229867344337435-.103965252657872.308844232696174-.211771586076793.078827512994394-.107635618718632.118390644855026-.269302440172396.118390644855026-.484915107012057v-6.186700749200099h-.988310080361771c-.302101002022027,0-.51137588560141.091076292763319-.627995365438437.273058163587848-.116790194538225.182237942874053-.188853137522528.395716675955555-.216188828953818.640948343345372l-.05147048222716.479366879242662h-.535339961695172l.05147048222625-1.9507568835852h5.796062835584962l.05147048222716,1.9507568835852h-.535339961696991l-.05147048222716-.479366879242662c-.027506406130669-.245231667389817-.099569349115882-.458710400471318-.216188828951999-.640948343345372-.116790194538225-.181981870824529-.329436693455136-.273058163587848-.63828092615131-.273058163587848h-.998616980408769v6.130962399460259c0,.230464845790266.037642591479198.403228122782821.113247864500408.5183751883269.075434558321831.115317780244368.178375522774331.191371179354974.308844232697083.228501626732395.130297995220644.037301162077711.271052265853541.055738349741659.422092097195673.055738349741659h.236781289710962v.468185066352817h-3.201732870133128Z"/>
  <path class="cls-1" d="M101.804950189040028,41.362805805547396v-.468185066352817h.133818985919788c.157804401354042,0,.300180461642412-.018437187663949.427256216889873-.055738349741659.126905040548081-.037130447377422.228096179319436-.113183846488027.303701452340647-.228501626732395.075434558320921-.115147065544079.113247864500408-.287910342536634.113247864500408-.5183751883269v-5.462187559916856c0-.222953398964819-.039584471197486-.388205229130108-.118390644855026-.496011562550848-.078998227695593-.107635618718632-.181939192148093-.178396862111185-.308865572033028-.211771586074974-.12707575524928-.033460081316662-.266058860863268-.050190121972264-.416949316842874-.050190121972264h-.133818985919788v-.468185066354636h2.995829601890364v.468185066354636h-.133840325258461c-.151039831343041,0-.291794101975029.018607902364238-.422092097196582.055738349741659-.130447370585898.037301162075892-.233409674375253.1114766994815-.308844232695265.222953398963-.07560527302121.1114766994815-.113247864500408.286117838180871-.113247864500408.523923416094476v2.251726900716676h3.345858756101734v-2.251726900716676c0-.237805577913605-.037791966840814-.412446716612976-.113247864500408-.523923416094476-.07560527302212-.1114766994815-.176775072455712-.185652236887108-.303701452340647-.222953398963-.12707575524837-.037130447377422-.269430476198067-.055738349741659-.4272348775512-.055738349741659h-.133840325258461v-.468185066354636h2.995850941228127v.468185066354636h-.133840325258461c-.151061170680805,0-.291794101974119.018607902364238-.422092097196582.055738349741659-.130468709922752.037301162075892-.233409674375253.1114766994815-.308844232696174.222953398963-.075605273020301.1114766994815-.113247864499499.286117838180871-.113247864499499.523923416094476v5.473284015455647c0,.215612666839661.039413756496288.377279488293425.118390644855026.484915107012057.078806173656631.107806333418921.181768477448713.178396862111185.308844232695265.211771586076793.126926379884026.033460081314843.26588814616116.050190121972264.416949316841965.050190121972264h.133840325258461v.468185066352817h-2.995850941228127v-.468185066352817h.133840325258461c.157804401353133,0,.30015912230283-.018437187663949.4272348775512-.055738349741659.126926379884935-.037130447377422.228096179318527-.113183846488027.303701452340647-.228501626732395.075455897659594-.115147065544079.113247864500408-.287910342536634.113247864500408-.5183751883269v-2.608435267587993h-3.345858756101734v2.608435267587993c0,.230464845790266.037642591479198.403228122782821.113247864500408.5183751883269.075434558320012.115317780244368.178396862109366.191371179354974.308844232695265.228501626732395.130297995221554.037301162077711.271052265853541.055738349741659.422092097196582.055738349741659h.133840325258461v.468185066352817h-2.995829601890364Z"/>
  <path class="cls-1" d="M109.968847261077826,41.362805805547396v-.468185066352817h.133818985921607c.150890455977787,0,.289873561592685-.016730040657421.416949316839236-.050190121972264.126926379885845-.033374723965608.229867344338345-.103965252657872.308865572034847-.211771586076793.07880617365754-.107635618718632.118390644855026-.269302440172396.118390644855026-.484915107012057v-5.473284015455647c0-.237805577913605-.037813306179487-.412446716612976-.113247864500408-.523923416094476-.07560527302212-.1114766994815-.176796411794385-.185652236887108-.303701452340647-.222953398963-.127075755247461-.037130447377422-.269451815535831-.055738349741659-.427256216888054-.055738349741659h-.133818985921607v-.468185066354636h5.188659930904578l.051470482225341,1.9507568835852h-.535339961696081l-.05147048222625-.479366879242662c-.013827890747052-.163373968460292-.053241647245159-.31385897702603-.118390644855936-.451455025697214-.065319712311066-.137425333970896-.16134673139004-.248902033452396-.288273111275885-.334430098446319-.127075755246551-.08527199294258-.293394552292739-.128121382789686-.499297820535503-.128121382789686h-1.729553310301526v2.965143634461128h2.481082100951426v.546201684523112h-2.481082100951426v3.333033814220471h1.98692706077145c.219581783627291,0,.396356856082093-.042678675146817.530197181341464-.128206740138921.133818985921607-.08527199294258.236781289711871-.19674869242408.308844232696174-.334344741095265.072062942985212-.137425333970896.118390644855936-.287995699887688.138983105613079-.451540383048268l.072062942984303-.479281521893427h.5353399616979l-.072062942985212,1.9507568835852h-5.518096624357895Z"/>
  <path class="cls-1" d="M122.39463683321992,41.474282505030715c-.542253907071427,0-1.007280751466169-.083650203287107-1.394952497155828-.250779895161031-.387842460391767-.167215049223159-.684629967357978-.436517489393736-.890511896262979-.808248749917766-.205903268242764-.371475188474506-.308865572034847-.85826815719156-.308865572034847-1.460293548805566v-4.325142296669583c0-.222953398964819-.039563131860632-.388205229130108-.118390644855026-.496011562550848-.078976888358739-.107635618718632-.181917852811239-.178396862111185-.308844232697083-.211771586074974-.127075755246551-.033460081316662-.266058860861449-.050190121972264-.416949316841055-.050190121972264h-.133818985919788v-.468185066354636h2.995829601892183v.468185066354636h-.13384032526119c-.151039831340313,0-.29179410197321.018607902364238-.422092097196582.055738349741659-.130447370584079.037301162075892-.233409674374343.1114766994815-.308844232695265.222953398963-.07560527302121.1114766994815-.113247864501318.286117838180871-.113247864501318.523923416094476v4.347420565098219c0,.646496571114767.16117601669248,1.105463043639247.48386947947256,1.37664334551846.322522748079791.271436373928736.734307945227556.406898488843581,1.235376930781058.406898488843581.397978645740295,0,.724043723857903-.074175537403789.978024519652536-.222953398964819.25385275976987-.148521789507868.442684557954635-.354745147815265.566239322502952-.618670074920374.123533425210553-.263668855051947.185289468146948-.562931725178714.185289468146948-.897361823623214v-4.436618996152902c0-.222953398964819-.039563131862451-.388205229130108-.118390644855026-.496011562550848-.078976888358739-.107635618718632-.181917852811239-.178396862111185-.308844232697083-.211771586074974-.12707575524837-.033460081316662-.26605886085963-.050190121972264-.416949316841055-.050190121972264h-.133818985921607v-.468185066354636h2.584023065406654v.468185066354636h-.133840325257552c-.151039831343951,0-.291794101976848.018607902364238-.422092097198401.055738349741659-.130447370585898.037301162075892-.233388335038399.1114766994815-.308844232695265.222953398963-.07560527302121.1114766994815-.113247864501318.286117838180871-.113247864501318.523923416094476v4.414340727727904c0,.490463334779633-.096176394443319.914006506931401-.288251771937212,1.270714873804536-.192224752858237.356708366873136-.475333744439922.631729749513397-.849326974746873.824893433227771-.374163945009059.193163683710736-.835669798701929.289873561592685-1.384688275782537.289873561592685Z"/>
  <path class="cls-1" d="M128.592156626567885,41.474282505030715c-.336350638828662,0-.633138145794874-.037301162077711-.890511896262979-.111476699483319-.257373750469924-.074175537403789-.471962129106032-.18198187082271-.643445045843691-.323248285558293-.171632292100185-.141095700031656-.300329837004028-.308310749254815-.386049956036004-.501645147667659-.08591217306639-.193163683712555-.128697544902025-.404935269787529-.128697544902025-.635400115577795,0-.148607146858922.029128195788871-.278691748704659.087512623387738-.390168448186159.058235052236341-.111476699483319.142354720948788-.198711911481951.252230970112578-.261961708047238.10970553446532-.063079081866817.243524520386927-.094746658825898.40149963643853-.094746658825898.013678515386346.304811097894344.068520612949214.592721440430978.164718346728478.86390174231019.096027019078974.27135101658132.243545859721053.490463334781452.442684557954635.657678384004612.198989322867419.167215049223159.459734688674871.250865252510266.782406812117188.250865252510266.45973468867669,0,.820070742936878-.120695293315293,1.080986823440981-.362341951991766.260745365807452-.241390586628768.391192736391531-.588880359669929.391192736391531-1.042213247072141,0-.274850667941791-.049870031907631-.507193375438874-.149268666322314-.696686693087031-.099569349116791-.18957867500103-.26428769584345-.366012318054345-.494155040181795-.529557001214926-.230038059038634-.163373968460292-.547418026764717-.334430098446319-.952289278537137-.51274160320645-.425634427236218-.193163683712555-.779035196781479-.401350261076004-1.060373023346983-.624218302689769-.281508541263975-.222953398963-.490783424846086-.484915107010238-.627995365441166-.785885124143533-.13738265529355-.301055374480711-.205903268240945-.655800522297795-.205903268240945-1.064576872846374,0-.423628529502821.097798184096973-.785885124143533.293415891630502-1.086855141275009.195596368193947-.300970017131476.463255679374925-.531264148221453.80299927287524-.691138465319455.33972225416619-.159703602397713.725793549538139-.239683439620421,1.158171207443957-.239683439620421.411806536485528,0,.760064525678899.059579430504527,1.044944682280402.17831150476195.284730781238977.118988146306947.502690775210795.273143520935264.653730606552926.46263683858524.150890455979606.189493317648157.226495729002636.392046309892976.226495729002636.607573619381583,0,.237890935264659-.07383410800503.417994944380553-.221352948647109.540568099402662-.147668216006423.122658512369526-.344865034519898.183945089878762-.591953224278768.183945089878762,0-.230208773738923-.036042141160578-.453162172701923-.108105084145791-.668774839541584-.072062942983393-.215527309488607-.192224752856418-.393838814248738-.360314714922424-.535105228982502-.168260676764476-.141095700033475-.396356856081184-.211771586076793-.684608628020214-.211771586076793-.398128021101002,0-.706972253798085.115317780244368-.926554037425376.34552655398511-.219731158989816.230464845788447-.329436693453317.53894630974537-.329436693453317.925273677168661,0,.297299651070716.049699317207342.548079546229928.149268666324133.752425042830509.099419973752447.204430853949816.265909485498923.38649808212358.499319159873266.546201684521293.233238959674054.159874317098001.548997137742845.328796513325869.947125158845665.507193375437055.404892591113821.178396862111185.749757625631901.373438407530557,1.034637782233403.585209993605531.284730781238977.211856943426028.502690775207157.455296106460082.653730606551107.730146774401874.150890455981425.27502138264208.226495729002636.60578111502582.226495729002636.992108482449112,0,.475696513181902-.102940964454319.878924635962903-.308844232695265,1.209513653646354-.205903268244583.330759732381921-.499297820537322.585209993603712-.880226335555562.763606855716716-.380907175680477.178311504760131-.828734513990639.267509935816634-1.343482014928668.267509935816634Z"/>
  <path class="cls-1" d="M131.649678253383172,41.362805805547396v-.468185066352817h.195596368195766c.137211940593261,0,.24708818975887-.022278268426817.329436693453317-.066920162629685.08236984303403-.044556536853634.157804401353133-.129913887145449.226495729000817-.256328122928608.068520612947395-.126328878433924.144125885966787-.308310749256634.226495729000817-.546201684521293l2.28548573275657-6.621511091590946h.802999272877059l2.326670654274494,6.900117482944552c.05484209756105.156118593684369.113226525161735.276984601699951.17498256809813.362341951991766.061798721611922.085528064992104.137254619270607.144936780796343.226495729002636.17831150476195.089113073705448.033460081314843.199010662205183.050190121972264.329436693453317.050190121972264h.133840325257552v.468185066352817h-2.831132594503288v-.468185066352817h.236823968389217c.205881928905001,0,.360293375582842-.042678675146817.463234340037161-.12820674014074.102983643128027-.085357350291815.154454125355187-.220990179906948.154454125355187-.406898488843581,0-.044556536851815-.003542330037817-.087235211998632-.010285560712873-.128121382789686-.006913945371707-.040800813438182-.015449680402526-.085357350291815-.025735241109942-.133840325257552-.0103282393884-.048226902916213-.025735241115399-.098331667537423-.046349041211215-.150485008565738l-.411806536487347-1.248436605379538h-2.707556490615389l-.391214075725657,1.170419987212881c-.020592460758053.059579430502708-.037791966844452.118988146306947-.05147048222716.178396862109366-.013827890747052.059579430504527-.02413479079587.113354561190135-.030878021469107.161581464104529-.006913945373526.048482974965737-.010306900046999.094746658824079-.010306900046999.139388553026947,0,.185822951587397.05663460192045.323248285558293.169882466419949.412446716614795.113226525163554.089198431054683.283108991583504.133754967908317.509583381246557.133754967908317h.236781289710052v.468185066352817h-2.511960122419623ZM133.924857086092743,38.141248690808425h2.326649314934912l-.638259586810818-1.9507568835852c-.068712666987267-.222953398963-.135632829616952-.434810342389028-.200760487889056-.635400115575976-.065298372974212-.200675130538002-.123554764548317-.393838814250557-.175025246777295-.579661765837955-.051470482223522-.18565223688347-.097819523434737-.367890179759343-.138961766273496-.546201684519474-.034441690842868.178311504760131-.073834108003211.351074781752686-.118433323530553.518289830974027-.044684572878396.167215049224978-.09440522942532.341941545273585-.149247326986369.523923416096295-.055012812264977.182237942875872-.123554764548317.388461301181451-.205924607582347.618670074918555l-.700036969084977,2.051137127529728Z"/>
  <path class="cls-1" d="M144.301984893863846,41.474282505030715c-.459905403376979,0-.844184194391346-.046519755909685-1.153049766428012-.139303195677712-.308822893357501-.092868797119081-.555889743776788-.215527309488607-.741200551265138-.367890179761162-.185310807482892-.152277512921501-.317572021760498-.321370423851477-.396356856081184-.507193375438874-.078998227696502-.185652236885289-.118390644856845-.367890179759343-.118390644856845-.546201684521293,0-.252572399514975.054842097564688-.455125391759793.164697007390714-.607573619381583.109726873801264-.152192155572266.25385275976987-.261961708047238.432377657905818-.328796513325869.178396862113004-.066920162629685.367079284935244-.100380243944528.566217983163369-.100380243944528,0,.423628529501002.060006217257978.778544392018375.180189366468767,1.064576872848193.120012434512319.286203195530106.286501946256976.501645147669478.499297820537322.646581928465821.212667838253765.144851423447108.456363073339162.217319813844369.73095766922961.217319813844369.404849912438294,0,.718879604164613-.115147065544079.941961039152375-.34552655398511.222953398963-.230294131088158.334600813146608-.516411969269029.334600813146608-.858353514540795,0-.252572399514975-.063548547293976-.469892213359344-.190474927176183-.652130156233397-.127054415912426-.181981870824529-.317529343088609-.349196920047689-.571339424184771-.501645147669478-.25402347446834-.152192155572266-.573174607214241-.31385897702603-.957453398230427-.484915107012057-.480476524795449-.215441952137553-.861383700477745-.440273212807369-1.142721527041431-.674408424662033-.281508541263975-.234049854501791-.482269029153031-.494133700842212-.60228146366353-.780251539023084-.120140470535262-.286032480829817-.180146687791421-.611243985444162-.180146687791421-.97537844179169,0-.453247530052977.109726873801264-.847257059003823.329436693453317-1.181687157450142.219581783627291-.334344741095265.519911620633138-.594428587435686.900818796311796-.780251539023084.380907175680477-.185652236885289.811535007907878-.278691748704659,1.292011532701508-.278691748704659.507833555566322,0,.923011707389378.057616211446657,1.245705170169458.172763276992555.32252274808161.115317780244368.561053863473717.269473154872685.715465310151558.46263683858524.154454125355187.193334398412844.231659848694107.412446716612976.231659848694107.657678384002793,0,.26025456104253-.104733468808263.479366879242662-.313987013050792.657678384002793-.209466937618345.178396862113004-.526825566004845.267509935818453-.952289278538956.267509935818453,0-.207930505313925-.036020801822815-.430883904276925-.108105084143972-.668774839541584-.072084282322976-.237805577915424-.187060633164947-.442065717164951-.344886373857662-.613121847150978-.157953776715658-.170885415285738-.370621614969423-.256413480279662-.638302265486345-.256413480279662-.274551917216741,0-.513125711284374.087491284049975-.715465310153377.261961708049057-.202552992243.174726496046787-.303701452339737.429176757268579-.303701452339737.763606855714897,0,.208101220014214.044556536853634.401264903726769.133840325257552.579661765837955.089113073705448.178311504760131.257352411133979.355001219866608.504419261553267.529471643863872.247109529096633.174726496048606.600488959309587.362341951991766,1.060394362684747.562931725178714.473562579420104.208186577363449.8544697551024.423628529501002,1.142721527041431.646581928465821.288294450612739.222953398963.497547994855267.473733294122212.62801670477711.752425042826872.130297995219735.278691748704659.195596368193947.600232887258244.195596368193947.964281986254719,0,.475611155830848-.115019029519317.897276466275798-.344886373855843,1.265166646035141-.230038059038634.367890179761162-.55431063280048.655971236998084-.972860399959245.86390174231019-.418720481859054.20801586266316-.912896861376794.312151830021321-1.48248645987951.312151830021321Z"/>
  <path class="cls-1" d="M147.905174721759977,41.362805805547396v-.590843578724161h.432377657905818c.102983643128027,0,.19384654251553-.016644683306367.272844770210213-.05010476462121.078827512996213-.033460081314843.140583555932608-.102087390951056.18531080748653-.206223358307398.044556536851815-.103965252656053.066920162627866-.260083846340422.066920162627866-.468185066354636v-5.328432592008539c0-.215441952137553-.022363625776052-.373438407528738-.066920162627866-.473733294122212-.044727251553923-.100380243944528-.106483294490317-.167215049224978-.18531080748653-.200675130538002-.078998227694683-.033460081314843-.169861127082186-.050190121972264-.272844770210213-.050190121972264h-.432377657905818v-.590758221374927h3.551762024346317v.590758221374927h-.432377657905818c-.096197733779263,0-.185310807484711.016730040657421-.267680650518741.050190121972264-.082369843030392.033460081313024-.145875711648841.100294886593474-.190432248502475.200675130538002-.044727251552104.100294886593474-.066920162627866.258291341984659-.066920162627866.473733294122212v5.328432592008539c0,.208101220014214.022192911075763.364219813698583.066920162627866.468185066354636.044556536853634.104135967356342.108062405472083.172763276992555.190432248502475.206223358307398.08236984303403.033460081314843.171482916739478.05010476462121.267680650518741.05010476462121h.432377657905818v.590843578724161h-3.551762024346317Z"/>
  <path class="cls-1" d="M152.033312253955955,41.362805805547396v-.590843578724161h.432377657905818c.09606969775632,0,.183560981806295-.016644683306367.262559209500978-.05010476462121.078784834320686-.033460081314843.142333381612843-.102087390951056.190432248500656-.206223358307398.047928152191162-.103965252656053.072084282324795-.260083846340422.072084282324795-.468185066354636v-5.372989128862173c0-.200675130536183-.024156130133633-.349282277395105-.072084282324795-.445906797926-.048098866887813-.09653916318166-.11164741417997-.159703602397713-.190432248500656-.189493317649976-.078998227694683-.029619000551975-.166489511744658-.044641894202869-.262559209500978-.044641894202869h-.432377657905818v-.590758221374927h2.28548573275657l3.634131867376709,5.562482446512149v-4.291682215358378c0-.200675130536183-.024156130129995-.349282277395105-.072084282319338-.445906797926-.048098866891451-.09653916318166-.111604735508081-.159703602397713-.190432248504294-.189493317649976-.078998227692864-.029619000551975-.166489511744658-.044641894202869-.262516530823632-.044641894202869h-.432420336579526v-.590758221374927h2.687006708531044v.590758221374927h-.432377657905818c-.096197733781082,0-.183731696506584.016730040657421-.262559209500978.050190121972264-.078955549020975.033460081313024-.142504096314951.100294886593474-.190432248502475.200675130538002-.048098866889632.100294886593474-.072084282321157.258291341984659-.072084282321157.473733294122212v6.643789360015944h-.947125158845665l-4.015039043057186-6.142144212346466v4.826787444339061c0,.208101220014214.023985415429706.364219813698583.072084282321157.468185066354636.047928152185705.104135967356342.1114766994815.172763276992555.190432248500656.206223358307398.078827512996213.033460081314843.166318797044369.05010476462121.262516530825451.05010476462121h.432420336581345v.590843578724161h-2.687006708532863Z"/>
  <path class="cls-1" d="M163.985688622038651,41.474282505030715c-.796256042203822,0-1.458501044447985-.170885415285738-1.986905721434596-.51274160320645-.528575391685081-.341770830573296-.923182422087848-.819345205458376-1.183949127231244-1.432467052609354-.260894741169977-.613121847152797-.391192736389712-1.332086808664826-.391192736389712-2.156980241890778,0-.802615164800955.133840325257552-1.51048367077783.401520975774474-2.123605517928809.267637971843214-.613036489799924.665616617579872-1.092403369042586,1.19419200926859-1.437929923025877.528447355660319-.345611911334345,1.180406797193427-.5183751883269,1.956049039301433-.5183751883269.528404676986611,0,.965946454585719.057616211446657,1.312625332799144.172763276992555.34646548483579.115317780244368.605610400323712.269473154872685.77726403176348.46263683858524.171482916737659.193334398412844.257352411130341.412446716612976.257352411130341.657678384002793,0,.27502138264208-.109854909824207.505486228432346-.329436693451498.691138465317636-.219709819653872.185822951587397-.538860952397954.278691748706478-.957410719556719.278691748706478,0-.245231667389817-.034441690842868-.486707611367819-.102940964454319-.724598546634297-.068712666983629-.23772022056437-.185310807482892-.434724985039793-.350050493547315-.590758221373108-.164697007390714-.156118593686188-.39119273639335-.234135211852845-.679444508328743-.234135211852845-.432420336581345,0-.777306710440826.132047820901789-1.034659121571167.395716675955555-.257395089805868.263924927105109-.441084107635106.644789424110058-.550768302760844,1.14259349101485-.109897588501553.497974781606899-.164739686064422,1.107426262695299-.164739686064422,1.828183728566728,0,.713416733744452.066920162627866,1.308016035882247.200760487887237,1.783541834360221.133840325259371.475696513180083.353422108884843.832404880053218.658873386906635,1.070125100617588.30532324199703.237976292615713.711965658791087.356708366871317,1.219969929057697.356708366871317.336179924124735,0,.624431696063766-.053775130685608.864755315811635-.16158146410271.24015290504758-.107635618720451.444285008272345-.243353805684819.612567024372765-.4068984888454.168068622728242-.163373968458473.310444683016613-.326918651619053.427213538216165-.490463334779633.054884776236577.044556536851815.097819523434737.1114766994815.128718884239788.200589773186948.030856682131343.089198431056502.04630636253205.182237942874053.04630636253205.278691748704659,0,.156118593684369-.039563131858813.319663276846768-.118390644851388.490548692130687-.078998227696502.170970772636792-.207674433264401.33075973238374-.386071295375586.479281521893427-.178524898137766.148777861559211-.416927977501473.269473154872685-.715507988827085.362341951991766-.298537332648266.092783439768027-.667537157964034.139303195677712-1.106700725216797.139303195677712Z"/>
  <path class="cls-1" d="M167.022745824120648,41.362805805547396v-.590843578724161h.432377657905818c.096069697754501,0,.183560981806295-.01476682160137.262559209500978-.044556536851815.078784834320686-.029619000551975.142333381611024-.092868797119081.190432248500656-.189493317649976.047928152191162-.09653916318166.072084282322976-.241390586626949.072084282322976-.434724985039793v-5.384170941750199c0-.215441952137553-.022363625777871-.373438407528738-.066920162629685-.473733294122212-.044727251552104-.100380243944528-.106483294490317-.167215049224978-.185310807484711-.200675130538002-.078998227694683-.033460081314843-.169861127080367-.050190121972264-.272844770210213-.050190121972264h-.432377657905818v-.590758221374927h5.713692992552751l.041184921517925,2.051051770178674h-.720629429844848l-.051470482225341-.523923416096295c-.013827890747052-.185652236885289-.046349041209396-.339978326213895-.097819523436556-.462551481234186-.05147048222716-.122658512369526-.121932974892843-.217405171195423-.211046048596472-.284239976474055-.089283788409375-.066920162629685-.20588192890682-.100380243944528-.350007814875426-.100380243944528h-1.729553310302435v2.786832129700997h2.43989717943623v.668860196890819h-2.43989717943623v3.143540496572314h2.058990003755753c.13721194059508,0,.250438465758634-.037130447377422.339722254164371-.1114766994815.089113073705448-.074260894754843.159575566372951-.174555781348317.211046048598291-.300970017131476.051470482225341-.126328878433924.087491284049975-.271180301879212.108105084145791-.434810342390847l.082369843032211-.523923416094476h.710343869133794l-.072084282322976,2.051137127527909h-6.032844125296833Z"/>
  <path class="cls-1" d="M177.132299678061827,41.362805805547396v-.590843578724161h.844184194393165c.11664081917661,0,.212667838255584-.022278268424998.288294450612739-.066834805278631.075413218983158-.044641894204688.132047820903608-.118817431606658.169861127082186-.222953398964819.037642591480108-.103965252656053.056591923244923-.248902033452396.056591923244923-.434724985039793v-5.584846072286382c-.260894741169977.341941545271766-.495926205197975.620633293976425-.705179749442323.836075246115797-.209424258940999.215612666837842-.416970656180638.323248285556474-.62285258508382.323248285556474-.164739686064422,0-.305451278019973-.074175537403789-.422092097196582-.222953398963-.116768855199552-.148521789509687-.175025246775476-.349196920047689-.175025246775476-.601940034264771.205924607582347-.059408715802419.437541777600927-.148521789507868.694936867406795-.267509935814815.25735241113216-.118817431608477.554139918100191-.315822196082081.890490556927034-.59084357872598l.720672108518556-.579661765836136h1.153007087750666v6.688431254218813c0,.156033236335134.013699854724109.288081057236923.041184921517925.395716675957374.027357030767234.107806333418921.078827512994394.189493317648157.154411446677841.245231667389817.075455897656866.055738349741659.18531080748653.083564845936053.329436693455136.083564845936053h.833898633680292v.590843578724161h-4.251820332769057Z"/>
  <path class="cls-1" d="M184.225452808694172,41.474282505030715c-.411806536487347,0-.741243229940665-.061286577511055-.988310080361771-.183945089880581-.247066850421106-.122573155020291-.42563442723258-.280398895711187-.535361301035664-.473733294124031-.109854909824207-.193163683712555-.164697007387076-.393838814248738-.164697007387076-.601940034262952,0-.163373968460292.041184921516106-.300970017131476.123554764548317-.412446716612976.082327164356684-.1114766994815.20925354424071-.185737594236343.380907175678658-.222953398964819.068499273611451.222953398964819.15441144667966.423543172151767.25735241113216.601940034262952.102940964454319.17831150476195.235031464029817.321541138553584.396356856083003.429176757272216.161197356028424.107806333418921.355171934565078.16158146410271.581667663567714.16158146410271.452991458003453,0,.799456942841061-.271180301879212,1.03978056258893-.813711620337926.240195583723107-.542360603758425.377407524318187-1.348816849322247.411806536485528-2.418941949939835-.1029409644525.141266414735583-.224873939343524.269473154874504-.365457495276132.384534863067529-.140754270632897.115317780246187-.300329837004028.206223358307398-.478726699117033.273143520937083-.178567576811474.066834805278631-.384449505716475.100294886593474-.617688465390529.100294886593474-.391192736389712,0-.739621440285191-.087235211998632-1.044944682280402-.261961708049057-.305451278021792-.174470423995444-.544025072091245-.434724985037974-.715507988827085-.780251539023084-.17161095276424-.345611911334345-.25735241113216-.767277221779295-.25735241113216-1.265252003386195,0-.535105228982502.094234514723212-1.004997442343665.28308765224574-1.410103426829664.18868242282042-.405020627138583.459734688674871-.720757465871429.813327512261822-.947551945597297.353379430211135-.226623765027398.773721701727482-.339978326215714,1.261112171896457-.339978326215714.500919610190977,0,.943582828806029.130084601845738,1.328075013201669.390168448186159.384278791014367.260169203691476.687980243357742.665189830830059.911104357019212,1.215061881413931.222910720289292.55004276528598.3345581344729,1.263459499030432.3345581344729,2.140250201235176,0,.60945148108658-.055012812263158,1.183565019155139-.164697007388895,1.722255256850985-.109897588501553.538860952396135-.283130330921267,1.01071638481335-.519911620631319,1.415737011951933-.236781289711871.405105984487818-.542232567733663.722806042276716-.916268476716141.95301481601382-.374121266329894.230464845790266-.825362898653111.345611911336164-1.353767575637903.345611911336164ZM184.709300948827149,37.494666762342604c.240195583723107,0,.446077512628108-.068627309634394.617731144067875-.206223358307398.171440238062132-.137425333969077.305280563319684-.317700057788898.401478297098947-.540653456751897-.006913945371707-.631559034813108-.055012812264977-1.146178499726375-.144125885970425-1.5438583947398-.089283788403918-.397509180313136-.211046048596472-.691138465317636-.365457495276132-.880631782967612-.154454125353368-.189493317649976-.338143143182606-.284239976474055-.550810981436371-.284239976474055-.192224752858237,0-.358714264604714.070675886043318-.499297820537322.211771586074974-.140754270632897.141266414735583-.247066850419287.35116013910374-.319151132742263.6298518878084-.072041603647449.278691748704659-.108062405470264.626181521745821-.108062405470264,1.042213247072141,0,.512826960557504.082327164356684.902995408743664.247066850421106,1.170505344560297.164697007388895.267509935816634.404892591112002.40126490372495.720629429844848.40126490372495Z"/>
  <path class="cls-1" d="M188.641884791502889,41.362805805547396v-.590843578724161h.844184194393165c.116640819174791,0,.212667838253765-.022278268424998.28829445061092-.066834805278631.075413218984977-.044641894204688.132047820903608-.118817431606658.169861127084005-.222953398964819.037642591478289-.103965252656053.056591923243104-.248902033452396.056591923243104-.434724985039793v-5.584846072286382c-.260894741169977.341941545271766-.495926205197975.620633293976425-.705179749442323.836075246115797-.209424258940999.215612666837842-.416970656177.323248285556474-.622852585082001.323248285556474-.164739686066241,0-.305451278021792-.074175537403789-.422092097198401-.222953398963-.116768855199552-.148521789509687-.175025246773657-.349196920047689-.175025246773657-.601940034264771.205924607580528-.059408715802419.437541777599108-.148521789507868.694936867406795-.267509935814815.257352411130341-.118817431608477.554139918098372-.315822196082081.890490556927034-.59084357872598l.720672108516737-.579661765836136h1.153007087752485v6.688431254218813c0,.156033236335134.01369985472229.288081057236923.041184921517925.395716675957374.027357030767234.107806333418921.078827512992575.189493317648157.154411446677841.245231667389817.075455897658685.055738349741659.185310807484711.083564845936053.329436693453317.083564845936053h.83389863368393v.590843578724161h-4.251820332770876Z"/>
  <path class="cls-1" d="M194.68497179883525,41.362805805547396l2.738434512084496-6.744084246609418h-2.295771293467624c-.185310807484711,0-.326065078115789.048397617616502-.422092097196582.144936780798162-.096197733779263.096624520529076-.154411446677841.237890935264659-.175025246773657.423543172149948l-.061756042936395.557383497409319h-.617688465392348l.051470482225341-2.340925331771359h4.910693719677511v.546201684521293l-2.841418155210704,7.412944443502056h-1.286847413010037Z"/>
</svg>