<?xml version="1.0" encoding="UTF-8"?>
<svg id="Layer_1" xmlns="http://www.w3.org/2000/svg" version="1.1" viewBox="0 0 1097.1 215.7">
  <!-- Generator: Adobe Illustrator 29.5.0, SVG Export Plug-In . SVG Version: 2.1.0 Build 137)  -->
  <defs>
    <style>
      .st0 {
        fill: #f2f0ed;
      }
    </style>
  </defs>
  <path class="st0" d="M20,108v-6.7h4.2c3,0,5.6-.6,7.7-1.7,2.2-1.1,3.3-3.8,3.3-8.1V9.5h-13.7c-4.4,0-7.4,1.1-9.1,3.4-1.7,2.3-2.7,5.1-3.1,8.3l-.9,7.2H0L.7,1.6h86.4l.7,26.8h-8.3l-.9-7.2c-.4-3.3-1.4-6.1-3.1-8.3-1.7-2.3-4.8-3.4-9.2-3.4h-13.7v81.4c0,4.6,1.1,7.5,3.2,8.6,2.1,1.2,4.7,1.8,7.7,1.8h4.2v6.7H20Z"/>
  <path class="st0" d="M95.7,108v-6.7h3.1c3.1,0,5.7-.6,7.8-1.8,2.1-1.2,3.2-4.1,3.2-8.6V18.2c0-4.3-1.1-7-3.3-8.1-2.2-1.1-4.8-1.7-7.7-1.7h-3.1V1.6h45.6v6.7h-3.1c-3,0-5.6.6-7.7,1.8-2.2,1.2-3.3,4.1-3.3,8.6v29.8h45.9v-29.8c0-4.6-1.1-7.5-3.2-8.6-2.1-1.2-4.7-1.8-7.8-1.8h-3.1V1.6h45.6v6.7h-3.1c-3,0-5.6.6-7.7,1.8-2.2,1.2-3.3,4.1-3.3,8.6v72.9c0,4.3,1.1,7,3.4,8,2.2,1.1,4.8,1.6,7.7,1.6h3.1v6.7h-45.6v-6.7h3.1c3.1,0,5.7-.6,7.8-1.8,2.1-1.2,3.2-4.1,3.2-8.6v-34.4h-45.9v34.4c0,4.6,1.1,7.5,3.3,8.6,2.2,1.2,4.8,1.8,7.7,1.8h3.1v6.7h-45.6Z"/>
  <path class="st0" d="M214.9,108v-6.7h3.1c3,0,5.6-.5,7.7-1.6,2.2-1.1,3.3-3.8,3.3-8V18.8c0-4.6-1.1-7.5-3.2-8.6-2.1-1.2-4.7-1.8-7.8-1.8h-3.1V1.6h77.2l.7,26.4h-8.5l-.7-6.6c-.4-3.4-1.5-6.2-3.3-8.5-1.8-2.3-4.7-3.4-8.8-3.4h-25v39h35.8v7.7h-35.8v43.8h29.1c4.2,0,7.2-1.2,9.2-3.5,1.9-2.3,3.2-5.1,3.7-8.4l1-6.6h8.5l-1,26.4h-82Z"/>
  <path class="st0" d="M398.6,109.5c-10.7,0-19.6-2.3-26.7-6.9-7.1-4.6-12.4-11-15.9-19.2-3.5-8.2-5.2-17.9-5.2-28.9s1.8-20.6,5.3-28.8c3.5-8.1,8.8-14.5,15.9-19,7.1-4.5,16-6.8,26.7-6.8s18.7,2.3,25.9,6.8c7.1,4.5,12.5,10.9,16.2,19.1,3.7,8.2,5.6,17.8,5.6,28.8s-1.9,20.6-5.6,28.8c-3.7,8.2-9.1,14.6-16.2,19.1-7.1,4.6-15.8,6.9-26,6.9ZM398.6,101c10.6,0,18.1-4.1,22.4-12.2,4.3-8.1,6.5-19.5,6.5-34.1s-2.2-25.9-6.5-34c-4.3-8.1-11.7-12.1-22.3-12.1s-18,4-22.5,12.1c-4.5,8.1-6.7,19.4-6.7,34s2.2,26,6.6,34.1c4.4,8.1,11.9,12.2,22.4,12.2Z"/>
  <path class="st0" d="M460,108v-6.7h3.1c3,0,5.6-.5,7.7-1.6,2.2-1.1,3.3-3.8,3.3-8V18.2c0-4.3-1.1-7-3.3-8.1-2.2-1.1-4.8-1.7-7.7-1.7h-3.1V1.6h42.3c13.2,0,23,2.4,29.4,7.2,6.4,4.8,9.6,11.9,9.6,21.3s-1.1,9.7-3.2,13.3c-2.1,3.6-4.8,6.6-8.1,8.8-3.3,2.2-6.7,4-10.1,5.3l19.7,31.7c2.5,4.1,4.9,7.1,7.2,9.1,2.3,2,5,3,8.1,3h.6v6.7h-3c-6.2,0-11-.3-14.5-1-3.5-.6-6.4-1.9-8.7-3.9-2.3-1.9-4.5-4.8-6.7-8.6l-19.4-33.4h-11.8v30.4c0,4.3,1.1,7,3.4,8,2.2,1.1,4.8,1.6,7.7,1.6h3.1v6.7h-45.6ZM491.4,53.8h10c8.2,0,13.9-1.9,16.9-5.7,3-3.8,4.5-9.5,4.5-17.1s-1.7-13.4-5-16.8c-3.3-3.3-8.9-5-16.8-5h-9.7v44.6Z"/>
  <path class="st0" d="M559.8,108v-6.7h3.1c3.1,0,5.7-.6,7.8-1.8,2.1-1.2,3.2-4.1,3.2-8.6V18.8c0-4.6-1.1-7.5-3.2-8.6-2.1-1.2-4.7-1.8-7.8-1.8h-3.1V1.6h45.6v6.7h-3.1c-3,0-5.5.6-7.7,1.8-2.1,1.2-3.2,4.1-3.2,8.6v72.1c0,4.6,1.1,7.5,3.2,8.6,2.1,1.2,4.7,1.8,7.7,1.8h3.1v6.7h-45.6Z"/>
  <path class="st0" d="M671.2,109.5c-11.7,0-21.5-2.3-29.2-6.9-7.7-4.6-13.5-11-17.4-19.1-3.8-8.2-5.7-17.8-5.7-28.8s2-20.2,6-28.4c4-8.2,10-14.6,17.9-19.2,7.9-4.6,17.7-6.9,29.3-6.9s20,1.6,25.6,4.8c5.7,3.2,8.5,7.2,8.5,12s-1.4,5.9-4.2,8c-2.8,2-6.5,3.1-11.1,3.1,0-3.3-.6-6.4-1.9-9.4-1.3-3-3.4-5.4-6.2-7.3-2.8-1.9-6.6-2.8-11.2-2.8-12.1,0-20.8,4-25.9,12.1-5.2,8-7.7,19.4-7.7,34.1s2.7,26,8.1,34c5.4,7.9,14.6,11.9,27.6,11.9s5-.1,7.4-.4c2.5-.2,4.7-.7,6.7-1.3v-23.4c0-4.3-1.1-7.1-3.4-8.3-2.2-1.3-5-1.9-8.4-1.9h-.9v-6.7h41v6.7h-1c-2.9,0-5.2.7-7.1,2-1.8,1.3-2.8,4.3-2.8,8.9v26.2c-5.3,2.4-10.6,4.2-16.1,5.4-5.5,1.2-11.4,1.8-17.9,1.8Z"/>
  <path class="st0" d="M724.4,108v-6.7h3.1c3.1,0,5.7-.6,7.8-1.8,2.1-1.2,3.2-4.1,3.2-8.6V18.8c0-4.6-1.1-7.5-3.2-8.6-2.1-1.2-4.7-1.8-7.8-1.8h-3.1V1.6h45.6v6.7h-3.1c-3,0-5.5.6-7.7,1.8-2.1,1.2-3.2,4.1-3.2,8.6v72.1c0,4.6,1.1,7.5,3.2,8.6,2.1,1.2,4.7,1.8,7.7,1.8h3.1v6.7h-45.6Z"/>
  <path class="st0" d="M780.5,108v-6.7h3.1c3.1,0,5.7-.6,7.8-1.8,2.1-1.2,3.2-4.1,3.2-8.6V18.2c0-4.3-1.1-7-3.3-8.1-2.2-1.1-4.8-1.7-7.7-1.7h-3.1V1.6h28.9l53.2,80.2V18.2c0-4.3-1.1-7-3.4-8.1-2.2-1.1-4.8-1.7-7.7-1.7h-3.1V1.6h37.8v6.7h-3.1c-3,0-5.6.6-7.7,1.8-2.2,1.2-3.3,4.1-3.3,8.6v89.3h-11.3l-56.5-84.8v67.6c0,4.6,1.1,7.5,3.2,8.6,2.1,1.2,4.7,1.8,7.7,1.8h3.1v6.7h-37.8Z"/>
  <path class="st0" d="M890.1,108v-6.7h2.5c2.8,0,5-.7,6.6-2.2,1.6-1.5,3.2-4.6,4.9-9.2L937.1,1.6h14l32.9,91c1.3,3.5,2.7,5.8,4.3,6.9,1.6,1.1,3.8,1.7,6.6,1.7h2.1v6.7h-43.2v-6.7h4c2.6,0,4.6-.5,6.1-1.6,1.5-1.1,2.2-2.8,2.2-5.2s-.1-1.8-.4-2.7c-.2-.9-.5-1.9-.8-3l-5.8-16.2h-38.4l-5.2,14.9c-1,2.7-1.5,5-1.5,7,0,4.6,3,6.9,8.9,6.9h4.3v6.7h-37.1ZM923.6,64.7h32.6l-8.8-25.6c-1.4-4.1-2.7-8.1-4-12.1-1.3-4-2.3-7.7-3.1-11.3-.8,3.5-1.7,7-2.8,10.5-1.1,3.5-2.5,7.4-4.2,11.7l-9.7,26.8Z"/>
  <path class="st0" d="M1002.2,108v-6.7h3.1c3.1,0,5.7-.6,7.8-1.8,2.1-1.2,3.2-4.1,3.2-8.6V18.8c0-4.6-1.1-7.5-3.2-8.6-2.1-1.2-4.7-1.8-7.8-1.8h-3.1V1.6h45.6v6.7h-3.1c-2.9,0-5.4.6-7.6,1.7-2.2,1.1-3.3,3.9-3.3,8.1v81.9h28.9c4.2,0,7.2-1.4,9.2-4.1,1.9-2.7,3.2-5.8,3.7-9.2l1.8-11.2h7.9l-1,32.3h-82Z"/>
  <path class="st0" d="M541.2,148.2c2.3-1.6,6.1-4.4,6.1-10.4,0-4.3-2.2-8.3-6-10.5-2.5-1.6-7-2.5-11.9-2.5s-5.3.2-8.6.3c-2.9.1-5.7.3-6.9.3h-5.3c-1.5,0-3,.6-3,1.9s1,2.1,2.7,2.3c4,.8,4.1,1.2,4.4,2.5.5,3.9.6,7.8.5,11.8,0,17.6-.7,25-.7,25.3-.3,2.4-.4,3.3-4.8,4.1-.7.1-2.9.6-2.9,2.2s1.4,2.1,3.4,2.1.9,0,1.5,0c1.2,0,2.6,0,4.5,0,3.8,0,12.4.2,14.6.2s10.5-.7,14.7-3.6c4.7-3.1,7.1-7.3,7.1-12.2,0-6.2-3.2-10.8-9.4-13.6ZM529.5,173.4c-1.1,0-3.2-1.1-4.4-2.4-.4-.6-.7-1.3-.8-2.1-.2-2.4-.4-11.9-.3-14,0-1,0-2.1.3-3.1.7-.3,1.5-.4,2.2-.4,2.2,0,4.4.4,6.4,1.4h0c3.5,1.9,5.6,5.6,5.4,9.5,0,5.9-4.1,11-8.9,11ZM532.8,145.6c-1.5,1.1-5.5,1.7-8.7,1.7,0,0-.1-.1-.1-.1,0-13.2.2-15.6.3-16.8,0-.2.2-.5.3-.7.8-.2,1.6-.3,2.4-.4,5.7,0,9.4,3.7,9.4,9.4,0,2.7-1.2,5.3-3.5,6.9Z"/>
  <path class="st0" d="M606.7,173.4c-2.3-.7-3.9-1.2-6.6-7.6-1.5-3.8-6.8-18-11.4-30.7l-.6-1.8c-.9-2.7-2-5.7-2.6-7.2h0c-.6-1.5-1.1-2.3-2.1-2.3-.9,0-1.7.6-2.1,1.4-.3.5-1.3,1.7-2.1,2.7-.6.7-1.1,1.3-1.4,1.8-.3.4-.6.9-.8,1.4-.1.5-.3,1-.5,1.4-1.4,3.3-3.7,9.3-6.2,15.5-3.2,8.1-6.5,16.5-7.6,18.6-2.3,4.6-3,5.6-6.7,6.7-1.2.3-2.6.9-2.6,2.4s.5,1.8,3.1,1.8,1.3,0,2.4-.1c1.6,0,3.7-.2,5.5-.2s3.1,0,4.3,0c.8,0,1.5,0,2.1,0,2,0,3.2-.7,3.2-1.9,0-1.7-2.1-2.2-2.9-2.4-2.9-.8-3.1-1.7-3.1-2.7s.2-3.5,3.3-11.1c.1-.2.2-.3.4-.4,1.7-.1,5.7-.3,13.3-.2.4,0,.8.3,1.1.6l.5,1.5c1.6,4.4,3,8.2,3.1,10,.1.9.2,1.8-2.5,2.4-2,.4-2.7,1.4-2.7,2.2s.9,2,3.4,2,2.2,0,3.5,0c1.4,0,2.9,0,4.3,0s3.5,0,5.7.2c1.9,0,3.8.1,4.7.1,2.5,0,3.5-1.1,3.5-2,0-1.3-1.5-1.9-2.7-2.2ZM584.1,153.3c-2.8,0-7.8,0-10.6.2.6-2,3.2-9,4.8-13.3l.5-1.4c1.4,3.4,4.1,11.1,5.3,14.5Z"/>
  <path class="st0" d="M672.2,124.9c-.9,0-2,0-3.3.2-2.4.2-5.1.3-8.3.2-1,0-2,0-3,0-1.9,0-3.1.7-3.1,1.8,0,1.8,2.2,2.4,3.2,2.6,3.6.9,4.2,2.3,4.3,3.8.2,2,.5,5.7.5,8.3s0,3.9,0,5.9c0,4.6,0,9.3-.1,11.4-.8-.8-1.8-1.9-3-3.1-6.3-6.6-16.9-17.7-20.1-21.6-1.8-2-3.2-3.7-4.4-5-1-1.1-1.8-2-2.4-2.7,0,0-1.5-1.3-2.3-1.3-2.4,0-5.7-.1-8.3-.2-1.7,0-3.1-.1-3.8-.1-1.9,0-3.2.8-3.2,2s1.9,2,2.7,2.2c3.5.8,4.2,1.7,5.3,3.1l.3.4c0,0,.3.7.3,4s-.4,11.2-.8,18.6c-.2,4.1-.5,8.1-.6,11.3-.2,5.4-1.7,5.9-5.2,7-.6.2-2.3.7-2.3,2.2s1.2,1.9,2.9,1.9,2,0,3.4-.1c1.6,0,3.3-.1,4.2-.1,1.4,0,2.6,0,3.7.2,1.1,0,2.1.2,3.2.2,2.9,0,3.5-1.1,3.5-2,0-1.5-2.1-2.1-2.8-2.3-3.5-1.1-4.2-2.2-4.4-4.4-.3-3.1-.3-7.6-.2-15.1v-5.8c.1-5.5.3-7.6.4-9.5,2.9,3.3,6.6,7.4,10.5,11.8,6,6.6,12.1,13.5,16.5,18.8l.6.8c1.8,2.2,3.2,3.9,4.5,5.6.3.3,2.6,3.4,5,3.4,1.2-.2,2-1.2,2.1-2.3,0-.9,0-2.8-.2-4.9-.1-2.7-.3-5.7-.3-7.5,0-6.9.6-26.9.8-29.7.4-3.1.7-4.1,4.3-5.3,1.9-.5,2.6-1.6,2.6-2.4,0-.3-.1-1.9-2.7-1.9Z"/>
  <path class="st0" d="M734.2,173.7c-3.4-.7-4.7-1.3-7.1-3.7-4.9-5.1-17.7-20-19.9-23.1,3.9-4.2,8.1-8.2,12.5-11.9l.6-.5c3.2-2.6,5.8-4.6,10-5.4,2.3-.4,3.5-1.3,3.5-2.4s-.4-1.9-3.1-1.9-2.3,0-4,.2c-2.5.1-5.6.3-8.7.3h-3.3c-2.1,0-2.8,1-2.8,1.9,0,1.4,1.9,1.9,2.5,2.1,1.7.4,2,.9,2,1,0,.2,0,.6-1.1,1.9-3.8,4.6-13.9,14.7-16.5,16.7-.2.1-.4.3-.5.4,0-3.8-.1-13.1,0-15.9.1-3.2.6-3.4,3.3-4.1,1-.3,2.7-.8,2.7-2.2s-.9-1.9-3.4-1.9-2.4,0-3.9.1c-1.7,0-3.5.1-4.7.1s-3.1,0-4.7-.1c-1.5,0-2.8-.1-3.7-.1-1.6,0-3.2.6-3.2,1.9s1.7,2.1,2.9,2.4c2.6.7,3.2,1.2,3.3,4.7,0,.7,0,1.2,0,1.7,0,1.7.2,3.8.2,13.6s0,14.6-.2,17.9c-.3,4.5-.9,5.3-4.5,6-1.1.3-2.9.7-2.9,2.3s1.6,2,3,2,3,0,4.6-.2c1.6,0,3.2-.2,4.4-.2s3.6,0,5.7,0c1.8,0,3.4,0,4.2,0,1.7,0,3.4-.7,3.4-2s-1-1.9-2.9-2.4c-3.4-.9-3.4-2-3.4-2.7v-2.1c-.2-3.5-.4-9.4-.3-14.5,0-.3,0-.5,0-.7.3.3.7.8,1.2,1.4l.8,1c3.7,4,11.8,14.1,14.1,17.4h0c-2.7.9-3.9,1.4-3.9,2.5s.7,2.1,2.7,2.1,1.6,0,2.5,0c1.1,0,2.4,0,4,0s4,.2,6.8.3c2.9.2,5.6.3,6.7.3s3.1-.6,3.1-2.1c0-.9-1.2-1.9-2.3-2.2Z"/>
  <path class="st0" d="M783.8,163.5c-1.2,0-2.2,1.3-3.2,3.2-1.2,2.5-3.3,4.4-5.8,5.5-1.9.7-4.7.7-7,.7-2.1,0-4.2-.1-6.3-.5-.5-.3-.9-.7-1.1-1.3-.2-1.5-.3-3-.3-4.5,0-.7,0-1.3,0-1.9-.1-3.6,0-7.2.1-10.8.1-.1.2-.3.4-.4,2.4,0,5.3,0,7.8.2,2.8.2,3.5.6,4.4,3.8.2.8,1,2.3,2.3,2.3.4,0,.8-.2,1.1-.5.6-.8.9-1.8.7-2.8v-1.1c-.2-1.5-.3-2.6-.3-4.2s0-2.5.2-3.9v-1.5c.2-.9,0-1.9-.5-2.7-.2-.3-.6-.4-1-.4-1.3,0-2.1,1.5-2.5,2.6l-.2.5c-1.2,2.7-1.2,2.8-6,2.8h-6.3c0-4.5.2-15.4.3-17.4,0-.5,0-1,.2-1.4,7.1,0,9.9.2,10.9.5,2.2.4,3.7,2.1,4.4,5.2.2,1.1,1,2.7,2.3,2.7s2.1-1.6,2.1-3.1c0-4.7,0-7.6,0-8.6-.1-.6-.4-1.1-.9-1.5-.3-.2-.6-.3-.9-.2-2.3.3-4.6.4-6.9.5h-11.9c-2.1,0-4.9,0-7.5-.1-2.5,0-5-.1-6.9-.1s-3.3.7-3.3,2,1.9,2,3.2,2.2c2.8.5,3.4,1.6,3.5,4.3.1,1.6.1,3.9,0,8.5,0,1.9,0,4.1,0,6.8,0,9.1-.3,15.1-.6,19.2-.3,3.9-1,4.4-4.8,5.3-1.9.5-3,1.3-3,2.4,0,1.9,2.7,1.9,3.5,1.9,1.3,0,2.1,0,3.2-.2,1.4-.1,2.9-.2,5.9-.2,4.3,0,15.9.2,22.1.3,2.4,0,4.1,0,4.4,0,1,0,2-.6,2.6-1.5,1.3-3.1,2.3-6.3,3.1-9.5.2-1,0-1.9-.5-2.8-.2-.3-.6-.5-1-.5Z"/>
  <path class="st0" d="M841.7,173.5c-2.5-.4-4.8-1.7-6.4-3.7-3.9-4.6-10.4-15.4-11.9-18.6,0,0,0,0,0-.1.6-.3,2.6-1.3,3.1-1.7h0c4-3.2,5.9-6.7,5.9-10.9,0-3.9-1.7-7.5-4.6-10.1-3-2.5-7.7-3.7-14.4-3.7s-5.5.1-8.2.2c-2.2,0-4.4.2-5.7.2h-5.8c-1.8,0-3.1.8-3.1,1.9s.9,1.8,2.6,2.3c3.5.8,3.9,1.8,4,3.3.2,2.2.4,9,.4,17.3s0,13.4-.5,19.5c-.1,2.1-.7,2.8-4.2,3.9-1.7.5-2.5,1.2-2.5,2.1s.6,2.1,3.4,2.1,1.1,0,2,0c1.6,0,3.9-.2,5.6-.2s4.1.1,5.9.3c1.5.1,3,.2,4.3.2s3.3-.6,3.3-2-.4-1.7-2.5-2.3c-3.4-.9-3.6-1.4-3.8-4.4-.2-3.7-.4-14.2-.3-15.6,0,0,.1-.1,0-.2,1.2,0,2.4.3,3.4.9.9.9,1.7,1.9,2.3,3.1,3.1,5.3,7.3,12.1,9.7,15.3,2.7,3.7,6.8,5.5,12.7,5.5,1.9,0,3.7-.2,5.6-.7.8-.2,1.9-1,1.9-2,0-.9-1.1-1.7-2.1-1.9ZM808.6,130.7c.1-.4.3-.8.5-1.1.9-.3,1.8-.4,2.7-.5,2.2,0,4.3.9,5.9,2.5h0c2,2.1,3.1,4.9,3.2,7.9,0,3.2-1.5,6.3-4.1,8.2-2.6,1.1-5.3,1.7-8.1,1.6-.1,0-.2-.1-.3-.3-.3-2,0-15.9.2-18.4Z"/>
  <path class="st0" d="M870.9,146.8c-7.3-4.6-10.3-6.9-10.3-11.1,0-4,3.2-7.3,7.3-7.5,2.1,0,4.2.7,5.8,2,1.5,1.5,2.6,3.3,3.2,5.3.5,1.3,1.7,2.3,3.1,2.4.7,0,1.5-.5,1.5-2.7s0-.5-.2-2.2c-.2-1.8-.6-4.7-.6-5.5-.2-.9-.8-1.7-1.5-2.2h-.2c-.5-.2-1.1-.3-1.8-.4-2.7-.6-5.5-.9-8.3-1-5.8,0-10,1.3-13.2,4-3.3,2.8-5.1,6.8-5.2,11.1,0,7.6,4.7,12.1,12.9,17.5,7.2,4.7,8.6,7.6,8.6,10.6,0,4.7-4.3,7.1-7.4,7.1-4.5-.1-8.5-2.8-10.3-6.9-2.3-4.8-3.5-4.8-3.8-4.8-1,0-2.1,1.6-2.1,2.5.2,2.9.6,5.8,1.4,8.6.6,1.2,1.4,2.2,2.6,3,3.7,1.5,7.7,2.2,11.8,2.1,4,0,8-1,11.6-3,4.4-2.6,7.2-7.3,7.4-12.4,0-4.6-1.4-10.1-12.1-16.6Z"/>
  <path class="st0" d="M944.7,148.2c2.3-1.6,6.1-4.4,6.1-10.4,0-4.3-2.2-8.3-6-10.5-2.5-1.6-7-2.5-11.9-2.5s-5.3.2-8.6.3c-2.9.1-5.7.3-6.9.3h-5.3c-1.5,0-3,.6-3,1.9s1,2.1,2.7,2.3c4,.8,4.1,1.2,4.4,2.5.5,3.9.6,7.8.5,11.8,0,17.6-.7,25-.7,25.3-.3,2.4-.4,3.3-4.8,4.1-.7.1-2.9.6-2.9,2.2s1.4,2.1,3.4,2.1.9,0,1.5,0c1.2,0,2.6,0,4.5,0,3.8,0,12.4.2,14.6.2s10.5-.7,14.7-3.6c4.7-3.1,7.1-7.3,7.1-12.2,0-6.2-3.2-10.8-9.4-13.6ZM933.1,173.4c-1.1,0-3.2-1.1-4.4-2.4-.4-.6-.7-1.3-.8-2.1-.2-2.4-.4-11.9-.3-14,0-1,0-2.1.3-3.1.7-.3,1.5-.4,2.2-.4,2.2,0,4.4.4,6.4,1.4h0c3.5,1.9,5.6,5.6,5.4,9.5,0,5.9-4.1,11-8.9,11ZM936.3,145.6c-1.5,1.1-5.5,1.7-8.7,1.7,0,0-.1-.1-.1-.1,0-13.2.2-15.6.3-16.8,0-.2.2-.5.3-.7.8-.2,1.6-.3,2.4-.4,5.7,0,9.4,3.7,9.4,9.4,0,2.7-1.2,5.3-3.5,6.9Z"/>
  <path class="st0" d="M989.2,123.9c-6.3.1-12.4,2.2-17.5,5.9-7.2,5.7-10.5,12.5-10.5,21.3-.2,6.9,2.3,13.7,7,18.8,5.6,5.7,13.3,8.9,21.3,8.8,6.5,0,12.7-2.1,17.9-5.9,6.9-5.5,10.3-13,10.3-22.3,0-16.7-14.5-26.6-28.6-26.6ZM991.8,174.2c-10.9,0-18.3-12.8-18.3-24.7s4.1-16,5.3-17.2h0c1.8-1.8,5.3-3.8,8.4-3.8,3.7.2,7.2,1.6,10,4.1,5.5,5.1,8,14.2,8,20.6,0,9-3.2,15.4-5.9,18.1-2,2-4.7,3.1-7.5,3h0Z"/>
  <path class="st0" d="M1073.7,173.6c-5.6-1.4-7.3-3.5-10.2-7.5-3.3-4.8-10.7-16.4-11.3-18,0-.1,0-.4,0-.4h0c2.6-3.6,5.5-7,8-9.9.9-1,1.8-2.1,2.6-3,2.8-3.1,5.2-4.5,10-5.6,1.1-.2,2.7-1.2,2.7-2.4s-.3-1.7-2.8-1.7-2.6,0-4.3.2-3.4.2-4.4.2-2.2,0-3.3-.1c-1.2,0-2.5-.1-3.8-.1-2.8,0-3,1.5-3,1.9,0,.7.7,2,2.7,2.4,1.9.4,2.3,1,2.4,1.2,0,0,.1.3,0,.7-2.9,4.5-6,8.7-9.3,12.8-2.9-4.3-5.6-8.7-8-13.2-.2-.3-.2-.6-.1-.8.1-.2.4-.3.7-.4,1.4-.6,2.9-1.3,2.9-2.8s-.3-1.8-3.1-1.8-2.1,0-3.1.1c-1.1,0-2.3.1-3.9.1s-4.6-.1-7.2-.2c-1.9,0-3.6-.2-4.3-.2-2.4,0-3.2,1.1-3.2,1.9-.2,1.1,1,2.1,3,2.5,2.6.4,4.9,1.8,6.4,4,4.9,6.8,11.9,18.1,12.3,19.6q0,.2,0,.3c-4.1,5.6-9.5,12.2-11.9,14.7-2.3,2.6-5.3,4.4-8.6,5.3-1.2.3-3.5.7-3.5,2.6s.6,1.9,3.4,1.9,1.8,0,2.9-.2c1.5-.1,3.2-.3,5-.3s3,0,4.5.2c1.4,0,2.7.1,3.7.1,1.6,0,2.8-.9,2.8-2.1s-.3-1.6-2.5-2.2c-1.4-.5-2-.9-2.2-1.5-.3-.9.2-2.4,1.7-4.8,2.3-3.5,4.8-6.9,7.5-10.1,1.2,1.5,8,12.7,9.4,15.5,0,0,0,.1,0,.2-.5.3-1,.5-1.5.6l-.7.3c-1.1.4-2.5,1-2.5,2.4s.9,1.9,2.8,1.9,1.3,0,2.4-.1c1.4-.1,3.2-.2,4.5-.2,2.2,0,5.9.2,8.9.3,2.2.1,4.1.2,5,.2,2.9,0,3.5-1.1,3.4-1.9.2-.9-.6-2.1-2.4-2.5ZM1044.4,156.7c0,0-.1,0-.2,0l.5-.6h0l-.4.7Z"/>
  <path class="st0" d="M1097.1,134.3c0,4.7-3.8,8.6-8.5,8.6-4.6,0-8.3-3.7-8.3-8.3,0,0,0-.2,0-.3,0-4.7,3.8-8.4,8.4-8.4,4.6,0,8.3,3.6,8.4,8.1,0,.1,0,.2,0,.3ZM1082,134.3c-.1,3.7,2.8,6.9,6.5,7,0,0,.2,0,.2,0,3.7,0,6.7-2.9,6.7-6.6,0-.1,0-.2,0-.4.1-3.8-2.9-6.9-6.6-7.1,0,0,0,0,0,0-3.9,0-6.8,3-6.8,7.1h0ZM1086.1,132.3c0-1.1-.2-1.2-.8-1.4-.9-.4-.4-.7,0-.7,1.2-.1,2.5-.2,3.7-.2,2,0,3.3.9,3.3,2.3s-1.1,1.5-1.4,1.7c0,0-.1.1,0,.3,1.3,2.3,2,3.1,2.4,3.3.3.1.5.4.5.4,0,.2-.4.4-1.1.4-.9,0-1.6-.4-2.1-1.2-.4-.7-.9-1.5-1.3-2.2,0-.2-.3-.3-.7-.3s-.5,0-.5.3v.8c0,1.2,0,1.2,1.2,1.6.5.2.4.7,0,.7-.7,0-1.4,0-2,0s-1.1,0-2,0-.6-.4-.1-.7c.7-.3,1-.6,1-1.4v-3.9ZM1088,133.5c0,.3,0,.4.7.4,1.1,0,1.4-.6,1.4-1.4s-.4-1.6-1.3-1.6-.7,0-.7.4v2.3Z"/>
  <path class="st0" d="M921.7,215.7c-1.1,0-2.2-.1-3.2-.4-.8-.2-1.5-.5-2.1-1-.5-.4-.9-.9-1.2-1.4-.2-.5-.4-1.1-.4-1.6,0-.5.1-1.1.4-1.5.3-.4.7-.7,1.1-.9.5-.2,1-.3,1.5-.3,0,1,.2,1.9.5,2.8.6,1.6,2.1,2.6,3.8,2.5,1.1,0,2.2-.3,3-1,.7-.7,1.1-1.6,1.1-2.6,0-.7-.2-1.3-.5-1.9-.4-.6-1-1.1-1.7-1.4-.9-.5-1.9-1-2.9-1.4-1.2-.5-2.3-1.1-3.4-1.9-.8-.6-1.4-1.3-1.9-2.2-.4-.9-.6-1.9-.6-2.9,0-1.2.3-2.3,1-3.2.7-.9,1.6-1.7,2.6-2.1,1.2-.5,2.5-.8,3.8-.7,1.2,0,2.4.1,3.6.5.8.2,1.5.7,2.1,1.3.5.5.7,1.1.7,1.8,0,.7-.3,1.3-.9,1.7-.7.5-1.6.7-2.5.7,0-.6-.1-1.3-.3-1.9-.2-.6-.6-1.2-1.1-1.7-.6-.5-1.3-.7-2-.7-.9,0-1.8.3-2.4.8-.7.6-1,1.4-1,2.3,0,.6.1,1.3.4,1.8.4.6.9,1.1,1.5,1.5,1,.6,2,1.1,3.1,1.5,1.2.5,2.3,1,3.4,1.7.8.5,1.5,1.3,2,2.1.4.8.7,1.8.6,2.8,0,1.2-.3,2.5-1,3.5-.7,1-1.7,1.8-2.9,2.3-1.4.6-2.9.9-4.4.8Z"/>
  <path class="st0" d="M932.4,215.4v-1.5h1c.3,0,.7,0,1-.1.3-.1.6-.3.7-.6.2-.4.3-.9.3-1.4v-15.2c0-.5,0-1-.3-1.4-.2-.3-.4-.5-.7-.6-.3-.1-.7-.1-1-.1h-1v-1.5h10.2v1.5h-1c-.3,0-.7,0-1,.1-.3,0-.6.3-.7.6-.2.4-.3.9-.3,1.4v15.2c0,.5,0,.9.3,1.4.1.3.4.5.7.6.3,0,.7.1,1,.1h1v1.5h-10.2Z"/>
  <path class="st0" d="M944.8,215.4v-1.5h1c.3,0,.7,0,1-.1.3-.1.6-.3.7-.6.2-.4.3-.9.3-1.4v-15.3c0-.5,0-.9-.3-1.3-.2-.3-.4-.5-.7-.5-.3,0-.6-.1-1-.1h-1v-1.5h6.5l11.2,16.3v-12.8c0-.5,0-.9-.3-1.3-.2-.3-.4-.5-.7-.5-.3,0-.6-.1-1-.1h-1v-1.5h8.1v1.5h-1c-.3,0-.7,0-1,.1-.3,0-.6.3-.7.6-.2.4-.3.9-.3,1.4v18.8h-2.6l-12.1-17.6v14c0,.5,0,.9.3,1.4.2.3.4.5.7.6.3,0,.7.1,1,.1h1v1.5h-8.1Z"/>
  <path class="st0" d="M979.8,215.7c-2,0-4-.4-5.8-1.4-1.5-1-2.7-2.4-3.5-4-.8-1.9-1.2-4-1.1-6.1,0-2.1.4-4.1,1.2-6,.8-1.7,2-3.1,3.6-4.1,1.8-1,3.8-1.5,5.8-1.5,1.3,0,2.6.1,3.8.5.9.2,1.6.7,2.3,1.3.5.5.8,1.1.8,1.8,0,.7-.3,1.4-.9,1.8-.8.5-1.7.8-2.6.7,0-.7-.1-1.3-.3-2-.2-.6-.6-1.2-1.1-1.6-.6-.5-1.3-.7-2.1-.6-1.2,0-2.5.3-3.4,1.1-.9.9-1.6,2-1.8,3.3-.4,1.7-.6,3.5-.6,5.2,0,1.7.2,3.4.6,5,.6,2.6,3.1,4.4,5.8,4.2.9,0,1.8-.1,2.6-.4.7-.3,1.3-.6,1.9-1.1.5-.4.9-.9,1.3-1.4.2.1.3.3.4.5.1.2.2.5.2.8,0,.5-.1.9-.4,1.3-.3.5-.7.9-1.2,1.3-.7.4-1.4.8-2.2,1-1.1.3-2.2.4-3.3.4Z"/>
  <path class="st0" d="M988.8,215.4v-1.5h1c.3,0,.7,0,1-.1.3,0,.6-.3.7-.6.2-.4.3-.8.3-1.3v-15.3c0-.5,0-1-.3-1.4-.2-.3-.4-.5-.7-.6-.3-.1-.7-.1-1-.1h-1v-1.5h16.8l.2,5.7h-2l-.2-1.4c0-.4-.1-.9-.3-1.3-.2-.3-.4-.6-.7-.8-.4-.2-.8-.3-1.2-.3h-5.3v8.1h7.5v1.8h-7.5v9.1h6.2c.4,0,.9,0,1.2-.3.3-.2.6-.5.8-.9.2-.4.3-.8.4-1.2l.2-1.4h2l-.2,5.7h-17.8Z"/>
  <path class="st0" d="M1018.2,215.4v-1.5h2.4c.4,0,.7,0,1-.2.3-.1.5-.3.7-.6.2-.4.3-.9.2-1.3v-16.1c-.7.8-1.4,1.6-2.2,2.4-.5.5-1.2.9-1.9.9-.5,0-.9-.2-1.2-.6-.4-.4-.5-1-.5-1.5.7-.2,1.4-.4,2.1-.8,1-.5,1.8-1,2.7-1.7l2.2-1.6h3v18.9c0,.4,0,.8.2,1.2.1.3.4.5.6.7.4.2.7.2,1.1.2h2.1v1.5h-12.6Z"/>
  <path class="st0" d="M1038.3,215.7c-1,0-2-.1-2.9-.5-.6-.2-1.2-.7-1.6-1.2-.3-.5-.5-1-.5-1.5,0-.8.5-1.5,1.3-1.7.2.5.5,1.1.8,1.5.3.4.7.8,1.2,1.1.5.3,1.1.4,1.7.4,1.5,0,2.9-.9,3.4-2.3.9-2.2,1.3-4.5,1.3-6.9-.3.4-.7.8-1.1,1.1-.5.3-1,.6-1.5.8-.6.2-1.3.3-1.9.3-1.1,0-2.2-.2-3.2-.7-.9-.5-1.7-1.2-2.2-2.2-.6-1.1-.8-2.3-.8-3.6,0-1.4.3-2.7.9-4,.5-1.1,1.4-2.1,2.4-2.7,1.1-.7,2.4-1,3.7-1,1.4,0,2.8.4,4,1.1,1.2.8,2.2,2,2.7,3.4.7,1.9,1.1,4,1,6,0,1.6-.2,3.2-.5,4.8-.3,1.4-.8,2.8-1.6,4-.7,1.1-1.6,2.1-2.8,2.7-1.2.7-2.6,1-4,1ZM1039.7,204.6c.8,0,1.5-.2,2.2-.7.6-.4,1-1,1.3-1.6,0-1.5-.1-3-.5-4.5-.2-.9-.6-1.8-1.2-2.5-.5-.5-1.2-.8-1.9-.8-.6,0-1.2.2-1.7.6-.5.5-.9,1.1-1.1,1.8-.3,1-.4,2-.4,3,0,1.2.2,2.4.8,3.5.6.8,1.5,1.2,2.4,1.1Z"/>
  <path class="st0" d="M1050.3,215.4v-1.5h2.4c.4,0,.7,0,1-.2.3-.1.5-.3.7-.6.2-.4.3-.9.2-1.3v-16.1c-.7.8-1.4,1.6-2.2,2.4-.5.5-1.2.9-1.9.9-.5,0-.9-.2-1.2-.6-.4-.4-.5-1-.5-1.5.7-.2,1.4-.4,2.1-.8,1-.5,1.8-1,2.7-1.7l2.2-1.6h3v18.9c0,.4,0,.8.2,1.2.1.3.4.5.6.7.4.2.7.2,1.1.2h2.1v1.5h-12.6Z"/>
  <path class="st0" d="M1067.8,215.4l8-19.4h-7.3c-.5,0-.9.1-1.3.4-.3.3-.5.7-.5,1.2l-.2,1.6h-1.7l.2-6.3h14.6v1.3l-8.3,21.2h-3.5Z"/>
</svg>