<?xml version="1.0" encoding="UTF-8"?>
<svg id="Layer_1" xmlns="http://www.w3.org/2000/svg" version="1.1" viewBox="0 0 343.7 83.3">
  <!-- Generator: Adobe Illustrator 29.5.0, SVG Export Plug-In . SVG Version: 2.1.0 Build 137)  -->
  <defs>
    <style>
      .st0 {
        fill: #f2f0ed;
      }
    </style>
  </defs>
  <path class="st0" d="M6.3,34.1v-2.1h1.3c.9,0,1.8-.2,2.4-.5.7-.4,1-1.2,1-2.6V3h-4.3c-1.4,0-2.3.4-2.9,1.1-.5.7-.9,1.6-1,2.6l-.3,2.3H0L.2.5h27.3l.2,8.5h-2.6l-.3-2.3c-.1-1-.5-1.9-1-2.6-.5-.7-1.5-1.1-2.9-1.1h-4.3v25.7c0,1.4.3,2.4,1,2.7.7.4,1.5.6,2.4.6h1.3v2.1H6.3Z"/>
  <path class="st0" d="M30.2,34.1v-2.1h1c1,0,1.8-.2,2.5-.6.7-.4,1-1.3,1-2.7V5.7c0-1.3-.3-2.2-1-2.6-.7-.4-1.5-.5-2.4-.5h-1V.5h14.4v2.1h-1c-.9,0-1.8.2-2.4.6-.7.4-1,1.3-1,2.7v9.4h14.5V5.9c0-1.4-.3-2.3-1-2.7-.7-.4-1.5-.6-2.5-.6h-1V.5h14.4v2.1h-1c-.9,0-1.8.2-2.4.6-.7.4-1,1.3-1,2.7v23c0,1.3.4,2.2,1.1,2.5s1.5.5,2.4.5h1v2.1h-14.4v-2.1h1c1,0,1.8-.2,2.5-.6.7-.4,1-1.3,1-2.7v-10.9h-14.5v10.9c0,1.4.3,2.4,1,2.7.7.4,1.5.6,2.4.6h1v2.1h-14.4Z"/>
  <path class="st0" d="M67.8,34.1v-2.1h1c.9,0,1.8-.2,2.4-.5.7-.3,1-1.2,1-2.5V5.9c0-1.4-.3-2.3-1-2.7-.7-.4-1.5-.6-2.5-.6h-1V.5h24.3l.2,8.3h-2.7l-.2-2.1c-.1-1.1-.5-2-1-2.7-.6-.7-1.5-1.1-2.8-1.1h-7.9v12.3h11.3v2.4h-11.3v13.8h9.2c1.3,0,2.3-.4,2.9-1.1.6-.7,1-1.6,1.2-2.7l.3-2.1h2.7l-.3,8.3h-25.9Z"/>
  <path class="st0" d="M125.7,34.5c-3.4,0-6.2-.7-8.4-2.2-2.2-1.4-3.9-3.5-5-6.1-1.1-2.6-1.6-5.6-1.6-9.1s.6-6.5,1.7-9.1c1.1-2.6,2.8-4.6,5-6,2.2-1.4,5.1-2.1,8.4-2.1s5.9.7,8.2,2.1c2.2,1.4,3.9,3.4,5.1,6s1.8,5.6,1.8,9.1-.6,6.5-1.8,9.1-2.9,4.6-5.1,6c-2.2,1.4-5,2.2-8.2,2.2ZM125.7,31.9c3.4,0,5.7-1.3,7.1-3.9,1.4-2.6,2-6.2,2-10.8s-.7-8.2-2-10.7-3.7-3.8-7-3.8-5.7,1.3-7.1,3.8-2.1,6.1-2.1,10.7.7,8.2,2.1,10.8c1.4,2.6,3.8,3.9,7.1,3.9Z"/>
  <path class="st0" d="M145.1,34.1v-2.1h1c.9,0,1.8-.2,2.4-.5.7-.3,1-1.2,1-2.5V5.7c0-1.3-.3-2.2-1-2.6-.7-.4-1.5-.5-2.4-.5h-1V.5h13.3c4.2,0,7.3.8,9.3,2.3s3,3.7,3,6.7-.3,3.1-1,4.2c-.7,1.1-1.5,2.1-2.6,2.8-1,.7-2.1,1.3-3.2,1.7l6.2,10c.8,1.3,1.5,2.2,2.3,2.9.7.6,1.6.9,2.6.9h.2v2.1h-.9c-1.9,0-3.5-.1-4.6-.3-1.1-.2-2-.6-2.7-1.2-.7-.6-1.4-1.5-2.1-2.7l-6.1-10.5h-3.7v9.6c0,1.3.4,2.2,1.1,2.5s1.5.5,2.4.5h1v2.1h-14.4ZM155,17h3.1c2.6,0,4.4-.6,5.3-1.8,1-1.2,1.4-3,1.4-5.4s-.5-4.2-1.6-5.3c-1-1-2.8-1.6-5.3-1.6h-3.1v14.1Z"/>
  <path class="st0" d="M176.6,34.1v-2.1h1c1,0,1.8-.2,2.5-.6s1-1.3,1-2.7V5.9c0-1.4-.3-2.3-1-2.7s-1.5-.6-2.5-.6h-1V.5h14.4v2.1h-1c-.9,0-1.7.2-2.4.6-.7.4-1,1.3-1,2.7v22.7c0,1.4.3,2.4,1,2.7.7.4,1.5.6,2.4.6h1v2.1h-14.4Z"/>
  <path class="st0" d="M211.7,34.5c-3.7,0-6.8-.7-9.2-2.2-2.4-1.4-4.3-3.5-5.5-6s-1.8-5.6-1.8-9.1.6-6.4,1.9-9c1.3-2.6,3.1-4.6,5.6-6.1,2.5-1.5,5.6-2.2,9.2-2.2s6.3.5,8.1,1.5c1.8,1,2.7,2.3,2.7,3.8s-.4,1.9-1.3,2.5c-.9.6-2.1,1-3.5,1,0-1-.2-2-.6-3-.4-.9-1.1-1.7-2-2.3-.9-.6-2.1-.9-3.5-.9-3.8,0-6.5,1.3-8.2,3.8-1.6,2.5-2.4,6.1-2.4,10.8s.9,8.2,2.6,10.7c1.7,2.5,4.6,3.8,8.7,3.8s1.6,0,2.4-.1c.8,0,1.5-.2,2.1-.4v-7.4c0-1.3-.4-2.2-1.1-2.6-.7-.4-1.6-.6-2.7-.6h-.3v-2.1h12.9v2.1h-.3c-.9,0-1.7.2-2.2.6-.6.4-.9,1.4-.9,2.8v8.3c-1.7.8-3.4,1.3-5.1,1.7-1.7.4-3.6.6-5.6.6Z"/>
  <path class="st0" d="M228.5,34.1v-2.1h1c1,0,1.8-.2,2.5-.6.7-.4,1-1.3,1-2.7V5.9c0-1.4-.3-2.3-1-2.7-.7-.4-1.5-.6-2.5-.6h-1V.5h14.4v2.1h-1c-.9,0-1.7.2-2.4.6s-1,1.3-1,2.7v22.7c0,1.4.3,2.4,1,2.7s1.5.6,2.4.6h1v2.1h-14.4Z"/>
  <path class="st0" d="M246.2,34.1v-2.1h1c1,0,1.8-.2,2.5-.6.7-.4,1-1.3,1-2.7V5.7c0-1.3-.3-2.2-1-2.6-.7-.4-1.5-.5-2.4-.5h-1V.5h9.1l16.8,25.3V5.7c0-1.3-.4-2.2-1.1-2.6s-1.5-.5-2.4-.5h-1V.5h11.9v2.1h-1c-.9,0-1.8.2-2.4.6-.7.4-1,1.3-1,2.7v28.2h-3.6l-17.8-26.7v21.3c0,1.4.3,2.4,1,2.7.7.4,1.5.6,2.4.6h1v2.1h-11.9Z"/>
  <path class="st0" d="M280.8,34.1v-2.1h.8c.9,0,1.6-.2,2.1-.7.5-.5,1-1.4,1.6-2.9l10.4-27.8h4.4l10.4,28.7c.4,1.1.9,1.8,1.4,2.2s1.2.5,2.1.5h.7v2.1h-13.6v-2.1h1.3c.8,0,1.5-.2,1.9-.5.5-.3.7-.9.7-1.6s0-.6-.1-.8-.2-.6-.3-.9l-1.8-5.1h-12.1l-1.6,4.7c-.3.8-.5,1.6-.5,2.2,0,1.4.9,2.2,2.8,2.2h1.4v2.1h-11.7ZM291.3,20.4h10.3l-2.8-8.1c-.4-1.3-.9-2.6-1.3-3.8-.4-1.3-.7-2.4-1-3.6-.3,1.1-.5,2.2-.9,3.3-.3,1.1-.8,2.3-1.3,3.7l-3.1,8.5Z"/>
  <path class="st0" d="M316.1,34.1v-2.1h1c1,0,1.8-.2,2.5-.6.7-.4,1-1.3,1-2.7V5.9c0-1.4-.3-2.3-1-2.7-.7-.4-1.5-.6-2.5-.6h-1V.5h14.4v2.1h-1c-.9,0-1.7.2-2.4.5s-1,1.2-1,2.6v25.8h9.1c1.3,0,2.3-.4,2.9-1.3.6-.9,1-1.8,1.2-2.9l.6-3.5h2.5l-.3,10.2h-25.9Z"/>
  <path class="st0" d="M79.1,51.2c1.8-1,2.9-2.9,2.9-5,0-2.1-1-4-2.8-5-1.8-.9-3.7-1.3-5.7-1.2-.8,0-2.5,0-4.1.1-1.4,0-2.7.1-3.3.1h-2.5c-.7,0-1.4.3-1.4.9s.5,1,1.3,1.1c1.9.4,1.9.6,2.1,1.2.2,1.9.3,3.7.3,5.6,0,8.4-.3,11.9-.3,12-.1,1.1-.2,1.6-2.3,2-.3,0-1.4.3-1.4,1s.7,1,1.6,1,.4,0,.7,0c.6,0,1.2,0,2.1,0,1.8,0,5.9.1,6.9.1s5-.3,7-1.7c2.1-1.2,3.4-3.4,3.4-5.8,0-3-1.5-5.1-4.5-6.5ZM73.6,63.2c-.8-.1-1.5-.5-2.1-1.2-.2-.3-.3-.6-.4-1,0-1.1-.2-5.7-.2-6.6,0-.5,0-1,.2-1.5.3-.1.7-.2,1-.2,1.1,0,2.1.2,3.1.7h0c1.6.9,2.6,2.7,2.6,4.5,0,2.8-1.9,5.2-4.2,5.2h0ZM75.1,50c-.7.5-2.6.8-4.1.8,0,0,0,0,0,0,0-6.3,0-7.4.1-8,0-.1,0-.2.2-.3.4,0,.7-.2,1.1-.2,2.3-.2,4.3,1.6,4.5,3.9,0,.2,0,.4,0,.6,0,1.3-.6,2.5-1.7,3.3Z"/>
  <path class="st0" d="M110.3,63.2c-1.1-.3-1.9-.6-3.1-3.6-.7-1.8-3.3-8.6-5.4-14.6l-.3-.8c-.4-1.3-.9-2.7-1.2-3.4h0c-.3-.7-.5-1.1-1-1.1-.4,0-.8.3-1,.7-.1.2-.6.8-1,1.3-.3.3-.5.6-.7.8-.2.2-.3.4-.4.7,0,.2-.1.5-.2.7-.7,1.6-1.8,4.4-3,7.4-1.5,3.9-3.1,7.8-3.6,8.9-1.1,2.2-1.5,2.7-3.2,3.2-.6.2-1.2.4-1.2,1.1s.3.8,1.5.8.6,0,1.1,0c.8,0,1.8-.1,2.6-.1s1.5,0,2,0c.4,0,.7,0,1,0,.9,0,1.5-.3,1.5-.9,0-.8-1-1-1.4-1.1-1.4-.4-1.5-.8-1.5-1.3s.1-1.7,1.6-5.3c0,0,.1-.1.2-.2.8,0,2.7-.1,6.3-.1.2,0,.4.1.5.3l.3.7c.6,1.5,1.1,3.1,1.5,4.8,0,.4,0,.8-1.2,1.2-1,.2-1.3.7-1.3,1s.4,1,1.6,1,1,0,1.7,0c.7,0,1.4,0,2.1,0s1.7,0,2.7,0c.9,0,1.8,0,2.3,0,1.2,0,1.6-.5,1.6-1,0-.6-.7-.9-1.3-1.1ZM99.5,53.7c-1.3,0-3.7,0-5.1,0,.3-.9,1.5-4.3,2.3-6.3l.3-.7c.6,1.6,2,5.3,2.5,6.9Z"/>
  <path class="st0" d="M141.4,40.1c-.4,0-1,0-1.6,0-1.1,0-2.4.1-3.9.1-.5,0-.9,0-1.4,0-.9,0-1.5.3-1.5.8,0,.9,1,1.1,1.5,1.3,1.7.4,2,1.1,2.1,1.8.1.9.2,2.7.2,4s0,1.9,0,2.8c0,2.2,0,4.4,0,5.4-.4-.4-.9-.9-1.4-1.5-3-3.2-8.1-8.4-9.5-10.3-.8-1-1.5-1.8-2.1-2.4-.5-.5-.8-1-1.1-1.3,0,0-.7-.6-1.1-.6-1.2,0-2.7,0-3.9-.1-.8,0-1.5,0-1.8,0-.9,0-1.5.4-1.5,1s.9,1,1.3,1c1,0,1.9.6,2.5,1.5l.2.2c.2.6.2,1.3.2,1.9,0,1.7-.2,5.3-.4,8.8-.1,2-.2,3.9-.3,5.4,0,2.6-.8,2.8-2.5,3.3-.3,0-1.1.3-1.1,1.1s.6.9,1.4.9.9,0,1.6,0c.8,0,1.6,0,2,0,.7,0,1.2,0,1.8,0,.5,0,1,0,1.5,0,1.4,0,1.6-.5,1.6-1,0-.7-1-1-1.3-1.1-1.7-.5-2-1-2.1-2.1-.2-1.5-.1-3.6,0-7.2v-2.8c0-2.6.1-3.6.2-4.5,1.4,1.6,3.1,3.5,5,5.6,2.8,3.1,5.8,6.4,7.9,8.9l.3.4c.9,1.1,1.5,1.8,2.2,2.7.1.2,1.2,1.6,2.4,1.6.5,0,1-.6,1-1.1,0-.4,0-1.3,0-2.3,0-1.3-.1-2.7-.1-3.6,0-3.3.3-12.8.4-14.1.2-1.5.3-1.9,2.1-2.5.9-.3,1.2-.8,1.2-1.1,0-.1,0-.9-1.3-.9Z"/>
  <path class="st0" d="M171,63.4c-1.3-.1-2.5-.8-3.4-1.8-2.3-2.4-8.4-9.5-9.5-11,1.9-2,3.8-3.9,5.9-5.7l.3-.2c1.3-1.3,3-2.2,4.7-2.6,1.1-.2,1.7-.6,1.7-1.1s-.2-.9-1.5-.9-1.1,0-1.9,0c-1.2,0-2.7.1-4.1.1h-1.6c-1,0-1.3.5-1.3.9,0,.7.9.9,1.2,1,.8.2,1,.4,1,.5s0,.3-.5.9c-2.4,2.8-5.1,5.5-7.9,8,0,0-.2.1-.3.2,0-1.8,0-6.2,0-7.6,0-1.5.3-1.6,1.6-2,.5-.1,1.3-.4,1.3-1.1s-.4-.9-1.6-.9-1.1,0-1.8,0c-.8,0-1.6,0-2.2,0s-1.5,0-2.2,0c-.7,0-1.4,0-1.8,0-.8,0-1.5.3-1.5.9s.8,1,1.4,1.1c1.2.4,1.5.6,1.6,2.2,0,.3,0,.6,0,.8,0,.8,0,1.8,0,6.5s0,7,0,8.5c-.1,2.1-.4,2.5-2.1,2.9-.5.1-1.4.3-1.4,1.1s.7,1,1.4,1,1.4,0,2.2,0,1.5,0,2.1,0,1.7,0,2.7,0c.8,0,1.6,0,2,0,.8,0,1.6-.3,1.6-1s-.5-.9-1.4-1.1c-1.6-.4-1.6-.9-1.6-1.3v-1c0-1.7-.2-4.5-.2-6.9,0-.1,0-.2,0-.3.1.1.3.4.6.7l.4.5c1.8,1.9,5.6,6.7,6.7,8.3h0c-1.3.4-1.8.7-1.8,1.2s.3,1,1.3,1,.8,0,1.2,0c.5,0,1.2,0,1.9,0s1.9,0,3.2.2c1.4,0,2.7.1,3.2.1s1.5-.3,1.5-1c0-.4-.6-.9-1.1-1Z"/>
  <path class="st0" d="M194.6,58.5c-.6,0-1,.6-1.5,1.5-.6,1.2-1.6,2.1-2.8,2.6-1.1.3-2.2.4-3.4.3-1,0-2,0-3-.2-.2-.1-.4-.3-.5-.6,0-.7-.1-1.4-.1-2.1,0-.3,0-.6,0-.9,0-1.7,0-3.4,0-5.1,0,0,.1-.1.2-.2,1.1,0,2.5,0,3.7,0,1.3.1,1.7.3,2.1,1.8.1.4.5,1.1,1.1,1.1.2,0,.4,0,.5-.2.3-.4.4-.9.4-1.3v-.5c-.1-.7-.1-1.2-.1-2s0-1.2.1-1.9v-.7c.1-.4,0-.9-.2-1.3-.1-.1-.3-.2-.5-.2-.6,0-1,.7-1.2,1.2v.3c-.7,1.3-.7,1.3-3,1.3h-3c0-2.1,0-7.3.2-8.3,0-.2,0-.5.1-.7,1.7,0,3.5,0,5.2.2,1.1.2,1.8,1,2.1,2.5,0,.5.5,1.3,1.1,1.3s1-.8,1-1.5c0-2.2,0-3.6,0-4.1,0-.3-.2-.5-.5-.7-.1,0-.3-.1-.4-.1-1.1.1-2.2.2-3.3.2h-5.7c-1,0-2.3,0-3.6,0-1.2,0-2.4,0-3.3,0s-1.6.3-1.6,1,.9.9,1.5,1.1c1.3.3,1.6.8,1.7,2.1,0,.8,0,1.9,0,4,0,.9,0,2,0,3.3,0,4.3-.2,7.2-.3,9.1-.1,1.9-.5,2.1-2.3,2.5-.9.2-1.4.6-1.4,1.1,0,.9,1.3.9,1.7.9.6,0,1,0,1.5,0,.7,0,1.4-.1,2.8-.1,2.1,0,7.6.1,10.5.2,1.2,0,2,0,2.1,0,.5,0,1-.3,1.3-.7.6-1.5,1.1-3,1.5-4.5,0-.5,0-.9-.2-1.3-.1-.1-.3-.2-.5-.2Z"/>
  <path class="st0" d="M222.1,63.3c-1.2-.2-2.3-.8-3-1.8-2.1-2.8-4-5.7-5.7-8.9,0,0,0,0,0,0,.3-.1,1.2-.6,1.5-.8h0c1.7-1.2,2.8-3.1,2.8-5.2,0-1.8-.8-3.6-2.2-4.8-1.4-1.2-3.7-1.8-6.8-1.8s-2.6,0-3.9.1c-1.1,0-2.1,0-2.7,0h-2.8c-.9,0-1.5.4-1.5.9s.4.9,1.2,1.1c1.7.4,1.8.9,1.9,1.6.1,1,.2,4.3.2,8.3s0,6.4-.2,9.3c0,1-.3,1.3-2,1.8-.8.2-1.2.6-1.2,1s.3,1,1.6,1,.5,0,.9,0c.8,0,1.9-.1,2.7-.1s2,0,2.8.1c.7,0,1.4.1,2,.1s1.6-.3,1.6-1-.2-.8-1.2-1.1c-1.6-.4-1.7-.7-1.8-2.1-.1-1.7-.2-6.8-.1-7.4,0,0,0,0,0,0,.6,0,1.1.1,1.6.4.4.4.8.9,1.1,1.5,1.5,2.5,3.5,5.8,4.6,7.3,1.3,1.8,3.3,2.6,6,2.6.9,0,1.8-.1,2.6-.3.4-.1.9-.5.9-.9,0-.4-.5-.8-1-.9ZM206.4,42.9c0-.2.1-.4.2-.5.4-.1.8-.2,1.3-.2,1.1,0,2.1.4,2.8,1.2h0c1,1,1.5,2.3,1.5,3.7,0,1.5-.7,3-1.9,3.9-1.2.5-2.5.8-3.9.8,0,0-.1,0-.1-.1-.1-.9,0-7.6.1-8.8Z"/>
  <path class="st0" d="M236,50.5c-3.5-2.2-4.9-3.3-4.9-5.3,0-1.9,1.5-3.5,3.5-3.5,1,0,2,.3,2.8,1,.7.7,1.2,1.6,1.5,2.5.2.6.8,1.1,1.5,1.1.3,0,.7-.2.7-1.3s0-.3-.1-1c-.1-.8-.3-2.2-.3-2.6-.1-.4-.4-.8-.7-1.1h-.1c-.2,0-.5-.1-.9-.2-1.3-.3-2.6-.4-4-.5-2.3-.2-4.5.5-6.3,1.9-1.6,1.3-2.5,3.2-2.5,5.3,0,3.6,2.2,5.8,6.1,8.3,3.4,2.2,4.1,3.6,4.1,5.1,0,1.9-1.6,3.4-3.5,3.4-2.1,0-4-1.3-4.9-3.3-1.1-2.3-1.7-2.3-1.8-2.3-.5,0-1,.8-1,1.2,0,1.4.3,2.8.7,4.1.3.6.7,1.1,1.2,1.4,1.8.7,3.7,1,5.6,1,1.9,0,3.8-.5,5.5-1.4,2.1-1.2,3.4-3.5,3.5-5.9,0-2.2-.7-4.8-5.8-7.9Z"/>
  <path class="st0" d="M271.2,51.2c1.8-1,2.9-2.9,2.9-5,0-2.1-1-4-2.8-5-1.8-.9-3.7-1.3-5.7-1.2-.8,0-2.5,0-4.1.1-1.4,0-2.7.1-3.3.1h-2.5c-.7,0-1.4.3-1.4.9s.5,1,1.3,1.1c1.9.4,1.9.6,2.1,1.2.2,1.9.3,3.7.3,5.6,0,8.4-.3,11.9-.3,12-.1,1.1-.2,1.6-2.3,2-.3,0-1.4.3-1.4,1s.7,1,1.6,1,.4,0,.7,0c.6,0,1.2,0,2.1,0,1.8,0,5.9.1,6.9.1s5-.3,7-1.7c2.1-1.2,3.4-3.4,3.4-5.8,0-3-1.5-5.1-4.5-6.5ZM265.6,63.2c-.8-.1-1.5-.5-2.1-1.2-.2-.3-.3-.6-.4-1,0-1.1-.2-5.7-.2-6.6,0-.5,0-1,.2-1.5.3-.1.7-.2,1-.2,1.1,0,2.1.2,3.1.7h0c1.6.9,2.6,2.7,2.6,4.5,0,2.8-1.9,5.2-4.2,5.2h0ZM267.2,50c-.7.5-2.6.8-4.1.8,0,0,0,0,0,0,0-6.3,0-7.4.1-8,0-.1,0-.2.2-.3.4,0,.7-.2,1.1-.2,2.3-.2,4.3,1.6,4.5,3.9,0,.2,0,.4,0,.6,0,1.3-.6,2.5-1.7,3.3h0Z"/>
  <path class="st0" d="M292.3,39.7c-3,0-5.9,1-8.3,2.8-3.2,2.4-5.1,6.2-5,10.2,0,3.3,1.1,6.5,3.3,8.9,2.7,2.7,6.3,4.2,10.1,4.2,3.1,0,6.1-1,8.5-2.8,3.2-2.6,5.1-6.5,4.9-10.6,0-7.9-6.9-12.7-13.6-12.7ZM293.6,63.6c-5.2,0-8.7-6.1-8.7-11.8s1.9-7.6,2.5-8.2h0c1.1-1.1,2.5-1.7,4-1.8,1.8,0,3.4.8,4.7,1.9,2.6,2.4,3.8,6.8,3.8,9.8,0,4.3-1.5,7.3-2.8,8.6-.9.9-2.2,1.5-3.6,1.4Z"/>
  <path class="st0" d="M332.5,63.3c-2.7-.7-3.5-1.7-4.8-3.6-1.6-2.3-5.1-7.8-5.4-8.6,0,0,0-.2,0-.2h0c1.3-1.7,2.6-3.3,3.8-4.7.4-.5.8-1,1.2-1.4,1.2-1.4,2.9-2.4,4.7-2.7.5,0,1.3-.6,1.3-1.1s-.1-.8-1.3-.8-1.2,0-2,0-1.6,0-2.1,0-1,0-1.6,0c-.6,0-1.2,0-1.8,0-1.3,0-1.4.7-1.4.9,0,.3.3.9,1.3,1.1.9.2,1.1.5,1.1.6,0,0,0,.1,0,.3-1.4,2.1-2.8,4.2-4.4,6.1-1.4-2-2.6-4.1-3.8-6.3,0-.1,0-.3,0-.4,0-.1.2-.2.3-.2.7-.3,1.4-.6,1.4-1.3s-.1-.8-1.5-.8-1,0-1.5,0c-.5,0-1.1,0-1.9,0s-2.2,0-3.4-.1c-.9,0-1.7,0-2.1,0-1.1,0-1.5.5-1.5.9,0,.5.5,1,1.4,1.2,1.2.2,2.3.9,3,1.9,2.2,3,4.1,6.1,5.9,9.3q0,0,0,.2c-2,2.7-4.5,5.8-5.7,7-1.1,1.2-2.5,2.1-4.1,2.5-.6.1-1.7.4-1.7,1.3s.3.9,1.6.9.9,0,1.4,0c.7,0,1.5-.1,2.4-.1s1.4,0,2.1,0c.7,0,1.3,0,1.8,0,.8,0,1.3-.4,1.3-1s-.2-.7-1.2-1.1c-.7-.2-1-.4-1.1-.7-.1-.4.1-1.2.8-2.3,1.1-1.7,2.3-3.3,3.6-4.8.6.7,3.8,6.1,4.5,7.4,0,0,0,0,0,0-.2.1-.5.2-.7.3h-.4c-.5.3-1.2.6-1.2,1.3s.4.9,1.3.9.6,0,1.1,0c.7,0,1.5-.1,2.1-.1,1,0,2.8,0,4.2.2,1.1,0,2,.1,2.4.1,1.4,0,1.6-.5,1.6-.9,0-.4-.3-1-1.2-1.2ZM318.6,55.3s0,0,0,0l.2-.3h0l-.2.3Z"/>
  <path class="st0" d="M343.7,44.6c0,2.2-1.8,4.1-4,4.1-2.2,0-4-1.8-3.9-4,0,0,0,0,0-.1,0-2.2,1.8-4,4-4,2.2,0,4,1.7,4,3.9,0,0,0,0,0,.1ZM336.5,44.6c0,1.8,1.3,3.3,3.1,3.3,0,0,0,0,.1,0,1.7,0,3.2-1.4,3.2-3.1,0,0,0-.1,0-.2,0-1.8-1.4-3.3-3.2-3.4,0,0,0,0,0,0-1.8,0-3.2,1.4-3.2,3.1,0,0,0,.1,0,.2ZM338.4,43.7c0-.5-.1-.6-.4-.7-.4-.2-.2-.3,0-.3.6,0,1.2,0,1.8,0,1,0,1.6.4,1.6,1.1s-.5.7-.7.8c0,0,0,0,0,.1.3.6.7,1.1,1.1,1.6.1,0,.2.2.2.2,0,0-.2.2-.5.2-.4,0-.8-.2-1-.6-.2-.3-.5-.7-.6-1,0,0-.1-.1-.3-.1s-.2,0-.2.1v.4c0,.6,0,.6.6.8.2,0,.2.3,0,.3-.3,0-.7,0-1,0s-.5,0-.9,0-.3-.2,0-.3c.3-.1.5-.3.5-.7v-1.8ZM339.4,44.2c0,.1,0,.2.3.2.5,0,.7-.3.7-.7s-.2-.8-.6-.8-.3,0-.3.2v1.1Z"/>
  <path class="st0" d="M260.2,83.3c-.5,0-1,0-1.5-.2-.4,0-.7-.2-1-.5-.2-.2-.4-.4-.6-.7-.1-.2-.2-.5-.2-.8,0-.3,0-.5.2-.7.1-.2.3-.3.5-.4.2,0,.5-.1.7-.1,0,.5,0,.9.3,1.3.3.7,1,1.2,1.8,1.2.5,0,1-.1,1.4-.5.3-.3.5-.8.5-1.3,0-.3,0-.6-.3-.9-.2-.3-.5-.5-.8-.7-.4-.3-.9-.5-1.4-.7-.6-.2-1.1-.5-1.6-.9-.4-.3-.7-.6-.9-1-.2-.4-.3-.9-.3-1.4,0-.5.2-1.1.5-1.5.3-.4.8-.8,1.3-1,.6-.2,1.2-.4,1.8-.4.6,0,1.1,0,1.7.2.4.1.7.3,1,.6.2.2.3.5.3.9,0,.3-.1.6-.4.8-.4.2-.8.4-1.2.3,0-.3,0-.6-.2-.9,0-.3-.3-.6-.5-.8-.3-.2-.6-.3-1-.3-.4,0-.8.1-1.2.4-.3.3-.5.7-.5,1.1,0,.3,0,.6.2.9.2.3.4.5.7.7.5.3,1,.5,1.5.7.6.2,1.1.5,1.6.8.4.3.7.6.9,1,.2.4.3.9.3,1.3,0,.6-.2,1.2-.5,1.7-.3.5-.8.9-1.4,1.1-.7.3-1.4.4-2.1.4Z"/>
  <path class="st0" d="M265.3,83.2v-.7h.5c.2,0,.3,0,.5,0,.1,0,.3-.2.3-.3,0-.2.1-.4.1-.7v-7.2c0-.2,0-.5-.1-.7,0-.1-.2-.2-.3-.3-.2,0-.3,0-.5,0h-.5v-.7h4.9v.7h-.5c-.2,0-.3,0-.5,0-.1,0-.3.1-.3.3,0,.2-.1.4-.1.7v7.2c0,.2,0,.4.1.7,0,.1.2.2.3.3.2,0,.3,0,.5,0h.5v.7h-4.9Z"/>
  <path class="st0" d="M271.2,83.2v-.7h.5c.2,0,.3,0,.5,0,.1,0,.3-.1.3-.3,0-.2.1-.4.1-.7v-7.3c0-.2,0-.4-.1-.6,0-.1-.2-.2-.3-.3-.2,0-.3,0-.5,0h-.5v-.7h3.1l5.3,7.8v-6.1c0-.2,0-.4-.1-.6,0-.1-.2-.2-.3-.3-.2,0-.3,0-.5,0h-.5v-.7h3.9v.7h-.5c-.2,0-.3,0-.5,0-.1,0-.3.1-.3.3,0,.2-.1.4-.1.7v9h-1.3l-5.8-8.4v6.7c0,.2,0,.4.1.7,0,.1.2.2.3.3.2,0,.3,0,.5,0h.5v.7h-3.8Z"/>
  <path class="st0" d="M287.9,83.3c-1,0-1.9-.2-2.7-.7-.7-.5-1.3-1.1-1.6-1.9-.4-.9-.6-1.9-.5-2.9,0-1,.2-2,.6-2.9.4-.8.9-1.5,1.7-1.9.8-.5,1.8-.7,2.8-.7.6,0,1.2,0,1.8.2.4.1.8.3,1.1.6.2.2.4.5.4.9,0,.3-.2.7-.4.9-.4.2-.8.4-1.2.3,0-.3,0-.6-.2-.9,0-.3-.3-.6-.5-.8-.3-.2-.6-.3-1-.3-.6,0-1.2.2-1.6.5-.4.4-.7,1-.9,1.6-.2.8-.3,1.6-.3,2.5,0,.8,0,1.6.3,2.4.3,1.3,1.5,2.1,2.7,2,.4,0,.9,0,1.3-.2.3-.1.6-.3.9-.5.2-.2.4-.4.6-.6,0,0,.2.2.2.3,0,.1,0,.2,0,.4,0,.2,0,.4-.2.6-.1.2-.3.4-.6.6-.3.2-.7.4-1,.5-.5.1-1,.2-1.5.2Z"/>
  <path class="st0" d="M292.1,83.2v-.7h.5c.2,0,.3,0,.5,0,.1,0,.3-.1.3-.3.1-.2.1-.4.1-.6v-7.3c0-.2,0-.5-.1-.7,0-.1-.2-.2-.3-.3-.2,0-.3,0-.5,0h-.5v-.7h8v2.7c0,0-.9,0-.9,0v-.7c0-.2-.1-.4-.2-.6,0-.2-.2-.3-.4-.4-.2-.1-.4-.2-.6-.1h-2.5v3.8h3.6v.8h-3.6v4.3h3c.2,0,.4,0,.6-.2.2-.1.3-.3.4-.4,0-.2.2-.4.2-.6v-.7h1v2.7h-8.6Z"/>
  <path class="st0" d="M306.1,83.2v-.7h1.1c.2,0,.3,0,.5,0,.1,0,.3-.2.3-.3,0-.2.1-.4.1-.6v-7.7c-.3.4-.7.8-1,1.1-.2.3-.6.4-.9.4-.2,0-.4,0-.6-.3-.2-.2-.3-.5-.2-.7.3,0,.7-.2,1-.4.5-.2.9-.5,1.3-.8l1-.8h1.4v9c0,.2,0,.4.1.6,0,.1.2.3.3.3.2,0,.4.1.5,0h1v.7h-6Z"/>
  <path class="st0" d="M315.7,83.3c-.5,0-.9,0-1.4-.2-.3-.1-.6-.3-.7-.6-.1-.2-.2-.5-.2-.7,0-.4.2-.7.6-.8,0,.3.2.5.4.7.1.2.3.4.6.5.3.1.5.2.8.2.7,0,1.4-.4,1.6-1.1.4-1,.6-2.2.6-3.3-.2.2-.3.4-.5.5-.2.2-.5.3-.7.4-.3,0-.6.1-.9.1-.5,0-1-.1-1.5-.3-.4-.2-.8-.6-1-1-.3-.5-.4-1.1-.4-1.7,0-.7.1-1.3.4-1.9.3-.5.7-1,1.2-1.3.5-.3,1.2-.5,1.8-.5.7,0,1.3.2,1.9.5.6.4,1,1,1.3,1.6.3.9.5,1.9.5,2.9,0,.8,0,1.5-.2,2.3-.1.7-.4,1.3-.7,1.9-.3.5-.8,1-1.3,1.3-.6.3-1.3.5-1.9.5ZM316.4,78.1c.4,0,.7,0,1-.3.3-.2.5-.5.6-.8,0-.7,0-1.4-.2-2.1,0-.4-.3-.9-.6-1.2-.2-.2-.5-.4-.9-.4-.3,0-.6.1-.8.3-.2.2-.4.5-.5.9-.1.5-.2.9-.2,1.4,0,.6,0,1.2.4,1.6.3.4.7.6,1.1.5Z"/>
  <path class="st0" d="M321.4,83.2v-.7h1.1c.2,0,.3,0,.5,0,.1,0,.3-.2.3-.3,0-.2.1-.4.1-.6v-7.7c-.3.4-.7.8-1,1.1-.2.3-.6.4-.9.4-.2,0-.4,0-.6-.3-.2-.2-.3-.5-.2-.7.3,0,.7-.2,1-.4.5-.2.9-.5,1.3-.8l1-.8h1.4v9c0,.2,0,.4.1.6,0,.1.2.3.3.3.2,0,.4.1.5,0h1v.7h-6Z"/>
  <path class="st0" d="M329.7,83.2l3.8-9.2h-3.5c-.2,0-.4,0-.6.2-.2.2-.2.4-.3.6v.7h-.9v-3h7v.6l-4,10.1h-1.7Z"/>
</svg>