<svg xmlns="http://www.w3.org/2000/svg" xmlns:xlink="http://www.w3.org/1999/xlink" width="173.476" height="94.284" viewBox="0 0 173.476 94.284"><defs><clipPath id="a"><rect width="173.476" height="94.284" fill="none"/></clipPath></defs><g clip-path="url(#a)"><path d="M22.8,0a2.407,2.407,0,0,0-1.782.785C7.044,15.982,0,29.731,0,41.765a29.15,29.15,0,0,0,.813,6.888c3.258,13.365,15.141,19.78,19.4,21.69v9.4a2.422,2.422,0,1,0,4.845,0V68.751a2.424,2.424,0,0,0-1.587-2.272c-.145-.056-14.7-5.552-17.953-19.017a24.388,24.388,0,0,1-.668-5.736c0-10.241,6.064-22.2,17.959-35.64C34.593,19.374,40.741,30.929,40.741,39.944a17.27,17.27,0,0,1-.8,5.324C37.444,53,29.664,56.678,25.388,58.165v-6.32C27.482,50.8,35.645,46.71,35.645,46.71a2.418,2.418,0,0,0,1.336-2.161,2.431,2.431,0,0,0-.473-1.442s-4.878-6.6-7-9.472l2.528-1.476a2.4,2.4,0,0,0,1.136-1.548,2.55,2.55,0,0,0,.061-.54,2.438,2.438,0,0,0-.407-1.348L24.942,16.951a2.421,2.421,0,0,0-3.97-.078L12.435,28.645a2.415,2.415,0,0,0,.735,3.508s1.264.741,2.528,1.476c-2.122,2.873-7,9.472-7,9.472a2.418,2.418,0,0,0-.473,1.442,2.477,2.477,0,0,0,.056.529,2.423,2.423,0,0,0,1.214,1.6l6.393,3.447a2.419,2.419,0,1,0,2.294-4.26s-2.072-1.119-3.937-2.122l6.944-9.394a2.4,2.4,0,0,0,.473-1.437,2.424,2.424,0,0,0-1.2-2.094s-1.275-.746-2.55-1.487c1.481-2.038,3.135-4.327,4.928-6.8q2.506,3.742,4.522,6.749l-2.634,1.537a2.435,2.435,0,0,0-1.153,1.6A2.418,2.418,0,0,0,24,34.342S28.7,40.7,30.89,43.67c-3.118,1.559-9.021,4.516-9.021,4.516a2.424,2.424,0,0,0-1.336,2.166V61.417a2.435,2.435,0,0,0,.891,1.877,2.4,2.4,0,0,0,2.016.5c.679-.139,16.717-3.536,21.083-17C48.386,34.877,41.676,19.4,24.569.785a2.411,2.411,0,0,0-1.782-.78Z" fill="#fff"/><path d="M103,41.732a.839.839,0,0,1-.835.858c-.858,0-1.142-1.014-3.079-1.014A2.271,2.271,0,0,0,96.6,43.8c0,3.453,7.434,1.8,7.434,7.083a4.929,4.929,0,0,1-5.3,4.951c-2.066,0-4.355-.791-4.355-1.893,0-.529.262-.991.813-.991.657,0,1.582,1.208,3.564,1.208a3.091,3.091,0,0,0,3.213-3.191c0-3.72-7.434-1.916-7.434-7.039A4.387,4.387,0,0,1,99.158,39.9c1.938,0,3.854.813,3.854,1.827Z" transform="translate(-41.823 -17.681)" fill="#fff"/><path d="M114.84,40.936a.971.971,0,1,1,1.938,0v9.305c0,2.461,1.671,3.915,4.138,3.915s4.138-1.453,4.138-3.915V40.936a.971.971,0,1,1,1.938,0v8.559c0,5.279-3.386,6.337-6.07,6.337s-6.07-1.058-6.07-6.337V40.936Z" transform="translate(-50.889 -17.681)" fill="#fff"/><path d="M149.19,41.732a.839.839,0,0,1-.835.858c-.858,0-1.142-1.014-3.079-1.014a2.271,2.271,0,0,0-2.484,2.222c0,3.453,7.434,1.8,7.434,7.083a4.929,4.929,0,0,1-5.3,4.951c-2.066,0-4.355-.791-4.355-1.893,0-.529.262-.991.813-.991.657,0,1.582,1.208,3.564,1.208a3.091,3.091,0,0,0,3.213-3.191c0-3.72-7.44-1.916-7.44-7.039a4.387,4.387,0,0,1,4.622-4.026c1.938,0,3.854.813,3.854,1.827Z" transform="translate(-62.291 -17.681)" fill="#fff"/><path d="M163.48,41.954h-2.924a.9.9,0,1,1,0-1.8h7.791a.9.9,0,1,1,0,1.8h-2.924V54.913a.971.971,0,1,1-1.938,0V41.954Z" transform="translate(-70.728 -17.792)" fill="#fff"/><path d="M176.961,55.113a.952.952,0,0,1-.947.724.828.828,0,0,1-.924-.813,4.184,4.184,0,0,1,.262-.969L180.213,41.1c.239-.685.635-1.186,1.387-1.186s1.142.507,1.387,1.186l4.861,12.958a4.037,4.037,0,0,1,.262.969.84.84,0,0,1-.924.813.971.971,0,0,1-.947-.724l-1.013-2.818h-7.262l-1.014,2.818Zm4.661-12.958h-.045l-3.013,8.47h6.07Z" transform="translate(-77.588 -17.685)" fill="#fff"/><path d="M203.9,54.806a.971.971,0,1,1-1.938,0V40.946a.971.971,0,1,1,1.938,0Z" transform="translate(-89.495 -17.685)" fill="#fff"/><path d="M212.748,54.806a.971.971,0,1,1-1.938,0V41.057c0-.768.262-1.147.88-1.147.574,0,.835.239,1.364,1.014L220.973,52.3h.045V40.946a.971.971,0,1,1,1.938,0V54.695c0,.768-.262,1.142-.88,1.142-.574,0-.835-.239-1.364-1.014l-7.919-11.377h-.045v11.36Z" transform="translate(-93.416 -17.685)" fill="#fff"/><path d="M237.171,55.113a.952.952,0,0,1-.947.724.828.828,0,0,1-.924-.813,4.48,4.48,0,0,1,.262-.969L240.423,41.1c.239-.685.635-1.186,1.387-1.186s1.142.507,1.387,1.186l4.861,12.958a4.037,4.037,0,0,1,.262.969.84.84,0,0,1-.924.813.971.971,0,0,1-.947-.724l-1.014-2.818h-7.262l-1.014,2.818Zm4.661-12.958h-.045l-3.013,8.47h6.07Z" transform="translate(-104.268 -17.685)" fill="#fff"/><path d="M261.376,41.2a.954.954,0,0,1,1.036-1.058h3.408a3.91,3.91,0,0,1,4.227,3.742,3.346,3.346,0,0,1-2.177,3.43v.045a3.818,3.818,0,0,1,3.386,3.87c0,2.467-1.827,4.577-5.129,4.577h-3.72a.957.957,0,0,1-1.036-1.058V41.192Zm1.938,5.569h2.2a2.42,2.42,0,0,0,2.6-2.528,2.256,2.256,0,0,0-2.528-2.422h-2.266Zm0,7.367h2.729a2.977,2.977,0,0,0,3.28-2.9,2.888,2.888,0,0,0-3.191-2.885h-2.818Z" transform="translate(-115.821 -17.787)" fill="#fff"/><path d="M284.528,53.9h4.138a.9.9,0,1,1,0,1.8h-5.04a.957.957,0,0,1-1.036-1.058V40.936a.971.971,0,1,1,1.938,0V53.9Z" transform="translate(-125.224 -17.681)" fill="#fff"/><path d="M299.9,54.006h4.661a.9.9,0,1,1,0,1.8H299a.957.957,0,0,1-1.036-1.058V41.2A.954.954,0,0,1,299,40.14h5.569a.9.9,0,1,1,0,1.8H299.9v5.129h4.243a.9.9,0,1,1,0,1.8H299.9Z" transform="translate(-132.035 -17.787)" fill="#fff"/><path d="M97.388,90.043a.971.971,0,1,1-1.938,0v-13.7a.954.954,0,0,1,1.036-1.058h5.5a.9.9,0,1,1,0,1.8h-4.6v5.129h4.071a.9.9,0,1,1,0,1.8H97.388v6.025Z" transform="translate(-42.297 -33.359)" fill="#fff"/><path d="M117.326,75.04c4.466,0,6.866,3.893,6.866,7.963s-2.4,7.963-6.866,7.963S110.46,87.074,110.46,83s2.4-7.963,6.866-7.963m0,14.256c3.519,0,4.795-3.3,4.795-6.293s-1.275-6.293-4.795-6.293-4.795,3.3-4.795,6.293,1.275,6.293,4.795,6.293" transform="translate(-48.948 -33.252)" fill="#fff"/><path d="M139.778,90.043a.971.971,0,1,1-1.938,0v-13.7a.954.954,0,0,1,1.036-1.058h3.586c2.467,0,4.795,1.671,4.795,4.227,0,3.169-1.938,4.355-4.271,4.444l-.835.022,5,5.48a1.189,1.189,0,0,1,.373.88.819.819,0,0,1-.88.746,1.143,1.143,0,0,1-.88-.44l-5.986-6.554v5.964Zm0-7.523h2.64c2.027,0,2.907-.858,2.907-2.879a2.735,2.735,0,0,0-2.946-2.684h-2.6v5.563Z" transform="translate(-61.081 -33.359)" fill="#fff"/><path d="M161.078,89.136h4.661a.9.9,0,1,1,0,1.8h-5.563a.957.957,0,0,1-1.036-1.058V76.328a.954.954,0,0,1,1.036-1.058h5.563a.9.9,0,1,1,0,1.8h-4.661V82.2h4.249a.9.9,0,1,1,0,1.8h-4.249Z" transform="translate(-70.52 -33.354)" fill="#fff"/><path d="M183.85,76.867a.839.839,0,0,1-.835.858c-.858,0-1.142-1.008-3.079-1.008a2.271,2.271,0,0,0-2.484,2.222c0,3.453,7.434,1.8,7.434,7.083a4.929,4.929,0,0,1-5.3,4.951c-2.066,0-4.355-.791-4.355-1.893,0-.529.262-.991.813-.991.663,0,1.582,1.208,3.564,1.208a3.091,3.091,0,0,0,3.213-3.191c0-3.72-7.434-1.916-7.434-7.039a4.387,4.387,0,0,1,4.622-4.026c1.938,0,3.848.813,3.848,1.827Z" transform="translate(-77.65 -33.252)" fill="#fff"/><path d="M197.346,77.084h-2.929a.9.9,0,1,1,0-1.8h7.791a.9.9,0,1,1,0,1.8h-2.929V90.043a.971.971,0,1,1-1.938,0V77.084Z" transform="translate(-85.732 -33.359)" fill="#fff"/><path d="M215.168,90.043a.971.971,0,1,1-1.938,0v-13.7a.954.954,0,0,1,1.036-1.058h3.586c2.467,0,4.795,1.671,4.795,4.227,0,3.169-1.938,4.355-4.271,4.444l-.835.022,5,5.48a1.189,1.189,0,0,1,.373.88.819.819,0,0,1-.88.746,1.143,1.143,0,0,1-.88-.44l-5.986-6.554v5.964Zm0-7.523h2.64c2.021,0,2.9-.858,2.9-2.879a2.738,2.738,0,0,0-2.946-2.684h-2.6Z" transform="translate(-94.489 -33.359)" fill="#fff"/><path d="M235.2,83.488,231,76.644a1.529,1.529,0,0,1-.306-.813.81.81,0,0,1,.88-.791,1.065,1.065,0,0,1,.969.618l3.631,5.92,3.631-5.92a1.059,1.059,0,0,1,.969-.618.81.81,0,0,1,.88.791,1.514,1.514,0,0,1-.306.813l-4.2,6.844v6.449a.971.971,0,1,1-1.938,0Z" transform="translate(-102.226 -33.252)" fill="#fff"/><path d="M97.928,126.216a.971.971,0,1,1-1.938,0v-13.86a.971.971,0,1,1,1.938,0Z" transform="translate(-42.536 -49.329)" fill="#fff"/><path d="M106.778,126.221a.971.971,0,1,1-1.938,0V112.472c0-.768.262-1.142.88-1.142.574,0,.835.239,1.364,1.014L115,123.72h.045V112.366a.971.971,0,1,1,1.938,0v13.749c0,.768-.262,1.142-.88,1.142-.574,0-.835-.245-1.364-1.013l-7.919-11.377h-.045Z" transform="translate(-46.458 -49.334)" fill="#fff"/><path d="M133.958,126.216a.971.971,0,1,1-1.938,0v-13.86a.971.971,0,1,1,1.938,0Z" transform="translate(-58.502 -49.329)" fill="#fff"/><path d="M142.53,113.364h-2.924a.9.9,0,1,1,0-1.8H147.4a.9.9,0,1,1,0,1.8h-2.924v12.958a.971.971,0,1,1-1.938,0V113.364Z" transform="translate(-61.444 -49.436)" fill="#fff"/><path d="M161.138,126.216a.971.971,0,1,1-1.938,0v-13.86a.971.971,0,1,1,1.938,0Z" transform="translate(-70.546 -49.329)" fill="#fff"/><path d="M167.241,126.523a.952.952,0,0,1-.947.724.828.828,0,0,1-.924-.813,4.481,4.481,0,0,1,.262-.969l4.861-12.958c.239-.679.635-1.186,1.387-1.186s1.142.507,1.387,1.186l4.861,12.958a4.035,4.035,0,0,1,.267.969.84.84,0,0,1-.924.813.971.971,0,0,1-.947-.724l-1.014-2.818h-7.262l-1.014,2.818Zm4.667-12.958h-.045l-3.013,8.47h6.075l-3.013-8.47Z" transform="translate(-73.28 -49.329)" fill="#fff"/><path d="M189.946,113.364h-2.929a.9.9,0,1,1,0-1.8h7.791a.9.9,0,1,1,0,1.8h-2.924v12.958a.971.971,0,1,1-1.938,0Z" transform="translate(-82.453 -49.436)" fill="#fff"/><path d="M208.548,126.216a.971.971,0,1,1-1.938,0v-13.86a.971.971,0,1,1,1.938,0Z" transform="translate(-91.555 -49.329)" fill="#fff"/><path d="M223.343,112.573c.239-.679.418-1.253,1.186-1.253a.817.817,0,0,1,.858.791,2.232,2.232,0,0,1-.134.752l-4.772,13.331c-.223.64-.462,1.058-1.125,1.058s-.9-.418-1.119-1.058l-4.772-13.331a2.207,2.207,0,0,1-.134-.752.817.817,0,0,1,.858-.791c.768,0,.947.574,1.186,1.253l3.959,11.421h.045Z" transform="translate(-94.533 -49.329)" fill="#fff"/><path d="M240.158,125.416h4.667a.9.9,0,1,1,0,1.8h-5.569a.957.957,0,0,1-1.036-1.058V112.608a.954.954,0,0,1,1.036-1.058h5.569a.9.9,0,1,1,0,1.8h-4.667v5.129h4.249a.9.9,0,1,1,0,1.8h-4.249Z" transform="translate(-105.562 -49.431)" fill="#fff"/><path d="M25.348,3.27a1.5,1.5,0,1,1-.006,0Zm-.006.234a1.238,1.238,0,0,0-1.2,1.27,1.244,1.244,0,0,0,1.208,1.275,1.228,1.228,0,0,0,1.2-1.27,1.236,1.236,0,0,0-1.2-1.275Zm-.278,2.144H24.8V3.972a2.743,2.743,0,0,1,.473-.039.892.892,0,0,1,.523.128.4.4,0,0,1,.156.345.409.409,0,0,1-.329.407v.011c.145.028.245.161.278.407a1.259,1.259,0,0,0,.106.412h-.278a1.289,1.289,0,0,1-.111-.429.315.315,0,0,0-.362-.3h-.189v.729Zm0-.93h.195c.223,0,.407-.078.407-.29,0-.145-.106-.3-.407-.3a1.6,1.6,0,0,0-.195.011v.574Z" transform="translate(-10.569 -1.449)" fill="#fff"/><path d="M129.621,163.184v.156a.9.9,0,0,0,1,.952c.6,0,1.064-.228,1.064-.863,0-1.181-2.679-1.047-2.679-2.651,0-.947.752-1.448,1.749-1.448,1.091,0,1.7.473,1.654,1.559h-.8c.011-.585-.2-.969-.919-.969-.457,0-.919.206-.919.785,0,1.175,2.679,1,2.679,2.7,0,1.125-.869,1.487-1.849,1.487-1.76.017-1.76-1.192-1.743-1.7h.752Z" transform="translate(-57.099 -70.604)" fill="#fff"/><path d="M137.316,164.865V159.53h2.957v.59h-2.2v1.715h2.083v.59h-2.083v2.439h-.757Z" transform="translate(-60.846 -70.692)" fill="#fff"/><rect width="0.763" height="5.335" transform="translate(80.29 88.837)" fill="#fff"/><rect width="1.821" height="0.568" transform="translate(82.283 91.872)" fill="#fff"/><path d="M155.471,162.417c0,1.337.006,2.651-1.548,2.651s-1.543-1.314-1.543-2.651-.022-2.667,1.543-2.667,1.548,1.286,1.548,2.667m-2.333.134c0,.863-.056,1.949.785,1.949s.785-1.086.785-1.949c0-1.381-.006-2.233-.785-2.233s-.785.852-.785,2.233" transform="translate(-67.524 -70.79)" fill="#fff"/><path d="M162.061,162.417c0,1.337.006,2.651-1.543,2.651s-1.548-1.314-1.548-2.651-.022-2.667,1.548-2.667,1.543,1.286,1.543,2.667m-2.328.134c0,.863-.056,1.949.785,1.949s.785-1.086.785-1.949c0-1.381-.006-2.233-.785-2.233s-.785.852-.785,2.233" transform="translate(-70.444 -70.79)" fill="#fff"/><path d="M168.641,162.417c0,1.337.006,2.651-1.543,2.651s-1.548-1.314-1.548-2.651-.022-2.667,1.548-2.667,1.543,1.286,1.543,2.667m-2.328.134c0,.863-.056,1.949.785,1.949s.785-1.086.785-1.949c0-1.381-.006-2.233-.785-2.233s-.785.852-.785,2.233" transform="translate(-73.36 -70.79)" fill="#fff"/><path d="M175.231,162.417c0,1.337.006,2.651-1.543,2.651s-1.548-1.314-1.548-2.651-.022-2.667,1.548-2.667,1.543,1.286,1.543,2.667m-2.328.134c0,.863-.056,1.949.785,1.949s.785-1.086.785-1.949c0-1.381-.006-2.233-.785-2.233s-.785.852-.785,2.233" transform="translate(-76.28 -70.79)" fill="#fff"/><path d="M181.2,165.029h-.763v-4.383l-.858.518v-.652a7.778,7.778,0,0,0,.969-.613h.652Z" transform="translate(-79.577 -70.856)" fill="#fff"/></g></svg>