<?xml version="1.0" encoding="UTF-8"?><svg id="a" xmlns="http://www.w3.org/2000/svg" width="211" height="118.601997375488281" xmlns:xlink="http://www.w3.org/1999/xlink" viewBox="0 0 211 118.601997375488281"><defs><clipPath id="c"><rect x="54.27398681640625" y="20.128997802734375" width="102.4520263671875" height="78.344001770019531" fill="none"/></clipPath></defs><g id="b"><g clip-path="url(#c)"><path d="M156.026985168457031,49.598997116088867h0l-29.462997436523438-28.417999267578125c-.717887878417969-.691848397254944-1.681167602539062-1.070252412930131-2.678001403808594-1.052000045776367l-52.380998611450195.693000018596649c-.1982421875-.013781309127808-.397430419921875.002059400081635-.591001510620117.046999990940094-.670426368713379.155355155467987-1.212187767028809.647521734237671-1.430999755859375,1.299999952316284l-2.408999443054199,7.052000045776367c-.307050704956055.918150901794434-.064118385314941,1.93101692199707.62600040435791,2.609999656677246l12.362998962402344,12.097999572753906-24.031000137329102,9.100002288818359c-.874415814876556-.091953277587891-1.657812260091305.5423583984375-1.749764988198876,1.416774749755859-.007202383829281.068489074707031-.009952962747775.137374877929688-.008234431967139.206222534179688l.330000013113022,24.038997650146484c.003099530935287,1.1292724609375.655773192644119,2.155960083007812,1.6769999563694,2.638004302978516l35.749000549316406,16.865001678466797c.388774871826172.184196472167969.813800811767578.2791748046875,1.243999481201172.277999877929688.336631774902344.000259399414062.670810699462891-.057243347167969.987998962402344-.169998168945312l46.653999328613281-16.989997863769531c1.151275634765625-.422580718994141,1.918266296386719-1.516628265380859,1.922996520996094-2.743000030517578l.084999084472656-17.768001556396484,8.964996337890625-.250999450683594c1.051666259765625-.033237457275391,1.97357177734375-.712432861328125,2.317001342773438-1.707000732421875l2.417999267578125-7.094999313354492c.264778137207031-.770683288574219.029289245605469-1.624868392944336-.593002319335938-2.150999069213867M123.915985107421875,22.2389976978302c.442855834960938-.018190145492554.873054504394531.150117635726929,1.185997009277344.46399998664856l27.448005676269531,26.474999904632568-49.610000610351562,1.399999618530273c-.213996887207031.007959365844727-.421875-.072298049926758-.575000762939453-.222000122070312l-28.055999755859375-27.459999322891235,49.606998443603516-.657000064849854ZM69.173986434936523,30.320998191833496c-.111698150634766-.110153198242188-.150548934936523-.274490356445312-.100000381469727-.423000335693359l2.347999572753906-6.875999927520752,29.465000152587891,28.835999965667725c.027000427246094.025999069213867.056999206542969.049999237060547.084999084472656.075000762939453l-2.431999206542969,7.127998352050781-29.365999221801758-28.739998817443848ZM92.12298583984375,95.904998779296875l-34.948998928070068-16.482002258300781c-.286694049835205-.137523651123047-.467391490936279-.429058074951172-.463000059127808-.747001647949219l-.315000057220459-23.246997833251953,35.643998861312866,17.033000946044922c.0260009765625.012001037597656.055999755859375.016998291015625.083000183105469.028999328613281v23.41400146484375ZM92.938987731933594,70.551998138427734l-34.129001140594482-16.312999725341797,22.915999889373779-8.681999206542969,15.979999542236328,15.640998840332031c.538909912109375.523597717285156,1.259624481201172.818191528320312,2.011001586914062.821998596191406h.089000701904297l18.035999298095703-.506999969482422-24.309001922607422,9.064002990722656c-.194000244140625.069602966308594-.407524108886719.060630798339844-.595001220703125-.025001525878906M140.723983764648438,78.563999176025391c-.00091552734375.341991424560547-.2142333984375.647411346435547-.535003662109375.765998840332031l-45.95599365234375,16.734996795654297v-23.5c.011001586914062,0,.022998809814453,0,.033000946044922-.007999420166016l30.107997894287109-11.227996826171875,16.437004089355469-.465000152587891-.087005615234375,17.700000762939453ZM152.205986022949219,58.15899658203125c-.053794860839844.163974761962891-.204505920410156.276710510253906-.376998901367188.282001495361328l-8.900001525878906.249000549316406h0l-18.965995788574219.538997650146484h0l-23.474998474121094.659999847412109,2.458000183105469-7.200000762939453h.046001434326172l51.573993682861328-1.459997177124023-2.360000610351562,6.929998397827148Z" fill="#fff"/><path d="M79.511001586914062,68.035999298095703l-9.746999740600586-4.199996948242188c-.863431930541992-.368766784667969-1.862325668334961.032234191894531-2.231094360351562.895668029785156-.120861053466797.282981872558594-.162649154663086.593460083007812-.120904922485352.898330688476562l.653999328613281,3.413002014160156c.153598785400391.994522094726562.802913665771484,1.842437744140625,1.722999572753906,2.25l7.400001525878906,3.243003845214844h0c.860603332519531.375320434570312,1.862518310546875-.018081665039062,2.237834930419922-.878684997558594.002079010009766-.0047607421875.004131317138672-.009529113769531.00616455078125-.014312744140625l1.323001861572266-2.456001281738281.064998626708984-.147003173828125c.421974182128906-1.190322875976562-.150718688964844-2.504013061523438-1.310001373291016-3.004997253417969M77.680000305175781,72.447010040283203l-7.044000625610352-3.086997985839844c-.260824203491211-.115386962890625-.44401741027832-.35675048828125-.485000610351562-.638999938964844l-.5-2.638999938964844,9.029001235961914,3.890998840332031c.121044158935547.05267333984375.191009521484375.180671691894531.169998168945312.310997009277344l-1.169998168945312,2.163002014160156Z" fill="#fff"/></g></g></svg>