<?xml version="1.0" encoding="UTF-8"?><svg id="a" xmlns="http://www.w3.org/2000/svg" width="211" height="118.601997375488281" xmlns:xlink="http://www.w3.org/1999/xlink" viewBox="0 0 211 118.601997375488281"><defs><clipPath id="c"><rect x="59.488494873046875" y="22.515998840332031" width="92.02301025390625" height="73.569999694824219" fill="none"/></clipPath></defs><g id="b"><g clip-path="url(#c)"><path d="M150.654495239257812,40.458999633789062c-.136871337890625-.094432830810547-.285026550292969-.171363830566406-.441001892089844-.229000091552734l-37.024997711181641-17.36000069975853c-.901901245117188-.420657016336918-1.933525085449219-.467745035886765-2.869998931884766-.130999997258186l-49.343001842498779,17.569999262690544c-.196345329284668.051591873168945-.383786678314209.132501602172852-.555999994277954.239999771118164-.580898433923721.36376953125-.932897992082871,1.001604080200195-.930999994277954,1.687000274658203v7.448999404907227c.003087404649705.969535827636719.559546053409576,1.852182388305664,1.432999968528748,2.273000717163086l.128000020980835.061000823974609.33899998664856,24.291997909545898c.005938053131104,1.126567840576172.65597665309906,2.150386810302734,1.672999978065491,2.635002136230469l35.753999710083008,16.864997863769531c.697784423828125.326515197753906,1.496696472167969.36248779296875,2.221000671386719.099998474121094l46.651996612548828-16.984996795654297c1.1514892578125-.421726226806641,1.918716430664062-1.515720367431641,1.922996520996094-2.742000579833984l.119003295898438-24.180999755859375.138999938964844-.051000595092773c.983535766601562-.370386123657227,1.635841369628906-1.310043334960938,1.638999938964844-2.361000061035156v-7.491998672485352c-.000724792480469-.653539657592773-.320701599121094-1.2655029296875-.857002258300781-1.638999938964844M98.902496337890625,93.515998840332031l-34.941001415252686-16.478000640869141c-.283921718597412-.134807586669922-.465180397033691-.420700073242188-.466000080108643-.735000610351562l-.322000026702881-23.268999099731445,35.6419997215271,17.036001205444336c.027999877929688.01300048828125.058998107910156.018001556396484.087001800537109.030998229980469v23.415000915527344ZM98.902496337890625,67.765998840332031l-36.552001476287842-17.464000701904297-.519000053405762-.24799919128418c-.14139199256897-.068672180175781-.231388807296753-.211814880371094-.23199987411499-.368999481201172v-7.269001007080078l37.200000762939453,17.777002334594727c.033000946044922.014999389648438.069000244140625.021999359130859.099998474121094.035999298095703l.003002166748047,7.536998748779297ZM99.710494995117188,58.287998199462891l-35.415999889373779-16.920999526977539,46.733001232147217-16.639999866485596c.414958953857422-.150409460067749.87255859375-.130638837814331,1.272998809814453.055000066757202l34.523998260498047,16.190001249313354-46.505996704101562,17.343997955322266c-.198017120361328.073352813720703-.417266845703125.063617706298828-.608001708984375-.027000427246094M147.503494262695312,76.180000305175781c-.000556945800781.341094970703125-.213714599609375.645668029785156-.53399658203125.76300048828125l-45.957004547119141,16.733001708984375v-23.5l.032001495361328-.007999420166016,46.573997497558594-17.375003814697266-.114997863769531,23.387001037597656ZM149.403495788574219,49.592000961303711c.000076293945312.170404434204102-.105506896972656.323003768920898-.264999389648438.382999420166016l-.425003051757812.159000396728516-47.700000762939453,17.788999557495117v-7.617000579833984c.013999938964844-.005001068115234.028999328613281-.006000518798828.042999267578125-.012001037597656l48.344005584716797-18.030000686645508.002998352050781,7.3280029296875Z" fill="#fff"/><path d="M86.291507720947266,65.648998260498047l-9.746999740600586-4.199996948242188c-.863180160522461-.369354248046875-1.862348556518555.030967712402344-2.23170280456543.894149780273438-.121271133422852.283401489257812-.163198471069336.594451904296875-.121297836303711.899848937988281l.653999328613281,3.41400146484375c.146215438842773.997657775878906.797964096069336,1.848747253417969,1.722999572753906,2.25l7.399999618530273,3.243003845214844c.860401153564453.375785827636719,1.862525939941406-.017074584960938,2.238311767578125-.877471923828125.002254486083984-.005165100097656.004482269287109-.010337829589844.006687164306641-.015525817871094l1.326004028320312-2.456008911132812.064998626708984-.146003723144531c.422592163085938-1.19061279296875-.150203704833984-2.504981994628906-1.310001373291016-3.005996704101562M84.463504791259766,70.061000823974609l-7.044000625610352-3.086997985839844c-.262298583984375-.113296508789062-.445995330810547-.355819702148438-.483999252319336-.638999938964844l-.506000518798828-2.638999938964844,9.026004791259766,3.888999938964844c.120887756347656.052299499511719.190887451171875.179946899414062.169998168945312.30999755859375l-1.162002563476562,2.166000366210938Z" fill="#fff"/></g></g></svg>