<?xml version="1.0" encoding="UTF-8"?><svg id="a" xmlns="http://www.w3.org/2000/svg" width="211" height="118.601997375488281" xmlns:xlink="http://www.w3.org/1999/xlink" viewBox="0 0 211 118.601997375488281"><defs><clipPath id="c"><rect x="50.691009521484375" y="16.179000854492188" width="109.61798095703125" height="86.243995666503906" fill="none"/></clipPath></defs><g id="b"><g clip-path="url(#c)"><path d="M159.191009521484375,19.718000888824463l-6.735000610351562-3.286000043153763c-.861175537109375-.417025774717331-1.883934020996094-.312543801963329-2.642997741699219.270000010728836l-48.799999237060547,17.311001539230347-.213001251220703.075000762939453-.16400146484375.156999588012695c-.489017486572266.471065521240234-.799045562744141,1.097490310668945-.876998901367188,1.771999359130859l-1.784000396728516,3.173999786376953-46.067000389099121,17.965000152587891c-.164046049118042.065067291259766-.308899283409119.170696258544922-.421000003814697.306999206542969-.509995251893997.367832183837891-.808572803623974.961254119873047-.800000011920929,1.590000152587891l.332000017166138,23.510002136230469c.001718133687973,1.129508972167969.652102708816528,2.157600402832031,1.671999990940094,2.642997741699219l35.76300048828125,16.865997314453125c.025001525878906.012001037597656.053001403808594.016998291015625.080001831054688.027999877929688v.199996948242188l.618999481201172.0260009765625c.284099578857422.1331787109375.613578796386719.128753662109375.894001007080078-.012001037597656.211647033691406-.022911071777344.419994354248047-.069877624511719.620998382568359-.139999389648438l46.652996063232422-16.988998413085938c1.150489807128906-.420730590820312,1.917633056640625-1.51300048828125,1.922996520996094-2.737998962402344l.119003295898438-24.306999206542969.885002136230469-.312000274658203.166000366210938-.162998199462891c.310371398925781-.301834106445312.566741943359375-.65460205078125.758003234863281-1.042999267578125l2.640998840332031-5.361000061035156,15.951995849609375-28.390000820159912c.269630432128906-.283616065979004.448585510253906-.641177177429199.513999938964844-1.026999950408936,0-.014999866485596.009002685546875-.027999877929688.011001586914062-.044000148773193v-.060999870300293c.103828430175781-.839692115783691-.338470458984375-1.652306795120239-1.099998474121094-2.020999908447266M96.345008850097656,42.093000411987305l-15.799999237060547,28.117998123168945-25.303999900817871-12.089996337890625,41.103999137878418-16.02800178527832ZM88.534008026123047,99.778999328613281l-34.94299840927124-16.482002258300781c-.286231279373169-.1387939453125-.466041803359985-.430931091308594-.460999965667725-.749000549316406l-.325000047683716-23.251995086669922,26.865000009536743,12.836997985839844c.028785705566406.934814453125.57054328918457,1.777637481689453,1.409000396728516,2.192001342773438l6.700000762939453,3.266998291015625c.237564086914062.112838745117188.495269775390625.177097320556641.757999420166016.188999176025391l-.003002166748047,21.998001098632812ZM89.124008178710938,74.499000549316406h-.008998870849609l-.581001281738281,1.032001495361328v.084999084472656l-6.527000427246094-3.182998657226562c-.080533981323242-.040054321289062-.146083831787109-.104900360107422-.187000274658203-.185001373291016l17.666000366210938-31.436000823974609c.214401245117188-.170572280883789.353641510009766-.418188095092773.38800048828125-.690000534057617l1.700000762939453-3.024999618530273,6.96099853515625,3.399999618530273-19.410999298095703,34.00200080871582ZM141.960006713867188,50.250999450683594l-2.680999755859375,5.439998626708984c-.055068969726562.110683441162109-.122138977050781.214973449707031-.199996948242188.311000823974609l-26.079002380371094,9.200000762939453c-.542438507080078.2142333984375-.808502197265625.827640533447266-.594268798828125,1.370079040527344.202793121337891.513469696044922.766864776611328.784080505371094,1.294269561767578.620922088623047l23.545001983642578-8.308998107910156-.114997863769531,23.555999755859375c-.001670837402344.340347290039062-.215164184570312.643630981445312-.535003662109375.760002136230469l-45.951000213623047,16.73699951171875v-23.847003936767578l19.931999206542969-34.918998718261719.138999938964844-.243000030517578v-.259000778198242c.057819366455078-.065586090087891.107200622558594-.138149261474609.146999359130859-.215999603271484.038051605224609-.079776763916016.06561279296875-.164144515991211.082000732421875-.250999450683594l45.694000244140625-16.075000762939453-14.678001403808594,26.123998641967773ZM109.879009246826172,38.339000701904297l-.209999084472656.073999404907227-.162998199462891.152000427246094c-.012001037597656.01099967956543-.020000457763672.024999618530273-.030998229980469.035999298095703l-6.352001190185547-3.100000381469727,47.784000396728516-16.947998523712158.161003112792969-.151999950408936c.1229248046875-.119056940078735.307304382324219-.148253679275513.46099853515625-.072999954223633l6.383003234863281,3.11400032043457-48.033008575439453,16.896999359130859Z" fill="#fff"/><path d="M75.922996520996094,71.909000396728516l-9.744998931884766-4.199996948242188c-.86296272277832-.369865417480469-1.86236572265625.029876708984375-2.232227325439453.892837524414062-.121486663818359.283454895019531-.163581848144531.594619750976562-.121772766113281.900161743164062l.653999328613281,3.41400146484375c.152154922485352.99609375.801719665527344,1.845840454101562,1.723001480102539,2.253997802734375l7.399999618530273,3.241996765136719c.860313415527344.375984191894531,1.862529754638672-.016647338867188,2.238513946533203-.876960754394531.002185821533203-.0050048828125.004348754882812-.010017395019531.006484985351562-.015037536621094l1.321998596191406-2.456001281738281.064998626708984-.146003723144531c.422592163085938-1.19061279296875-.150203704833984-2.504981994628906-1.310001373291016-3.005996704101562M74.092990875244141,76.324001312255859l-7.044992446899414-3.089996337890625c-.261795043945312-.113937377929688-.445240020751953-.356132507324219-.483999252319336-.638999938964844l-.504999160766602-2.638999938964844,9.029001235961914,3.890998840332031c.120887756347656.052299499511719.190887451171875.179946899414062.169998168945312.30999755859375l-1.165008544921875,2.166999816894531Z" fill="#fff"/><path d="M107.4420166015625,67.668998718261719l-10.699996948242188,3.7760009765625c-.549530029296875.195343017578125-.836654663085938.799171447753906-.641311645507812,1.348701477050781.149337768554688.420112609863281.54644775390625.701164245605469.9923095703125.702301025390625.119529724121094-.000213623046875.238182067871094-.020500183105469.350997924804688-.05999755859375l10.699996948242188-3.7760009765625c.54541015625-.204986572265625.821388244628906-.813301086425781.616401672363281-1.358711242675781-.198844909667969-.529083251953125-.779342651367188-.807464599609375-1.316398620605469-.63128662109375" fill="#fff"/></g></g></svg>