<?xml version="1.0" encoding="UTF-8"?><svg id="a" xmlns="http://www.w3.org/2000/svg" width="211" height="118.601997375488281" xmlns:xlink="http://www.w3.org/1999/xlink" viewBox="0 0 211 118.601997375488281"><defs><clipPath id="c"><rect x="56.975006103515625" y="26.804500579833984" width="97.04998779296875" height="64.992996215820312" fill="none"/></clipPath></defs><g id="b"><g clip-path="url(#c)"><path d="M153.989006042480469,42.597500801086426l.008003234863281-.019000053405762-16.452003479003906-6.291000366210938-.036003112792969-.100000381469727-.120002746582031.041999816894531-24.635993957519531-9.424999237060547-55.705999881029129,18.600000381469727-.061000000685453-.028999328613281v.048999786376953h-.010999999940395l.012000000104308.035999298095703.367999998852611,26.56300163269043c.006010740995407,1.127388000488281.657476902008057,2.151622772216797,1.675999999046326,2.634998321533203l35.754001379013062,16.865001678466797c.697364807128906.326789855957031,1.496078491210938.362762451171875,2.220001220703125.099998474121094l54.969997406005859-19.866001129150391c1.151519775390625-.421115875244141,1.91888427734375-1.514900207519531,1.922996520996094-2.741001129150391l.129997253417969-26.430999755859375-.038993835449219.012001991271973ZM112.704006195068359,29.046500682830811l21.621997833251953,8.27000093460083-54.027999877929688,19.200000762939453-2.767000198364258-1.322000503540039c.396240234375-.459194183349609.900331497192383-.812778472900391,1.467000961303711-1.028999328613281.363431930541992.537258148193359,1.016929626464844.799686431884766,1.6510009765625.663000106811523.884000778198242-.08799934387207,1.555999755859375-.607999801635742,1.5-1.163999557495117s-.815000534057617-.937000274658203-1.700000762939453-.850000381469727c-.634811401367188-.004518508911133-1.213760375976562.362161636352539-1.480998992919922.937999725341797-.708227157592773.245941162109375-1.333711624145508.684749603271484-1.805999755859375,1.267000198364258l-17.375-8.30000114440918,52.916999816894531-17.673000812530518ZM94.875007629394531,89.230499267578125l-34.944001436233521-16.480998992919922c-.283931970596313-.134273529052734-.465281963348389-.419921875-.466000080108643-.734001159667969l-.321000099182129-23.266998291015625,17.247000455856323,8.243000030517578c-.062231063842773.683940887451172-.009500503540039,1.37347412109375.156000137329102,2.040000915527344-.495147705078125.267189025878906-.786371231079102.801036834716797-.743000030517578,1.36199951171875-.06707763671875.620368957519531.307771682739258,1.203472137451172.899999618530273,1.400001525878906.381000518798828.98699951171875,1.965000152587891,1,3.524999618530273.987998962402344h.781999588012695c-.128604888916016.140705108642578-.236063003540039.299365997314453-.319000244140625.471000671386719-.203990936279297.459018707275391-.105533599853516.996170043945312.24799919128418,1.353000640869141.384109497070312.447799682617188.93836784362793.714046478271484,1.527999877929688.734001159667969.12890625.001029968261719.257268905639648-.016826629638672.381000518798828-.053001403808594.542638778686523-.184829711914062.909727096557617-.691780090332031.916000366210938-1.264999389648438.065185546875-.353973388671875-.030460357666016-.718597412109375-.26099967956543-.994998931884766-.348167419433594-.327720642089844-.799005508422852-.524875640869141-1.2760009765625-.557998657226562l.069000244140625-.020999908447266c.528818130493164-.16778564453125,1.103950500488281-.103843688964844,1.583000183105469.175998687744141.312953948974609.272285461425781.575910568237305.597175598144531.777000427246094.959999084472656.593000411987305.900001525878906,1.406000137329102,2.129001617431641,2.722999572753906,1.469001770019531.105365753173828-.033145904541016.163913726806641-.145431518554688.130767822265625-.250797271728516s-.145431518554688-.163913726806641-.250797271728516-.130767822265625c-.020395278930664.006416320800781-.039628982543945.016059875488281-.056970596313477.028564453125-.930000305175781.462001800537109-1.504999160766602-.259998321533203-2.215999603271484-1.333999633789062-.229188919067383-.412399291992188-.534597396850586-.777534484863281-.899999618530273-1.076000213623047-.573295593261719-.339687347412109-1.263629913330078-.420711517333984-1.899999618530273-.222999572753906-.258815765380859.0723876953125-.505006790161133.184017181396484-.729999542236328.331001281738281-.391000747680664-.019001007080078-.805999755859375-.016998291015625-1.231000900268555-.018001556396484-1.340000152587891.006999969482422-2.722000122070312,0-3.110000610351562-.645000457763672.476154327392578-.276351928710938.753236770629883-.799858093261719.714000701904297-1.3489990234375.065877914428711-.616455078125-.302261352539062-1.196857452392578-.88800048828125-1.400001525878906-.151010513305664-.59416389465332-.210361480712891-1.207910537719727-.176000595092773-1.819999694824219l18.019002914428711,8.617996215820312c.027999877929688.01300048828125.058998107910156.018001556396484.087001800537109.029998779296875l.002998352050781,23.416999816894531ZM81.050006866455078,63.430500030517578c.122997283935547-.247272491455078.302928924560547-.461818695068359.524999618530273-.625999450683594.584409713745117-.036548614501953,1.162702560424805.136478424072266,1.631000518798828.487998962402344.154750823974609.190963745117188.215679168701172.441276550292969.166000366210938.681999206542969.001327514648438.413368225097656-.251823425292969.784950256347656-.636999130249023.935001373291016-.564088821411133.098625183105469-1.13751220703125-.114688873291016-1.5-.557998657226562-.244102478027344-.241680145263672-.320091247558594-.605869293212891-.193000793457031-.924999237060547M95.685005187988281,63.873500823974609l-12.698999404907227-6.069000244140625,54.375001907348633-19.328000068664551,13.6510009765625,5.220999717712402-54.727001190185547,20.206998825073242c-.195266723632812.072414398193359-.411430358886719.063404083251953-.599998474121094-.025001525878906M151.779006958007812,69.014499664306641c-.000373840332031.340309143066406-.212661743164062.644378662109375-.531997680664062.762001037597656l-54.264003753662109,19.612998962402344v-23.5c.008998870849609,0,.020000457763672,0,.027999877929688-.006999969482422l54.888004302978516-20.261999130249023-.120002746582031,23.393999099731445Z" fill="#fff"/><path d="M81.464019775390625,65.829502105712891l-8.283000946044922-3.938003540039062c-.480701446533203-.230361938476562-1.006952285766602-.349967956542969-1.540000915527344-.349998474121094-.996589660644531.004623413085938-1.947086334228516.420356750488281-2.62700080871582,1.149002075195312-1.404287338256836,1.515495300292969-1.314132690429688,3.882453918457031.201366424560547,5.2867431640625.269498825073242.249717712402344.574316024780273.458381652832031.904634475708008.619255065917969l8.281999588012695,3.938003540039062c.480644226074219.230522155761719,1.006933212280273.350135803222656,1.539999008178711.349998474121094.996589660644531-.004623413085938,1.947086334228516-.420356750488281,2.626998901367188-1.149002075195312,1.404472351074219-1.515327453613281,1.314605712890625-3.882293701171875-.200717926025391-5.286766052246094-.269393920898438-.249679565429688-.574089050292969-.458335876464844-.904281616210938-.619232177734375M79.943016052246094,70.773502349853516c-.219581604003906-.000740051269531-.436210632324219-.050628662109375-.633998870849609-.146003723144531l-8.283000946044922-3.938003540039062c-.519306182861328-.254180908203125-.861083984375-.768760681152344-.893999099731445-1.346000671386719-.076484680175781-.854835510253906.554494857788086-1.609817504882812,1.409330368041992-1.686302185058594.033153533935547-.002967834472656.066394805908203-.004867553710938.09967041015625-.005699157714844.219581604003906.000740051269531.436212539672852.050628662109375.634000778198242.146003723144531l8.282999038696289,3.938003540039062c.519996643066406.254081726074219.86224365234375.769172668457031.895000457763672,1.347000122070312.076469421386719.854835510253906-.554519653320312,1.609809875488281-1.409358978271484,1.686279296875-.033473968505859.002998352050781-.067039489746094.004905700683594-.100639343261719.005722045898438" fill="#fff"/></g></g></svg>