<?xml version="1.0" encoding="UTF-8"?><svg id="a" xmlns="http://www.w3.org/2000/svg" width="211" height="118.601997375488281" xmlns:xlink="http://www.w3.org/1999/xlink" viewBox="0 0 211 118.601997375488281"><defs><clipPath id="c"><rect x="37.009490966796875" y="7.494003295898438" width="136.98101806640625" height="103.613990783691406" fill="none"/></clipPath></defs><g id="b"><g clip-path="url(#c)"><path d="M63.812503814697266,50.627002716064453l-9.746000289916992-4.199996948242188c-.863214492797852-.369277954101562-1.862344741821289.031143188476562-2.231620788574219.894355773925781-.121078491210938.283035278320312-.163030624389648.5936279296875-.121379852294922.898643493652344l.653999328613281,3.41400146484375c.153421401977539.994598388671875.80279541015625,1.84259033203125,1.722999572753906,2.25l7.399999618530273,3.241996765136719c.860313415527344.375984191894531,1.862529754638672-.016647338867188,2.238513946533203-.876960754394531.002185821533203-.0050048828125.004348754882812-.010017395019531.006484985351562-.015037536621094l1.325004577636719-2.454002380371094.064998626708984-.146003723144531c.422592163085938-1.19061279296875-.150203704833984-2.504981994628906-1.310001373291016-3.005996704101562M61.985500335693359,55.040004730224609l-7.045000076293945-3.086997985839844c-.261795043945312-.113937377929688-.445240020751953-.356132507324219-.483999252319336-.638999938964844l-.504999160766602-2.638999938964844,9.025003433227539,3.88800048828125c.120887756347656.052299499511719.190887451171875.179946899414062.169998168945312.30999755859375l-1.161003112792969,2.166999816894531Z" fill="#fff"/><path d="M172.728485107421875,55.274002075195312h0l-37.055992126464844-17.379999160766602c-.904296875-.424806594848633-1.940391540527344-.472654342651367-2.879997253417969-.132999420166016l-5.553001403808594,1.980001449584961.014999389648438-2.757999420166016.138999938964844-.052000045776367c.983139038085938-.370712280273438,1.634994506835938-1.310295104980469,1.63800048828125-2.361000061035156v-7.493001937866211c.003082275390625-.83447265625-.516578674316406-1.581588745117188-1.300003051757812-1.868999481201172L90.709491729736328,7.849003285169601c-.901744842529297-.42109140008688-1.93341064453125-.468540869653225-2.869998931884766-.131999984383583l-49.351001858711243,17.576999232172966c-.193812966346741.051128387451172-.378868579864502.131013870239258-.549000024795532.23699951171875-.579021334648132.363527297973633-.930350913200527.999320983886719-.929999947547913,1.683000564575195v7.448999404907227c.002705152379349.969898223876953.559222340583801,1.853023529052734,1.432999968528748,2.27400016784668l.125.059999465942383.342000007629395,24.284999847412109c.005255818367004,1.129356384277344.656539559364319,2.156021118164062,1.675999999046326,2.641998291015625l35.745998620986938,16.863002777099609c.336906433105469.160186767578125.702354431152344.251632690429688,1.075000762939453.268997192382812.061000823974609,0,.119998931884766.005996704101562.180000305175781.005996704101562.331871032714844-.001251220703125.661037445068359-.059776306152344.972999572753906-.172996520996094l5.131999969482422-1.866996765136719.169998168945312,12.313003540039062c.005966186523438,1.126869201660156.657020568847656,2.150680541992188,1.674999237060547,2.634002685546875l35.756999969482422,16.864990234375c.697868347167969.326194763183594,1.49664306640625.362152099609375,2.221000671386719.099998474121094l46.653999328613281-16.986000061035156c1.15167236328125-.421478271484375,1.919021606445312-1.515625,1.923004150390625-2.741996765136719l.119003295898438-24.179000854492188.141006469726562-.051998138427734c.982635498046875-.370960235595703,1.63458251953125-1.309677124023438,1.639007568359375-2.360000610351562v-7.5c-.001922607421875-.816024780273438-.502334594726562-1.547996520996094-1.261993408203125-1.846000671386719M76.422489166259766,78.494003295898438l-34.93599796295166-16.476001739501953c-.290753841400146-.136085510253906-.4746994972229-.430007934570312-.46999979019165-.750999450683594l-.324000358581543-23.254999160766602,5.385000705718994,2.572999954223633,30.270999908447266,14.471000671386719.075000762939453.033000946044922-.001003265380859,23.404998779296875ZM76.422489166259766,52.736003875732422l-37.079998254776001-17.710000991821289c-.136139869689941-.069513320922852-.222154140472412-.209142684936523-.223000049591064-.36199951171875v-7.270000457763672l37.20000147819519,17.775999069213867c.033000946044922.015998840332031.069000244140625.022998809814453.099998474121094.036998748779297l.002998352050781,7.529003143310547ZM77.230487823486328,43.267005920410156l-35.41499662399292-16.921003341674805,46.733001232147217-16.640999317169189c.414775848388672-.149929523468018.872005462646484-.129800081253052,1.271999359130859.055999994277954l34.523998260498047,16.190000772476196-46.504997253417969,17.342998504638672c-.197978973388672.073585510253906-.417324066162109.0638427734375-.608001708984375-.027000427246094M126.921493530273438,27.243003845214844v7.326999664306641c-.000770568847656.16572380065918-.101470947265625.314601898193359-.254997253417969.37700080871582l-9.757003784179688,3.646999359130859-38.376003265380859,14.305997848510742v-7.614997863769531c.013999938964844,0,.028999328613281-.006000518798828.042999267578125-.011001586914062l48.345005035400391-18.030998229980469ZM83.421493530273438,55.343002319335938h0c-.857898712158203.242481231689453-1.45172119140625,1.023502349853516-1.456001281738281,1.915000915527344v7.450000762939453c.00115966796875.971126556396484.558517456054688,1.855743408203125,1.433998107910156,2.2760009765625l.125999450683594.061000823974609.134998321533203,9.743003845214844-5.127998352050781,1.865997314453125v-23.495002746582031l.034000396728516-.011001586914062,39.263999938964844-14.653999328613281,7.308998107910156-2.72599983215332-.013999938964844,2.72599983215332-41.703994750976562,14.8489990234375ZM121.378494262695312,108.542999267578125l-34.941001892089844-16.482994079589844c-.283542633056641-.134559631347656-.464466094970703-.420150756835938-.465000152587891-.734001159667969l-.321998596191406-23.266998291015625,6.067001342773438,2.900001525878906,29.575992584228516,14.134994506835938c.027000427246094.01300048828125.057998657226562.017997741699219.08599853515625.029998779296875l-.000991821289062,23.418998718261719ZM121.378494262695312,82.791999816894531l-27.988002777099609-13.373996734619141-9.091999053955078-4.346000671386719c-.136550903320312-.070457458496094-.222240447998047-.211345672607422-.222000122070312-.365001678466797v-7.263996124267578l2.599998474121094,1.240001678466797,22.461997985839844,10.736995697021484h0l12.140998840332031,5.799999237060547c.031997680664062.014999389648438.066001892089844.022003173828125.099998474121094.036003112792969l-.000991821289062,7.535995483398438ZM122.478492736816406,73.391998291015625c-.101844787597656-.003990173339844-.201835632324219-.028480529785156-.293998718261719-.071998596191406l-35.419002532958984-16.925994873046875,46.734996795654297-16.642002105712891c.416213989257812-.151645660400391.875656127929688-.131496429443359,1.277000427246094.055999755859375l34.519996643066406,16.186000823974609-46.514991760253906,17.352996826171875c-.095291137695312.037429809570312-.198165893554688.051490783691406-.300003051757812.041000366210938M169.98248291015625,91.2030029296875c-.001296997070312.341171264648438-.214706420898438.645515441894531-.535003662109375.76300048828125l-45.957984924316406,16.727996826171875v-23.5l.032997131347656-.008003234863281,35.74200439453125-13.334999084472656,10.83099365234375-4.03900146484375-.113006591796875,23.391006469726562ZM171.882476806640625,64.618003845214844c-.001876831054688.165435791015625-.102767944335938.313613891601562-.255996704101562.375999450683594l-10.829002380371094,4.040000915527344-37.3079833984375,13.909996032714844v-7.611000061035156l.042999267578125-.013999938964844,48.346992492675781-18.034996032714844.00299072265625,7.333999633789062Z" fill="#fff"/><path d="M108.767486572265625,80.671009063720703l-9.746002197265625-4.199996948242188c-.863182067871094-.369354248046875-1.862350463867188.030975341796875-2.231704711914062.894149780273438-.121269226074219.283401489257812-.163192749023438.594451904296875-.121292114257812.899856567382812l.653999328613281,3.412994384765625c.153800964355469.994735717773438.80352783203125,1.842697143554688,1.7239990234375,2.25l7.400001525878906,3.242996215820312c.860603332519531.375320434570312,1.862518310546875-.018081665039062,2.237838745117188-.878692626953125.0020751953125-.0047607421875.004127502441406-.009536743164062.00616455078125-.014312744140625l1.322998046875-2.45599365234375.06500244140625-.147003173828125c.421981811523438-1.190322875976562-.150711059570312-2.504013061523438-1.30999755859375-3.0050048828125M106.937492370605469,85.082004547119141l-7.043998718261719-3.087005615234375c-.260948181152344-.115234375-.444198608398438-.356674194335938-.485000610351562-.639007568359375l-.5-2.638992309570312,9.029998779296875,3.891006469726562c.120750427246094.052352905273438.190406799316406.180145263671875.168998718261719.30999755859375l-1.169998168945312,2.16400146484375Z" fill="#fff"/></g></g></svg>