<?xml version="1.0" encoding="UTF-8"?><svg id="a" xmlns="http://www.w3.org/2000/svg" width="211" height="118.601997375488281" xmlns:xlink="http://www.w3.org/1999/xlink" viewBox="0 0 211 118.601997375488281"><defs><clipPath id="c"><rect x="61.16400146484375" y="33.120998382568359" width="88.6719970703125" height="52.360000610351562" fill="none"/></clipPath></defs><g id="b"><g clip-path="url(#c)"><path d="M149.025001525878906,45.60099983215332c-.228485107421875-.157032012939453-.488571166992188-.26215934753418-.762001037597656-.308000564575195-.197364807128906-.162456512451172-.483535766601562-.157369613647461-.675003051757812.011999130249023-.084815979003906.011711120605469-.168693542480469.029422760009766-.250999450683594.052999496459961l-35.772994995117188,9.316001892089844c-.024887084960938-.28887939453125-.279247283935547-.502885818481445-.568126678466797-.477998733520508-.268394470214844.023124694824219-.475734710693359.245637893676758-.479873657226562.514997482299805v.236000061035156l-10,2.599998474121094-.082000732421875.0260009765625c-.201633453369141-.080295562744141-.424110412597656-.091896057128906-.632999420166016-.033000946044922l-.036998748779297-.016998291015625-35.359002351760864-11.702999114990234c.279732465744019-.076766967773438.444267749786377-.365768432617188.367500305175781-.645500183105469-.076767683029175-.279731750488281-.365767955780029-.444267272949219-.645500421524048-.367500305175781h0l-.586999893188477.146999359130859-.052999973297119.016000747680664c-.328702807426453.121976852416992-.626689314842224.314489364624023-.873000025749207.563999176025391-.204081535339355.045642852783203-.399100780487061.125070571899414-.577000021934509.235000610351562-.553501307964325.352317810058594-.884122367016971.966978073120117-.872999906539917,1.623001098632812l.326999992132187,23.589998245239258c.005073696374893,1.127067565917969.655320316553116,2.151607513427734,1.673000007867813,2.636001586914062l.061000108718872.027999877929688,35.765000104904175,11.591999053955078c.664295196533203.290782928466797,1.413261413574219.322879791259766,2.099998474121094.090000152587891l46.607997894287109-11.700000762939453.099998474121094-.032001495361328c1.151542663574219-.421268463134766,1.919151306152344-1.514827728271484,1.924003601074219-2.741001129150391l.116996765136719-23.691999435424805c.002311706542969-.622735977172852-.300689697265625-1.207073211669922-.810997009277344-1.563999176025391M147.609001159667969,70.852001190185547c0,.012001037597656,0,.023998260498047-.004997253417969.035999298095703l-1.137001037597656-.380001068115234c-.270042419433594-.11004638671875-.578170776367188.019657135009766-.688217163085938.289703369140625-.11004638671875.270042419433594.019660949707031.578166961669922.289703369140625.688213348388672.021659851074219.008827209472656.043876647949219.016204833984375.066513061523438.022083282470703l.575996398925781.191001892089844-45.592998504638672,11.444999694824219v-5.270000457763672c0-.582935333251953-.472564697265625-1.055500030517578-1.055500030517578-1.055500030517578s-1.055500030517578.472564697265625-1.055500030517578,1.055500030517578v5.145999908447266l-34.987998485565186-11.334999084472656c-.257508754730225-.143627166748047-.417359113693237-.415145874023438-.417999982833862-.709999084472656l-.322000026702881-23.301002502441406,35.706998586654663,11.821998596191406.021999359130859.006999969482422v14.935001373291016c0,.582935333251953.472564697265625,1.055500030517578,1.055500030517578,1.055500030517578s1.055500030517578-.472564697265625,1.055500030517578-1.055500030517578h0v-12l1.045001983642578-.271999359130859c.278873443603516-.085224151611328.435859680175781-.380382537841797.350639343261719-.659255981445312-.080238342285156-.262561798095703-.348304748535156-.419818878173828-.61663818359375-.361743927001953l-.780998229980469.200000762939453v-1.766002655029297l46.60699462890625-12.140998840332031-.114997863769531,23.41400146484375Z" fill="#fff"/><path d="M91.378997802734375,39.036998748779297c.043491363525391-.000089645385742.086807250976562-.005462646484375.129001617431641-.015999794006348l1.534999847412109-.385000228881836c.27764892578125-.089137077331543.430469512939453-.386475563049316.341331481933594-.664124488830566-.081134796142578-.252728462219238-.337284088134766-.405937194824219-.598331451416016-.357875823974609l-1.534999847412109.385000228881836c-.282230377197266.07335376739502-.451557159423828.361611366271973-.378200531005859.643840789794922.060031890869141.230984687805176.267551422119141.392979621887207.506198883056641.395158767700195" fill="#fff"/><path d="M94.960990905761719,38.138998985290527c.043491363525391-.000089645385742.086807250976562-.005462646484375.129001617431641-.015999794006348l1.534999847412109-.385000228881836c.280624389648438-.079269886016846.443855285644531-.371022701263428.364585876464844-.651648044586182-.075889587402344-.26866340637207-.347816467285156-.431817531585693-.620582580566406-.372352123260498l-1.534999847412109.385000228881836c-.282230377197266.073354244232178-.451557159423828.361611366271973-.378200531005859.643840789794922.060031890869141.230984687805176.267551422119141.392979621887207.506198883056641.395158767700195" fill="#fff"/><path d="M102.125999450683594,36.339999675750732c.0433349609375.001467704772949.086677551269531-.002564430236816.128997802734375-.011999607086182l1.535003662109375-.385000228881836c.284912109375-.062113285064697.465530395507812-.34343433380127.403419494628906-.628348827362061-.062118530273438-.284914493560791-.343437194824219-.465530633926392-.628349304199219-.403417587280273-.010429382324219.002274036407471-.020790100097656.004863977432251-.03106689453125.007766246795654l-1.535003662109375.385999917984009c-.2822265625.073352575302124-.451560974121094.361609220504761-.378204345703125.643839120864868.060035705566406.230986595153809.267555236816406.392983436584473.506202697753906.395161151885986" fill="#fff"/><path d="M105.707984924316406,35.44100022315979c.043487548828125-.000090360641479.086807250976562-.005462884902954.128997802734375-.016000032424927l1.535003662109375-.385999917984009c.282493591308594-.070691585540771.454193115234375-.357004642486572.383499145507812-.639498233795166-.070686340332031-.282493710517883-.357002258300781-.454193234443665-.639495849609375-.383501768112183l-1.535003662109375.384999990463257c-.2822265625.073353052139282-.451560974121094.361609935760498-.378204345703125.643839597702026.060035705566406.23098611831665.267555236816406.392982006072998.506202697753906.395160436630249" fill="#fff"/><path d="M98.543998718261719,37.238998889923096c.043113708496094.000156402587891.086090087890625-.004879951477051.127998352050781-.014999866485596l1.535003662109375-.386000156402588c.282493591308594-.070691585540771.454193115234375-.357004642486572.383499145507812-.639498233795166-.070686340332031-.282494068145752-.357002258300781-.454193592071533-.639495849609375-.383502006530762l-1.535003662109375.385000228881836c-.2822265625.073353290557861-.451560974121094.361609935760498-.378204345703125.643839359283447.060035705566406.23098611831665.267555236816406.392982482910156.506202697753906.395160675048828" fill="#fff"/><path d="M87.792999267578125,39.935998916625977c.043491363525391-.000089645385742.086807250976562-.005462646484375.129001617431641-.015999794006348l1.534999847412109-.38599967956543c.282493591308594-.070693016052246.454193115234375-.357007026672363.383499145507812-.639499664306641-.070693969726562-.28249454498291-.357006072998047-.454193115234375-.639499664306641-.383500099182129l-1.534999847412109.385000228881836c-.282772064208984.071236610412598-.454254150390625.358216285705566-.383018493652344.640988349914551.058921813964844.233878135681152.268833160400391.398103713989258.510017395019531.39901065826416" fill="#fff"/><path d="M77.05000114440918,42.633996963500977c.043489456176758-.000089645385742.086807250976562-.005462646484375.128999710083008-.016000747680664l1.534999847412109-.38599967956543c.282493591308594-.07069206237793.454193115234375-.357007026672363.383499145507812-.639499664306641-.07069206237793-.28249454498291-.357006072998047-.454193115234375-.639499664306641-.383500099182129l-1.534999847412109.385000228881836c-.282230377197266.073351860046387-.451559066772461.361607551574707-.378206253051758.643837928771973.060033798217773.230989456176758.267553329467773.392986297607422.506206512451172.395162582397461" fill="#fff"/><path d="M84.215000152587891,40.836997985839844c.043506622314453.000158309936523.08685302734375-.005218505859375.129001617431641-.015999794006348l1.534999847412109-.385000228881836c.284912109375-.062122344970703.465518951416016-.343449592590332.403396606445312-.628361701965332-.062122344970703-.284913063049316-.343448638916016-.465519905090332-.628360748291016-.403397560119629-.010421752929688.002272605895996-.020771026611328.004859924316406-.031036376953125.007759094238281l-1.534999847412109.38599967956543c-.282230377197266.073351860046387-.451557159423828.361608505249023-.378208160400391.643837928771973.060035705566406.230987548828125.267555236816406.392985343933105.506206512451172.395162582397461" fill="#fff"/><path d="M73.468002319335938,43.534000396728516c.043489456176758-.000089645385742.086807250976562-.005462646484375.128999710083008-.016000747680664l1.534999847412109-.385000228881836c.280628204345703-.079263687133789.443864822387695-.371011734008789.364603042602539-.651638031005859-.075887680053711-.2686767578125-.347824096679688-.431838989257812-.620603561401367-.37236213684082l-1.534999847412109.385000228881836c-.282228469848633.073354721069336-.451557159423828.361612319946289-.378202438354492.643840789794922.060035705566406.230985641479492.267553329467773.392980575561523.506202697753906.395158767700195" fill="#fff"/><path d="M80.631999969482422,41.734997749328613c.043491363525391-.000089645385742.086807250976562-.005462646484375.129001617431641-.015999794006348l1.534999847412109-.38599967956543c.282493591308594-.070693016052246.454193115234375-.357007026672363.383499145507812-.639499664306641-.070693969726562-.282493591308594-.357006072998047-.454193115234375-.639499664306641-.383500099182129l-1.533000946044922.388998985290527c-.282230377197266.07335376739502-.451557159423828.361611366271973-.378200531005859.643840789794922.060031890869141.230984687805176.267551422119141.392979621887207.506198883056641.395158767700195" fill="#fff"/><path d="M137.2869873046875,42.656000137329102l1.505996704101562.488000869750977c.284194946289062.065315246582031.567535400390625-.112125396728516.632843017578125-.396322250366211.057220458984375-.248958587646484-.071990966796875-.503171920776367-.306838989257812-.603677749633789l-1.505996704101562-.488000869750977c-.268081665039062-.11473274230957-.57843017578125.009586334228516-.693161010742188.277673721313477s.009597778320312.578422546386719.277679443359375.693155288696289c.028900146484375.012367248535156.058837890625.022130966186523.0894775390625.029170989990234" fill="#fff"/><path d="M130.260009765625,40.377998352050781l1.505996704101562.48799991607666c.284194946289062.065314292907715.567535400390625-.112125396728516.632843017578125-.396322250366211.057220458984375-.248958587646484-.071990966796875-.503171920776367-.306838989257812-.603677749633789l-1.505996704101562-.48799991607666c-.268081665039062-.11473274230957-.57843017578125.009586334228516-.693161010742188.277673721313477-.114730834960938.268086433410645.009597778320312.578423500061035.277679443359375.693156242370605.028900146484375.012367248535156.058837890625.022129058837891.0894775390625.029170036315918" fill="#fff"/><path d="M69.885002136230469,44.433000564575195c.043489456176758-.000089645385742.086807250976562-.005462646484375.128999710083008-.016000747680664l1.534999847412109-.38599967956543c.282493591308594-.07069206237793.454193115234375-.357006072998047.383501052856445-.639501571655273-.070693969726562-.282493591308594-.35700798034668-.454191207885742-.639501571655273-.383499145507812h0l-1.534999847412109.385000228881836c-.282229423522949.073354721069336-.451556205749512.361612319946289-.378202438354492.643840789794922.060035705566406.230985641479492.267553329467773.392980575561523.506202697753906.395158767700195" fill="#fff"/><path d="M133.77398681640625,41.516997337341309l1.505996704101562.48799991607666c.284194946289062.065314292907715.567535400390625-.112125396728516.632843017578125-.396322250366211.057220458984375-.248958587646484-.071990966796875-.503171920776367-.306838989257812-.603677749633789l-1.505996704101562-.48799991607666c-.268081665039062-.11473274230957-.57843017578125.009586334228516-.693161010742188.277673721313477-.114730834960938.268086433410645.009597778320312.578423500061035.277679443359375.693156242370605.028900146484375.012367248535156.058837890625.022129058837891.0894775390625.029170036315918" fill="#fff"/><path d="M140.800994873046875,43.795000076293945l1.505996704101562.488000869750977c.284194946289062.065315246582031.567535400390625-.112125396728516.632843017578125-.396322250366211.057220458984375-.248958587646484-.071990966796875-.503171920776367-.306838989257812-.603677749633789l-1.505996704101562-.488000869750977c-.268081665039062-.11473274230957-.57843017578125.009586334228516-.693161010742188.277673721313477s.009597778320312.578422546386719.277679443359375.693155288696289c.028900146484375.012367248535156.058837890625.022130966186523.0894775390625.029170989990234" fill="#fff"/><path d="M112.693000793457031,34.683998346328735l1.505996704101562.48799991607666c.284469604492188.064130783081055.567062377929688-.114487171173096.631195068359375-.398954153060913.055892944335938-.247930765151978-.072776794433594-.500502347946167-.306198120117188-.601045846939087l-1.505989074707031-.490999937057495c-.284202575683594-.065305471420288-.567527770996094.112143278121948-.632835388183594.396342992782593-.057205200195312.248950004577637.072006225585938.503150701522827.306838989257812.603657007217407" fill="#fff"/><path d="M144.314010620117188,44.933998107910156l1.505996704101562.488000869750977c.052658081054688.017030715942383.107650756835938.025800704956055.162994384765625.025999069213867.291610717773438-.000358581542969.5277099609375-.237041473388672.52734375-.528648376464844-.000274658203125-.228317260742188-.14727783203125-.43058967590332-.364349365234375-.501352310180664l-1.505996704101562-.488000869750977c-.268081665039062-.11473274230957-.57843017578125.009586334228516-.693161010742188.277673721313477s.009597778320312.578422546386719.277679443359375.693155288696289c.028900146484375.012367248535156.058837890625.022130966186523.0894775390625.029170989990234" fill="#fff"/><path d="M119.720016479492188,36.961999893188477l1.505996704101562.48799991607666c.284202575683594.065305709838867.567527770996094-.112143516540527.632835388183594-.396342754364014.057205200195312-.248950481414795-.072006225585938-.503150939941406-.306838989257812-.603657245635986l-1.505996704101562-.48799991607666c-.268081665039062-.114737510681152-.578422546386719.009575366973877-.693161010742188.277660846710205-.114738464355469.26808500289917.009574890136719.578423500061035.277656555175781.693161010742188.028907775878906.01237154006958.058860778808594.022136688232422.089508056640625.029178142547607" fill="#fff"/><path d="M126.746002197265625,39.239998817443848l1.505996704101562.48799991607666c.052665710449219.017030715942383.107650756835938.025801658630371.163002014160156.026000022888184.291603088378906-.00035572052002.5277099609375-.23703670501709.527359008789062-.528643608093262-.000282287597656-.228318214416504-.14727783203125-.43059253692627-.364356994628906-.50135612487793l-1.501998901367188-.487000465393066c-.268081665039062-.114737510681152-.578422546386719.009575843811035-.693161010742188.277660369873047-.114738464355469.268085479736328.009574890136719.578424453735352.277656555175781.693161964416504.028907775878906.012371063232422.058860778808594.022135734558105.089508056640625.029177665710449" fill="#fff"/><path d="M116.207015991210938,35.822997093200684l1.505996704101562.48799991607666c.284202575683594.065305709838867.567527770996094-.112143516540527.632835388183594-.396342754364014.057205200195312-.248950481414795-.072006225585938-.503150939941406-.306838989257812-.603657245635986l-1.505996704101562-.487999677658081c-.268081665039062-.114737987518311-.578422546386719.009574174880981-.693161010742188.277658939361572s.009574890136719.578423738479614.277656555175781.693161725997925c.028907775878906.012372493743896.058860778808594.02213716506958.089508056640625.029179096221924" fill="#fff"/><path d="M123.232994079589844,38.10099983215332l1.505996704101562.48900032043457c.052772521972656.016448020935059.107719421386719.024875640869141.163002014160156.024999618530273.291603088378906.00136661529541.529098510742188-.233916282653809.530471801757812-.525519371032715.001075744628906-.230674743652344-.147712707519531-.435348510742188-.367469787597656-.505480766296387l-1.505996704101562-.48799991607666c-.268081665039062-.114737510681152-.578422546386719.009575366973877-.693161010742188.277660846710205-.114738464355469.26808500289917.009574890136719.578423976898193.277656555175781.693161487579346.028907775878906.012371063232422.058860778808594.022135734558105.089508056640625.029177665710449" fill="#fff"/><path d="M109.289985656738281,34.541998386383057c.043487548828125-.00009024143219.086807250976562-.005463004112244.128997802734375-.016000032424927l1.083999633789062-.274999976158142c.116218566894531-.042159795761108.237693786621094-.068071126937866.361000061035156-.077000021934509.290779113769531-.019605875015259.510604858398438-.27122163772583.490997314453125-.561999559402466-.019599914550781-.290777906775475-.271217346191406-.510606285184622-.561996459960938-.491000413894653-.2047119140625.011756018735468-.406730651855469.052495259791613-.599998474121094.120999999344349l-1.030998229980469.260000012814999c-.2822265625.073353052139282-.451560974121094.361609786748886-.378204345703125.643839508295059.060035705566406.23098611831665.267555236816406.392982244491577.506202697753906.395160555839539" fill="#fff"/><path d="M69.732987403869629,69.525001525878906l-1.531999588012695.400001525878906c-.285001754760742.06170654296875-.46601676940918.3427734375-.404306411743164.627777099609375.061709403991699.285003662109375.342774391174316.466018676757812.627777099609375.404304504394531.014323234558105-.003097534179688.028512954711914-.006797790527344.042529106140137-.011077880859375l1.531999588012695-.400001525878906c.285001754760742-.06170654296875.46601676940918-.3427734375.404306411743164-.627777099609375-.061709403991699-.285003662109375-.342774391174316-.466018676757812-.627777099609375-.404304504394531-.014323234558105.003097534179688-.028512954711914.006797790527344-.042529106140137.011077880859375" fill="#fff"/><path d="M107.647987365722656,60.721000671386719c.044876098632812.000019073486328.089576721191406-.005691528320312.133003234863281-.016998291015625l1.531997680664062-.400001525878906c.278877258300781-.085224151611328.435859680175781-.380382537841797.350639343261719-.659255981445312-.080238342285156-.262561798095703-.348304748535156-.419818878173828-.61663818359375-.361743927001953l-1.531997680664062.400001525878906c-.28167724609375.075454711914062-.4488525390625.364963531494141-.373397827148438.646640777587891.061393737792969.229190826416016.268135070800781.3892822265625.505401611328125.391357421875" fill="#fff"/><path d="M73.306005477905273,68.592994689941406l-1.531999588012695.400001525878906c-.285001754760742.061714172363281-.466014862060547.342781066894531-.404302597045898.627777099609375.061710357666016.285003662109375.342777252197266.466018676757812.627779006958008.404304504394531.014322280883789-.003097534179688.028509140014648-.006797790527344.042524337768555-.011077880859375l1.531999588012695-.400001525878906c.27888298034668-.085197448730469.435897827148438-.380340576171875.350700378417969-.659225463867188-.080223083496094-.262603759765625-.348335266113281-.419883728027344-.616701126098633-.361778259277344" fill="#fff"/><path d="M104.073997497558594,61.6510009765625c.044876098632812.000030517578125.089576721191406-.005680084228516.133003234863281-.016998291015625l1.531997680664062-.400001525878906c.281944274902344-.073177337646484.451179504394531-.361057281494141.377998352050781-.642997741699219-.073173522949219-.281944274902344-.361053466796875-.451179504394531-.642997741699219-.378002166748047l-1.531997680664062.400001525878906c-.28167724609375.075454711914062-.4488525390625.364963531494141-.373397827148438.646640777587891.061393737792969.229190826416016.268135070800781.3892822265625.505401611328125.391357421875" fill="#fff"/><path d="M66.157999038696289,70.455001831054688l-1.532000064849854.400001525878906c-.2850022315979.06170654296875-.466016292572021.3427734375-.404306888580322.627777099609375.061709880828857.285003662109375.342774868011475.466018676757812.627777099609375.404304504394531.014324188232422-.003097534179688.028512954711914-.006797790527344.042529582977295-.011077880859375l1.532000064849854-.400001525878906c.285001754760742-.06170654296875.46601676940918-.3427734375.404306411743164-.627777099609375-.061709403991699-.285003662109375-.342774391174316-.466018676757812-.627776622772217-.404304504394531-.014324188232422.003097534179688-.028512954711914.006797790527344-.042529582977295.011077880859375" fill="#fff"/><path d="M76.880992889404297,67.661994934082031l-1.531999588012695.400001525878906c-.285091400146484.061294555664062-.466518402099609.342094421386719-.40522575378418.627182006835938.061290740966797.28509521484375.342090606689453.466522216796875.62718391418457.405227661132812.015861511230469-.003410339355469.031558990478516-.007553100585938.047040939331055-.012405395507812l1.531999588012695-.400001525878906c.27888298034668-.085197448730469.435897827148438-.380340576171875.350700378417969-.659225463867188-.080223083496094-.262603759765625-.348335266113281-.419883728027344-.616701126098633-.361778259277344" fill="#fff"/><path d="M80.454986572265625,66.730998992919922l-1.532001495361328.399997711181641c-.285003662109375.06170654296875-.466018676757812.3427734375-.404312133789062.627777099609375.061710357666016.284996032714844.3427734375.466018676757812.627777099609375.404304504394531.014324188232422-.003097534179688.028514862060547-.006797790527344.042533874511719-.011077880859375l1.532001495361328-.400001525878906c.278873443603516-.085220336914062.435859680175781-.380386352539062.350639343261719-.659255981445312-.080238342285156-.262561798095703-.348304748535156-.419818878173828-.61663818359375-.361743927001953" fill="#fff"/><path d="M94.750999450683594,63.006999969482422l-1.532001495361328.400001525878906c-.285007476806641.061683654785156-.466045379638672.342731475830078-.404361724853516.627742767333984.061683654785156.285007476806641.342731475830078.466045379638672.627738952636719.404361724853516.014354705810547-.003108978271484.028575897216797-.006813049316406.042621612548828-.011104583740234l1.532001495361328-.400001525878906c.278873443603516-.085224151611328.435859680175781-.380382537841797.350639343261719-.659255981445312-.080238342285156-.262561798095703-.348304748535156-.419818878173828-.61663818359375-.361743927001953" fill="#fff"/><path d="M98.324989318847656,62.076000213623047l-1.531997680664062.400001525878906c-.285011291503906.061683654785156-.466049194335938.342731475830078-.404365539550781.627742767333984.061683654785156.285007476806641.342735290527344.466045379638672.62774658203125.404361724853516.014350891113281-.003108978271484.028572082519531-.006813049316406.042617797851562-.011104583740234l1.531997680664062-.400001525878906c.285011291503906-.061683654785156.466049194335938-.342731475830078.404365539550781-.627742767333984-.061683654785156-.285007476806641-.342735290527344-.466045379638672-.62774658203125-.404361724853516-.014350891113281.003108978271484-.028572082519531.006813049316406-.042617797851562.011104583740234" fill="#fff"/><path d="M91.177013397216797,63.937995910644531l-1.532001495361328.400001525878906c-.285007476806641.061683654785156-.466045379638672.342731475830078-.404361724853516.627742767333984.061683654785156.285007476806641.342731475830078.466045379638672.627738952636719.404361724853516.014354705810547-.003108978271484.028575897216797-.006813049316406.042621612548828-.011104583740234l1.532001495361328-.400001525878906c.285007476806641-.061683654785156.466045379638672-.342731475830078.404361724853516-.627742767333984-.061683654785156-.285007476806641-.342731475830078-.466045379638672-.627738952636719-.404361724853516-.014354705810547.003108978271484-.028575897216797.006813049316406-.042621612548828.011104583740234" fill="#fff"/><path d="M87.603012084960938,64.868999481201172l-1.527999877929688.400001525878906c.099441528320312-.119216918945312.181583404541016-.251853942871094.243999481201172-.394001007080078l1.323001861572266-2.456001281738281.064998626708984-.146999359130859c.421977996826172-1.190319061279297-.150714874267578-2.504016876220703-1.310001373291016-3.005001068115234l-9.799999237060547-3.167999267578125c-.875051498413086-.340274810791016-1.860269546508789.093246459960938-2.200544357299805.968299865722656-.10504150390625.270126342773438-.139276504516602.562618255615234-.099454879760742.849700927734375l.653999328613281,3.413002014160156c.153598785400391.994522094726562.802913665771484,1.842437744140625,1.722999572753906,2.25l7.465999603271484,2.215999603271484c-.037109375-.002132415771484-.074337005615234-.000118255615234-.111000061035156.006000518798828l-1.532001495361328.400001525878906c-.285007476806641.061683654785156-.466045379638672.342731475830078-.404361724853516.627742767333984.061683654785156.285007476806641.342731475830078.466045379638672.627738952636719.404361724853516.014354705810547-.003108978271484.028575897216797-.006813049316406.042621612548828-.011104583740234l1.532001495361328-.400001525878906c.282207489013672-.073436737060547.451450347900391-.361743927001953.378009796142578-.643951416015625-.000003814697266-.000019073486328-.000007629394531-.000034332275391-.000011444091797-.000049591064453-.032825469970703-.123081207275391-.109683990478516-.229831695556641-.215999603271484-.299999237060547.099018096923828.017745971679688.19940185546875.026779174804688.299999237060547.027000427246094.342369079589844-.000534057617188.676479339599609-.105159759521484.958000183105469-.299999237060547-.036418914794922.095771789550781-.043384552001953.200241088867188-.020000457763672.299999237060547.060150146484375.232486724853516.269859313964844.394908905029297.509998321533203.395000457763672.04486083984375-.000232696533203.089523315429688-.005939483642578.132999420166016-.016998291015625l1.532001495361328-.400001525878906c.278873443603516-.085224151611328.435859680175781-.380382537841797.350639343261719-.659255981445312-.080238342285156-.262561798095703-.348304748535156-.419818878173828-.61663818359375-.361743927001953M84.546012878417969,63.714000701904297l-7.072000503540039-2.090000152587891c-.236286163330078-.123073577880859-.398918151855469-.352321624755859-.437000274658203-.616001129150391l-.520000457763672-2.715999603271484,9.072999954223633,2.927001953125c.105606079101562.060218811035156.162025451660156.180263519287109.140998840332031.299999237060547l-1.18499755859375,2.194999694824219Z" fill="#fff"/><path d="M121.587997436523438,63.381000518798828l1.5.5c.053489685058594.017982482910156.109565734863281.027103424072266.166000366210938.027000427246094.291603088378906-.001998901367188.5263671875-.240009307861328.524368286132812-.531608581542969-.001548767089844-.224903106689453-.1453857421875-.424140930175781-.358367919921875-.496391296386719l-1.5-.5c-.273857116699219-.09857177734375-.575767517089844.043521881103516-.674339294433594.317378997802734-.09857177734375.273853302001953.043525695800781.575763702392578.3173828125.674335479736328.008247375488281.002967834472656.016571044921875.005733489990234.024955749511719.008285522460938" fill="#fff"/><path d="M125.098991394042969,64.541999816894531l1.5.5c.053497314453125.017963409423828.109565734863281.027084350585938.166000366210938.027000427246094.291603088378906-.001998901367188.5263671875-.240009307861328.524368286132812-.531608581542969-.001548767089844-.224903106689453-.1453857421875-.424140930175781-.358367919921875-.496391296386719l-1.5-.5c-.270042419433594-.11004638671875-.578170776367188.019657135009766-.688217163085938.289703369140625-.11004638671875.270042419433594.019660949707031.578166961669922.289703369140625.688213348388672.021659851074219.008827209472656.043876647949219.016204833984375.066513061523438.022083282470703" fill="#fff"/><path d="M118.087005615234375,62.220001220703125l1.5.5c.053558349609375.017711639404297.109588623046875.026824951171875.166000366210938.027000427246094.291603088378906-.000377655029297.527694702148438-.237075805664062.527313232421875-.528682708740234-.000289916992188-.227127075195312-.145797729492188-.428615570068359-.361312866210938-.500316619873047l-1.5-.5c-.270042419433594-.11004638671875-.578170776367188.019657135009766-.688217163085938.289703369140625-.11004638671875.270042419433594.019660949707031.578166961669922.289703369140625.688213348388672.021659851074219.008827209472656.043876647949219.016204833984375.066513061523438.022083282470703" fill="#fff"/><path d="M132.111007690429688,66.864999771118164l1.5.5c.053497314453125.017963409423828.109573364257812.027084350585938.166000366210938.027000427246094.291595458984375-.001998901367188.5263671875-.240009307861328.524368286132812-.531608581542969-.001541137695312-.224903106689453-.1453857421875-.424140930175781-.358367919921875-.496391296386719l-1.5-.5c-.273849487304688-.09857177734375-.575759887695312.043521881103516-.674331665039062.317378997802734-.09857177734375.273853302001953.04351806640625.575763702392578.317367553710938.674335479736328.008255004882812.002967834472656.016571044921875.005733489990234.02496337890625.008285522460938" fill="#fff"/><path d="M66.303003311157227,45.332000732421875c.043489456176758-.000089645385742.086806297302246-.005462646484375.128999710083008-.016000747680664l1.534999847412109-.38599967956543c.282493591308594-.07069206237793.454193115234375-.357006072998047.383501052856445-.639499664306641-.070693016052246-.282493591308594-.357007026672363-.454193115234375-.639500617980957-.383501052856445h0l-1.534999847412109.385000228881836c-.282229423522949.073354721069336-.451556205749512.361612319946289-.378202438354492.643840789794922.060035705566406.230985641479492.267553329467773.392980575561523.506202697753906.395158767700195" fill="#fff"/><path d="M142.630020141601562,70.347999572753906l1.5.5c.053512573242188.017929077148438.109573364257812.027046203613281.166000366210938.027000427246094.291595458984375-.001998901367188.5263671875-.240013122558594.524368286132812-.531608581542969-.001541137695312-.224899291992188-.1453857421875-.424140930175781-.358367919921875-.496391296386719l-1.5-.5c-.270050048828125-.11004638671875-.578170776367188.019660949707031-.688217163085938.289703369140625s.0196533203125.578170776367188.289703369140625.688217163085938c.021652221679688.008819580078125.04388427734375.016197204589844.066513061523438.022079467773438" fill="#fff"/><path d="M135.61700439453125,68.0260009765625l1.5.5c.053497314453125.017967224121094.109573364257812.027084350585938.166000366210938.027000427246094.291595458984375-.001998901367188.5263671875-.240013122558594.524368286132812-.531608581542969-.001541137695312-.224899291992188-.1453857421875-.424140930175781-.358367919921875-.496391296386719l-1.5-.5c-.270050048828125-.11004638671875-.578170776367188.019660949707031-.688217163085938.289703369140625s.0196533203125.578170776367188.289703369140625.688217163085938c.021652221679688.008819580078125.04388427734375.016197204589844.066513061523438.022079467773438" fill="#fff"/><path d="M139.123992919921875,69.186996459960938l1.5.5c.053497314453125.017982482910156.10955810546875.027099609375.166000366210938.027000427246094.291595458984375-.001998901367188.5263671875-.240013122558594.524368286132812-.531608581542969-.001541137695312-.224899291992188-.1453857421875-.424140930175781-.358367919921875-.496391296386719l-1.5-.5c-.270050048828125-.11004638671875-.578170776367188.019660949707031-.688217163085938.289703369140625s.0196533203125.578170776367188.289703369140625.688217163085938c.021652221679688.008819580078125.04388427734375.016197204589844.066513061523438.022079467773438" fill="#fff"/><path d="M128.604988098144531,65.702999114990234l1.499992370605469.5c.053497314453125.017963409423828.109573364257812.027084350585938.166000366210938.027000427246094.291595458984375-.001998901367188.5263671875-.240009307861328.524368286132812-.531608581542969-.001541137695312-.224903106689453-.1453857421875-.424140930175781-.358367919921875-.496391296386719l-1.5-.5c-.273857116699219-.09857177734375-.575767517089844.043521881103516-.674339294433594.317378997802734-.09857177734375.273853302001953.043525695800781.575763702392578.3173828125.674335479736328.008247375488281.002967834472656.016571044921875.005733489990234.024955749511719.008285522460938" fill="#fff"/><path d="M114.581016540527344,61.057998657226562l1.5.5c.053497314453125.017963409423828.109565734863281.027084350585938.166000366210938.027000427246094.291603088378906-.000377655029297.527694702148438-.237075805664062.527313232421875-.528682708740234-.000289916992188-.227127075195312-.145797729492188-.428615570068359-.361312866210938-.500316619873047l-1.5-.5c-.273857116699219-.09857177734375-.575767517089844.043521881103516-.674339294433594.317378997802734-.09857177734375.273853302001953.043525695800781.575763702392578.3173828125.674335479736328.008247375488281.002967834472656.016571044921875.005733489990234.024955749511719.008285522460938" fill="#fff"/><path d="M111.569992065429688,43.633998870849609c-.012687683105469-.291330337524414-.259140014648438-.517215728759766-.550468444824219-.50452995300293-.2735595703125.011911392211914-.492622375488281.23097038269043-.504531860351562.50452995300293v1.583000183105469c-.012687683105469.291330337524414.213203430175781.537784576416016.504531860351562.550470352172852s.53778076171875-.213201522827148.550468444824219-.504531860351562c.000663757324219-.015304565429688.000663757324219-.030632019042969,0-.045938491821289v-1.583000183105469Z" fill="#fff"/><path d="M111.569992065429688,47.327995300292969c-.012687683105469-.291330337524414-.259140014648438-.517215728759766-.550468444824219-.50452995300293-.2735595703125.011911392211914-.492622375488281.23097038269043-.504531860351562.50452995300293v1.583000183105469c-.012687683105469.291330337524414.213203430175781.537784576416016.504531860351562.550470352172852s.53778076171875-.213201522827148.550468444824219-.504531860351562c.000663757324219-.015304565429688.000663757324219-.030632019042969,0-.045938491821289v-1.583000183105469Z" fill="#fff"/><path d="M111.042991638183594,60.03399658203125c.084869384765625-.001720428466797.168006896972656-.024391174316406.241996765136719-.066001892089844.076927185058594.016609191894531.1522216796875.040035247802734.224998474121094.069999694824219l1.068000793457031.358001708984375c.053512573242188.017913818359375.109573364257812.027030944824219.166000366210938.027000427246094.291603088378906-.001998901367188.5263671875-.240009307861328.524368286132812-.531608581542969-.001548767089844-.224903106689453-.1453857421875-.424140930175781-.358367919921875-.496391296386719l-.980003356933594-.325000762939453c-.116127014160156-.051475524902344-.236175537109375-.093608856201172-.359001159667969-.125999450683594v-.535999298095703c-.012687683105469-.291328430175781-.259140014648438-.517215728759766-.550468444824219-.504531860351562-.2735595703125.011913299560547-.492622375488281.230972290039062-.504531860351562.504531860351562v1.099998474121094c-.00054931640625.291053771972656.234947204589844.527446746826172.5260009765625.527999877929688h.001998901367188" fill="#fff"/><path d="M111.042991638183594,50.492996215820312c-.291053771972656-.000553131103516-.527450561523438.234943389892578-.527999877929688.525997161865234v1.585002899169922c.012687683105469.291328430175781.259140014648438.517215728759766.550468444824219.504531860351562.2735595703125-.011913299560547.492622375488281-.230972290039062.504531860351562-.504531860351562v-1.583000183105469c.00054931640625-.291053771972656-.234947204589844-.527446746826172-.5260009765625-.527999877929688h-.001998901367188" fill="#fff"/><path d="M111.569992065429688,38.609996795654297c.012687683105469-.291330337524414-.213203430175781-.537783622741699-.504531860351562-.550469398498535s-.53778076171875.213200569152832-.550468444824219.504530906677246c-.000663757324219.015305519104004-.000663757324219.030632972717285,0,.045938491821289v1.583000183105469c-.012687683105469.291330337524414.213203430175781.537783622741699.504531860351562.550469398498535s.53778076171875-.213200569152832.550468444824219-.504530906677246c.000663757324219-.015305519104004.000663757324219-.030632972717285,0-.045938491821289v-1.583000183105469Z" fill="#fff"/><path d="M110.514991760253906,34.91700005531311v1.58299994468689c-.012687683105469.291330337524414.213203430175781.537784099578857.504531860351562.550469398498535.291328430175781.012685775756836.53778076171875-.213200092315674.550468444824219-.504530429840088.000663757324219-.015305995941162.000663757324219-.030633449554443,0-.045938968658447v-1.58299994468689c.012687683105469-.291330337524414-.213203430175781-.537783861160278-.504531860351562-.550469636917114-.291328430175781-.012685537338257-.53778076171875.213200330734253-.550468444824219.504530668258667-.000663757324219.015305757522583-.000663757324219.030633211135864,0,.045938968658447" fill="#fff"/></g></g></svg>