<?xml version="1.0" encoding="UTF-8"?><svg id="a" xmlns="http://www.w3.org/2000/svg" width="211" height="118.601997375488281" xmlns:xlink="http://www.w3.org/1999/xlink" viewBox="0 0 211 118.601997375488281"><defs><clipPath id="c"><rect x="38.27801513671875" width="134.4439697265625" height="118.601997375488281" fill="none"/></clipPath></defs><g id="b"><g clip-path="url(#c)"><path d="M65.082019805908203,72.273994445800781l-9.744998931884766-4.199996948242188c-.86296272277832-.369857788085938-1.86236572265625.029876708984375-2.232227325439453.892837524414062-.121486663818359.283462524414062-.163581848144531.594619750976562-.121772766113281.900161743164062l.653999328613281,3.41400146484375c.146215438842773.997650146484375.797964096069336,1.8487548828125,1.722999572753906,2.25l7.400001525878906,3.242996215820312c.860313415527344.3759765625,1.862529754638672-.016647338867188,2.238513946533203-.876953125.002185821533203-.0050048828125.004348754882812-.010025024414062.006484985351562-.015045166015625l1.321998596191406-2.457000732421875.064998626708984-.14599609375c.422592163085938-1.19061279296875-.150203704833984-2.504989624023438-1.310001373291016-3.005996704101562M63.25201416015625,76.685005187988281l-7.044000625610352-3.087005615234375c-.261796951293945-.113937377929688-.445241928100586-.35614013671875-.483999252319336-.639007568359375l-.504999160766602-2.639007568359375,9.030000686645508,3.891006469726562c.120746612548828.052352905273438.190406799316406.180145263671875.168998718261719.30999755859375l-1.166000366210938,2.164016723632812Z" fill="#fff"/><path d="M171.864013671875,62.976001739501953c-.07244873046875-.044307708740234-.147598266601562-.084049224853516-.225006103515625-.118999481201172l-.014999389648438-.014999389648438-.115005493164062-.054000854492188c-.031005859375-.01300048828125-.05999755859375-.030998229980469-.091995239257812-.042999267578125l-19.408004760742188-9.099998474121094.119003295898438-24.159000396728516.132003784179688-.048999786376953c.988662719726562-.366348266601562,1.645439147949219-1.308643341064453,1.647003173828125-2.362998962402344v-7.491004943847656c-.002334594726562-.81566047668457-.502670288085938-1.547130584716797-1.262001037597656-1.844999313354492h0L115.585014343261719.352999985218048c-.901985168457031-.419093050062656-1.932807922363281-.465801484882832-2.869003295898438-.129999995231628l-49.3699951171875,17.576999247074127h0c-.86027717590332.240255355834961-1.456958770751953,1.021820068359375-1.461999893188477,1.915000915527344v7.450000762939453c.002357482910156.969528198242188.559640884399414,1.852088928222656,1.434000015258789,2.270999908447266l.12700080871582.059999465942383.12299919128418,8.958002090454102-23.828000903129578,8.489997863769531h0c-.860986709594727.240459442138672-1.457849224563688,1.023075103759766-1.462000012397766,1.916999816894531v7.450000762939453c.00451531726867.968898773193359.561135649681091,1.850410461425781,1.434000015258789,2.270999908447266l.126999974250793.060001373291016.33899998664856,24.283000946044922c.003918170928955,1.131248474121094.655259251594543,2.160331726074219,1.675999999046326,2.648002624511719l35.757000207901001,16.864997863769531c.335433959960938.155792236328125.697654724121094.245758056640625,1.067001342773438.264999389648438.060001373291016,0,.119998931884766.005996704101562.180000305175781.005996704101562.330326080322266-.000320434570312.658008575439453-.058883666992188.967998504638672-.172996520996094l3.900001525878906-1.420997619628906c.169380187988281.13592529296875.353542327880859.252326965332031.548999786376953.347000122070312l35.754997253417969,16.864997863769531c.69818115234375.32635498046875,1.497329711914062.362319946289062,2.222000122070312.099998474121094l46.65399169921875-16.986000061035156c1.1514892578125-.421722412109375,1.918731689453125-1.515716552734375,1.923004150390625-2.741996765136719l.119003295898438-24.180000305175781.139007568359375-.052001953125c.983535766601562-.370384216308594,1.635848999023438-1.310043334960938,1.639007568359375-2.361000061035156v-7.491004943847656c-.000717163085938-.653537750244141-.320693969726562-1.265499114990234-.85699462890625-1.638999938964844M115.530014038085938,40.889999389648438l-12.121002197265625,4.521999359130859v-7.777000427246094l48.388999938964844-17.887998580932617v7.328001022338867c.000495910644531.171445846557617-.106758117675781.324724197387695-.267997741699219.382999420166016l-36,13.429000854492188v.002998352050781ZM150.014015197753906,30.277000427246094l-.114997863769531,23.387001037597656c-.000259399414062.3411865234375-.213531494140625.645912170410156-.53399658203125.76300048828125l-45.956008911132812,16.73199462890625v-23.5l.030998229980469-.007999420166016,46.574005126953125-17.373996734619141ZM113.426017761230469,2.209000110626221c.414192199707031-.148148775100708.870048522949219-.127313613891602,1.268997192382812.058000087738037l34.51300048828125,16.187000274658203-46.979000091552734,17.366998672485352c-.042011260986328-.011924743652344-.082847595214844-.027656555175781-.122001647949219-.047000885009766l-35.414999008178711-16.921998977661133L113.426017761230469,2.209000110626221ZM63.995014190673828,19.899999618530273l37.183002471923828,17.768999099731445c.040000915527344.020000457763672.080001831054688.03900146484375.119998931884766.055999755859375v7.528999328613281l-37.072000503540039-17.717998504638672c-.142051696777344-.06620979309082-.232351303100586-.209280014038086-.231000900268555-.365999221801758v-7.270000457763672ZM81.411014556884766,73.945999145507812l-1.606998443603516.599998474121094v-7.613998413085938l.041000366210938-.01300048828125.854999542236328-.318000793457031v5.599998474121094c.003791809082031.651351928710938.25885009765625,1.276107788085938.712001800537109,1.744003295898438M101.299015045166016,47.588001251220703v23.411998748779297l-34.941999435424805-16.479000091552734c-.283763885498047-.134464263916016-.465038299560547-.419990539550781-.465999603271484-.734001159667969l-.322000503540039-23.267999649047852,35.642997741699219,17.035001754760742c.012001037597656.006000518798828.025001525878906.007999420166016.036998748779297.01300048828125s.034000396728516.01300048828125.049999237060547.020000457763672M77.693016052246094,100.143997192382812l-34.935000896453857-16.477996826171875c-.289592266082764-.139854431152344-.472329616546631-.434417724609375-.468999862670898-.755996704101562l-.325000047683716-23.251003265380859,35.63499903678894,17.031002044677734c.030998229980469.013999938964844.062999725341797.024002075195312.094001770019531.038002014160156v23.415992736816406ZM77.693016052246094,74.39599609375l-37.070000886917114-17.716995239257812c-.142080307006836-.067317962646484-.233309030532837-.209789276123047-.234999895095825-.367000579833984v-7.269001007080078l37.189999103546143,17.767997741699219c.03900146484375.019996643066406.078998565673828.03399658203125.118999481201172.052001953125l-.003997802734375,7.532997131347656ZM78.770015716552734,64.985992431640625c-.093955993652344-.002517700195312-.186038970947266-.026824951171875-.269001007080078-.070999145507812l-35.414999485015869-16.921993255615234,20.513000965118408-7.299999237060547.178998947143555,13.106998443603516c.006732940673828,1.127178192138672.657976150512695,2.151058197021484,1.676000595092773,2.634998321533203l15.514001846313477,7.318000793457031c-.105033874511719.180904388427734-.180641174316406.377357482910156-.2239990234375.582000732421875l-1.652000427246094.615997314453125c-.103908538818359.037773132324219-.215034484863281.05145263671875-.325000762939453.040000915527344M79.80401611328125,100.300003051757812v-23.494003295898438l.030998229980469-.009002685546875,2.443000793457031-.913993835449219.318000793457031,22.944999694824219c.000823974609375.146705627441406.012855529785156.293136596679688.035999298095703.438003540039062l-2.827999114990234,1.03399658203125ZM120.113014221191406,116.037002563476562l-34.940998077392578-16.483001708984375c-.283542633056641-.134559631347656-.464466094970703-.420150756835938-.465000152587891-.734001159667969l-.321998596191406-23.266998291015625.537998199462891.255996704101562,35.099994659423828,16.778999328613281c.027999877929688.01300048828125.058998107910156.017997741699219.086997985839844.030998229980469l.003005981445312,23.418006896972656ZM120.113014221191406,90.287002563476562l-35.534999847412109-16.98699951171875-1.532001495361328-.732002258300781c-.141231536865234-.068328857421875-.231243133544922-.211105346679688-.231998443603516-.367996215820312v-7.266006469726562l37.200000762939453,17.777000427246094c.032997131347656.015998840332031.069000244140625.022003173828125.099998474121094.037002563476562l-.000999450683594,7.53900146484375ZM120.920013427734375,80.809005737304688l-16.363998413085938-7.822006225585938,45.530998229980469-16.576999664306641c.445869445800781-.164321899414062.844795227050781-.435192108154297,1.162002563476562-.78900146484375l16.784004211425781,7.868999481201172-46.5,17.344001770019531c-.198333740234375.073524475097656-.417953491210938.06378173828125-.609001159667969-.027000427246094M168.714019775390625,98.699996948242188c-.00054931640625.341094970703125-.213714599609375.645668029785156-.53399658203125.76300048828125l-45.957008361816406,16.72900390625v-23.5l.032997131347656-.008003234863281,45.39300537109375-16.933998107910156,1.17999267578125-.44000244140625-.114990234375,23.389999389648438ZM170.614013671875,72.11199951171875c-.000656127929688.170478820800781-.106491088867188.322860717773438-.266006469726562.383003234863281l-48.124992370605469,17.944000244140625v-7.616004943847656c.013999938964844-.004997253417969.028999328613281-.005996704101562.042999267578125-.012001037597656l48.345008850097656-18.030998229980469.00299072265625,7.332000732421875Z" fill="#fff"/><path d="M107.501998901367188,88.165000915527344l-9.745002746582031-4.199996948242188c-.863182067871094-.369354248046875-1.862350463867188.030975341796875-2.231704711914062.894149780273438-.121269226074219.283401489257812-.163192749023438.594451904296875-.121292114257812.899856567382812l.653999328613281,3.412994384765625c.153594970703125.994522094726562.80291748046875,1.842437744140625,1.722999572753906,2.25l7.400001525878906,3.242996215820312h0c.8607177734375.375045776367188,1.862510681152344-.018661499023438,2.237564086914062-.879379272460938.001823425292969-.004196166992188.003639221191406-.008407592773438.00543212890625-.012619018554688l1.321998596191406-2.457000732421875.06500244140625-.14599609375c.422721862792969-1.190338134765625-.149589538574219-2.504608154296875-1.308998107910156-3.005996704101562M105.6719970703125,92.576011657714844l-7.043998718261719-3.087005615234375c-.260948181152344-.115234375-.444198608398438-.356674194335938-.485000610351562-.639007568359375l-.5-2.638992309570312,9.028999328613281,3.891006469726562c.120491027832031.052642822265625.190040588378906.180206298828125.168998718261719.30999755859375l-1.168998718261719,2.16400146484375Z" fill="#fff"/><path d="M88.686027526855469,43.132999420166016l-9.746002197265625-4.199996948242188c-.863143920898438-.369438171386719-1.862350463867188.030799865722656-2.231788635253906.893943786621094-.121452331542969.283775329589844-.163360595703125.595268249511719-.121208190917969.901054382324219l.653999328613281,3.412002563476562c.153106689453125.994972229003906.802528381347656,1.843399047851562,1.722999572753906,2.250999450683594l7.400001525878906,3.243003845214844c.860313415527344.375984191894531,1.862533569335938-.016639709472656,2.238517761230469-.876953125.002182006835938-.0050048828125.004348754882812-.010017395019531.006484985351562-.015045166015625l1.321998596191406-2.456001281738281.063995361328125-.146003723144531c.422721862792969-1.190345764160156-.149589538574219-2.504608154296875-1.308998107910156-3.005996704101562M86.855026245117188,47.546009063720703l-7.044998168945312-3.086997985839844c-.261795043945312-.113937377929688-.445243835449219-.356132507324219-.484001159667969-.638999938964844l-.5-2.638999938964844,9.025001525878906,3.887992858886719c.120887756347656.052299499511719.190887451171875.179946899414062.169998168945312.30999755859375l-1.166000366210938,2.167007446289062Z" fill="#fff"/></g></g></svg>